<svg xmlns="http://www.w3.org/2000/svg" xmlns:xlink="http://www.w3.org/1999/xlink" viewBox="0 0 339 339"><defs><style>.cls-1{fill:none;}.cls-2{clip-path:url(#clip-path);}.cls-3{fill:#fff;}.cls-4{clip-path:url(#clip-path-2);}</style><clipPath id="clip-path"><circle class="cls-1" cx="191.5" cy="475.5" r="125.5"/></clipPath><clipPath id="clip-path-2"><circle class="cls-1" cx="169.5" cy="169.5" r="169"/></clipPath></defs><title>fractal01 のコピー</title><g id="レイヤー_5" data-name="レイヤー 5"><g class="cls-2"><path class="cls-3" d="M318.79,475.5a41.95,41.95,0,0,0-1.5-83.87,42,42,0,0,0-41.92-41.92,41.95,41.95,0,0,0-83.87-1.5,41.95,41.95,0,0,0-83.87,1.5,42,42,0,0,0-41.92,41.92,41.95,41.95,0,0,0-1.5,83.87,41.95,41.95,0,0,0,1.5,83.87,42,42,0,0,0,41.92,41.92,41.95,41.95,0,0,0,83.87,1.5,41.95,41.95,0,0,0,83.87-1.5,42,42,0,0,0,41.92-41.92,41.95,41.95,0,0,0,1.5-83.87Zm-43.05,35.88h-.8a42,42,0,0,0-35.48-35.48c0-.13,0-.27,0-.4s0-.27,0-.4a42,42,0,0,0,35.48-35.48h.8a42,42,0,0,0,35.48,35.48c0,.13,0,.27,0,.4s0,.27,0,.4A42,42,0,0,0,275.73,511.38Zm34.86-29.22A36,36,0,0,1,282,510.76,36,36,0,0,1,310.59,482.16ZM233.82,553.3H233a42,42,0,0,0-35.48-35.48c0-.13,0-.27,0-.4s0-.27,0-.4A42,42,0,0,0,233,481.54h.8A42,42,0,0,0,269.3,517c0,.13,0,.27,0,.4s0,.27,0,.4A42,42,0,0,0,233.82,553.3Zm34.86-29.22a36,36,0,0,1-28.61,28.61A36,36,0,0,1,268.68,524.07ZM191.9,595.21h-.8a42,42,0,0,0-35.48-35.48c0-.13,0-.27,0-.4s0-.27,0-.4a42,42,0,0,0,35.48-35.48h.8a42,42,0,0,0,35.48,35.48c0,.13,0,.27,0,.4s0,.27,0,.4A42,42,0,0,0,191.9,595.21ZM226.76,566a36,36,0,0,1-28.61,28.61A36,36,0,0,1,226.76,566Zm-41.92,28.61A36,36,0,0,1,156.24,566,36,36,0,0,1,184.84,594.59ZM113.7,517.82c0-.13,0-.27,0-.4s0-.27,0-.4a42,42,0,0,0,35.48-35.48h.8A42,42,0,0,0,185.46,517c0,.13,0,.27,0,.4s0,.27,0,.4A42,42,0,0,0,150,553.3h-.8A42,42,0,0,0,113.7,517.82Zm29.22,34.86a36,36,0,0,1-28.61-28.61A36,36,0,0,1,142.93,552.68ZM71.79,475.9c0-.13,0-.27,0-.4s0-.27,0-.4a42,42,0,0,0,35.48-35.48h.8a42,42,0,0,0,35.48,35.48c0,.13,0,.27,0,.4s0,.27,0,.4a42,42,0,0,0-35.48,35.48h-.8A42,42,0,0,0,71.79,475.9ZM101,510.76a36,36,0,0,1-28.61-28.61A36,36,0,0,1,101,510.76ZM72.41,468.84A36,36,0,0,1,101,440.24,36,36,0,0,1,72.41,468.84Zm76.78-71.14h.8a42,42,0,0,0,35.48,35.48c0,.13,0,.27,0,.4s0,.27,0,.4A42,42,0,0,0,150,469.46h-.8A42,42,0,0,0,113.7,434c0-.13,0-.27,0-.4s0-.27,0-.4A42,42,0,0,0,149.18,397.7Zm-34.86,29.22a36,36,0,0,1,28.61-28.61A36,36,0,0,1,114.32,426.93Zm76.78-71.14h.8a42,42,0,0,0,35.48,35.48c0,.13,0,.27,0,.4s0,.27,0,.4a42,42,0,0,0-35.48,35.48h-.8a42,42,0,0,0-35.48-35.48c0-.13,0-.27,0-.4s0-.27,0-.4A42,42,0,0,0,191.1,355.79ZM156.24,385a36,36,0,0,1,28.61-28.61A36,36,0,0,1,156.24,385Zm41.92-28.61A36,36,0,0,1,226.76,385,36,36,0,0,1,198.16,356.41Zm71.14,76.78c0,.13,0,.27,0,.4s0,.27,0,.4a42,42,0,0,0-35.48,35.48H233A42,42,0,0,0,197.54,434c0-.13,0-.27,0-.4s0-.27,0-.4A42,42,0,0,0,233,397.7h.8A42,42,0,0,0,269.3,433.18Zm-29.22-34.86a36,36,0,0,1,28.61,28.61A36,36,0,0,1,240.07,398.32Zm28.61,41.92a36,36,0,0,1-28.61,28.61A36,36,0,0,1,268.68,440.24ZM191.9,511.38h-.8a42,42,0,0,0-35.48-35.48c0-.13,0-.27,0-.4s0-.27,0-.4a42,42,0,0,0,35.48-35.48h.8a42,42,0,0,0,35.48,35.48c0,.13,0,.27,0,.4s0,.27,0,.4A42,42,0,0,0,191.9,511.38Zm34.86-29.22a36,36,0,0,1-28.61,28.61A36,36,0,0,1,226.76,482.16Zm-41.92,28.61a36,36,0,0,1-28.61-28.61A36,36,0,0,1,184.84,510.76Zm-28.61-41.92a36,36,0,0,1,28.61-28.61A36,36,0,0,1,156.24,468.84Zm41.92-28.61a36,36,0,0,1,28.61,28.61A36,36,0,0,1,198.16,440.24Zm0-13.31a36,36,0,0,1,28.61-28.61A36,36,0,0,1,198.16,426.93Zm-13.31,0a36,36,0,0,1-28.61-28.61A36,36,0,0,1,184.84,426.93Zm-41.92,41.92a36,36,0,0,1-28.61-28.61A36,36,0,0,1,142.93,468.84Zm0,13.31a36,36,0,0,1-28.61,28.61A36,36,0,0,1,142.93,482.16Zm41.92,41.92a36,36,0,0,1-28.61,28.61A36,36,0,0,1,184.84,524.07Zm13.31,0a36,36,0,0,1,28.61,28.61A36,36,0,0,1,198.16,524.07Zm41.92-41.92a36,36,0,0,1,28.61,28.61A36,36,0,0,1,240.07,482.16ZM282,440.24a36,36,0,0,1,28.61,28.61A36,36,0,0,1,282,440.24Zm71.15-6.66a35.93,35.93,0,0,1-35.89,35.89h-.4A42,42,0,0,0,281.37,434c0-.13,0-.27,0-.4s0-.27,0-.4a42,42,0,0,0,35.48-35.48h.4A35.93,35.93,0,0,1,353.14,433.58ZM282,426.93a36,36,0,0,1,28.61-28.61A36,36,0,0,1,282,426.93Zm29.23-35.26c0,.13,0,.27,0,.4a42,42,0,0,0-35.48,35.48h-.8a42,42,0,0,0-35.48-35.48c0-.13,0-.27,0-.4s0-.27,0-.4a42,42,0,0,0,35.48-35.48h.4A35.93,35.93,0,0,1,311.22,391.67ZM240.07,385a36,36,0,0,1,28.61-28.61A36,36,0,0,1,240.07,385Zm-6.66-71.15a35.93,35.93,0,0,1,35.89,35.89c0,.13,0,.27,0,.4a42,42,0,0,0-35.48,35.48H233a42,42,0,0,0-35.48-35.48c0-.13,0-.27,0-.4A35.93,35.93,0,0,1,233.42,313.86Zm-83.83,0a35.93,35.93,0,0,1,35.89,35.89c0,.13,0,.27,0,.4A42,42,0,0,0,150,385.63h-.8a42,42,0,0,0-35.48-35.48c0-.13,0-.27,0-.4A35.93,35.93,0,0,1,149.58,313.86ZM142.93,385a36,36,0,0,1-28.61-28.61A36,36,0,0,1,142.93,385Zm-35.26-29.23h.4a42,42,0,0,0,35.48,35.48c0,.13,0,.27,0,.4s0,.27,0,.4a42,42,0,0,0-35.48,35.48h-.8a42,42,0,0,0-35.48-35.48c0-.13,0-.27,0-.4A35.93,35.93,0,0,1,107.67,355.78ZM101,426.93a36,36,0,0,1-28.61-28.61A36,36,0,0,1,101,426.93Zm-71.15,6.66a35.93,35.93,0,0,1,35.89-35.89h.4a42,42,0,0,0,35.48,35.48c0,.13,0,.27,0,.4s0,.27,0,.4a42,42,0,0,0-35.48,35.48h-.4A35.93,35.93,0,0,1,29.86,433.58Zm0,83.83a35.93,35.93,0,0,1,35.89-35.89h.4A42,42,0,0,0,101.63,517c0,.13,0,.27,0,.4s0,.27,0,.4A42,42,0,0,0,66.15,553.3h-.4A35.93,35.93,0,0,1,29.86,517.42ZM101,524.07a36,36,0,0,1-28.61,28.61A36,36,0,0,1,101,524.07ZM71.78,559.33c0-.13,0-.27,0-.4a42,42,0,0,0,35.48-35.48h.8a42,42,0,0,0,35.48,35.48c0,.13,0,.27,0,.4s0,.27,0,.4a42,42,0,0,0-35.48,35.48h-.4A35.93,35.93,0,0,1,71.78,559.33ZM142.93,566a36,36,0,0,1-28.61,28.61A36,36,0,0,1,142.93,566Zm6.66,71.15a35.93,35.93,0,0,1-35.89-35.89c0-.13,0-.27,0-.4a42,42,0,0,0,35.48-35.48h.8a42,42,0,0,0,35.48,35.48c0,.13,0,.27,0,.4A35.93,35.93,0,0,1,149.58,637.14Zm83.83,0a35.93,35.93,0,0,1-35.89-35.89c0-.13,0-.27,0-.4A42,42,0,0,0,233,565.37h.8a42,42,0,0,0,35.48,35.48c0,.13,0,.27,0,.4A35.93,35.93,0,0,1,233.42,637.14ZM240.07,566a36,36,0,0,1,28.61,28.61A36,36,0,0,1,240.07,566Zm35.26,29.23h-.4a42,42,0,0,0-35.48-35.48c0-.13,0-.27,0-.4s0-.27,0-.4a42,42,0,0,0,35.48-35.48h.8a42,42,0,0,0,35.48,35.48c0,.13,0,.27,0,.4A35.93,35.93,0,0,1,275.33,595.22ZM282,524.07a36,36,0,0,1,28.61,28.61A36,36,0,0,1,282,524.07Zm35.26,29.23h-.4a42,42,0,0,0-35.48-35.48c0-.13,0-.27,0-.4s0-.27,0-.4a42,42,0,0,0,35.48-35.48h.4a35.89,35.89,0,0,1,0,71.78Z"/></g><g class="cls-4"><path class="cls-3" d="M340.74,169.5a56.43,56.43,0,0,0-2-112.83A56.5,56.5,0,0,0,282.33.28a56.51,56.51,0,0,0-56.44-56.39A56.5,56.5,0,0,0,169.5-1.74a56.5,56.5,0,0,0-56.39-54.38A56.51,56.51,0,0,0,56.67.28,56.5,56.5,0,0,0,.28,56.67a56.51,56.51,0,0,0-56.39,56.44A56.5,56.5,0,0,0-1.74,169.5a56.5,56.5,0,0,0-54.37,56.39A56.51,56.51,0,0,0,.28,282.33a56.5,56.5,0,0,0,56.39,56.39,56.43,56.43,0,0,0,112.83,2,56.43,56.43,0,0,0,112.83-2,56.5,56.5,0,0,0,56.39-56.39,56.43,56.43,0,0,0,2-112.83Zm-57.92,48.27h-1.08A56.56,56.56,0,0,0,234,170c0-.18,0-.36,0-.54s0-.36,0-.54a56.56,56.56,0,0,0,47.73-47.73h1.08A56.56,56.56,0,0,0,330.55,169c0,.18,0,.36,0,.54s0,.36,0,.54A56.56,56.56,0,0,0,282.82,217.77Zm46.9-39.31a48.4,48.4,0,0,1-38.48,38.48A48.4,48.4,0,0,1,329.71,178.45Zm-103.28,95.7h-1.08a56.56,56.56,0,0,0-47.73-47.73c0-.18,0-.36,0-.54s0-.36,0-.54a56.56,56.56,0,0,0,47.73-47.73h1.08a56.56,56.56,0,0,0,47.73,47.73c0,.18,0,.36,0,.54s0,.36,0,.54A56.56,56.56,0,0,0,226.43,274.16Zm46.9-39.31a48.4,48.4,0,0,1-38.48,38.48A48.4,48.4,0,0,1,273.33,234.84ZM170,330.55H169a56.56,56.56,0,0,0-47.73-47.73c0-.18,0-.36,0-.54s0-.36,0-.54A56.56,56.56,0,0,0,169,234H170a56.56,56.56,0,0,0,47.73,47.73c0,.18,0,.36,0,.54s0,.36,0,.54A56.56,56.56,0,0,0,170,330.55Zm46.9-39.31a48.4,48.4,0,0,1-38.48,38.48A48.4,48.4,0,0,1,216.94,291.23Zm-56.39,38.48a48.4,48.4,0,0,1-38.48-38.48A48.4,48.4,0,0,1,160.55,329.71ZM64.84,226.43c0-.18,0-.36,0-.54s0-.36,0-.54a56.56,56.56,0,0,0,47.73-47.73h1.08a56.56,56.56,0,0,0,47.73,47.73c0,.18,0,.36,0,.54s0,.36,0,.54a56.56,56.56,0,0,0-47.73,47.73h-1.08A56.56,56.56,0,0,0,64.84,226.43Zm39.31,46.9a48.4,48.4,0,0,1-38.48-38.48A48.4,48.4,0,0,1,104.16,273.33ZM8.45,170c0-.18,0-.36,0-.54s0-.36,0-.54a56.56,56.56,0,0,0,47.73-47.73h1.08A56.56,56.56,0,0,0,105,169c0,.18,0,.36,0,.54s0,.36,0,.54a56.56,56.56,0,0,0-47.73,47.73H56.18A56.56,56.56,0,0,0,8.45,170Zm39.31,46.9A48.4,48.4,0,0,1,9.29,178.45,48.4,48.4,0,0,1,47.77,216.94ZM9.29,160.55a48.4,48.4,0,0,1,38.48-38.48A48.4,48.4,0,0,1,9.29,160.55Zm103.28-95.7h1.08a56.56,56.56,0,0,0,47.73,47.73c0,.18,0,.36,0,.54s0,.36,0,.54a56.56,56.56,0,0,0-47.73,47.73h-1.08a56.56,56.56,0,0,0-47.73-47.73c0-.18,0-.36,0-.54s0-.36,0-.54A56.56,56.56,0,0,0,112.57,64.84Zm-46.9,39.31a48.4,48.4,0,0,1,38.48-38.48A48.4,48.4,0,0,1,65.67,104.16ZM169,8.45H170a56.56,56.56,0,0,0,47.73,47.73c0,.18,0,.36,0,.54s0,.36,0,.54A56.56,56.56,0,0,0,170,105H169a56.56,56.56,0,0,0-47.73-47.73c0-.18,0-.36,0-.54s0-.36,0-.54A56.56,56.56,0,0,0,169,8.45Zm-46.9,39.31A48.4,48.4,0,0,1,160.55,9.29,48.4,48.4,0,0,1,122.06,47.77ZM178.45,9.29a48.4,48.4,0,0,1,38.48,38.48A48.4,48.4,0,0,1,178.45,9.29Zm95.7,103.28c0,.18,0,.36,0,.54s0,.36,0,.54a56.56,56.56,0,0,0-47.73,47.73h-1.08a56.56,56.56,0,0,0-47.73-47.73c0-.18,0-.36,0-.54s0-.36,0-.54a56.56,56.56,0,0,0,47.73-47.73h1.08A56.56,56.56,0,0,0,274.16,112.57Zm-39.31-46.9a48.4,48.4,0,0,1,38.48,38.48A48.4,48.4,0,0,1,234.84,65.67Zm38.48,56.39a48.4,48.4,0,0,1-38.48,38.48A48.4,48.4,0,0,1,273.33,122.06ZM170,217.77H169A56.56,56.56,0,0,0,121.23,170c0-.18,0-.36,0-.54s0-.36,0-.54A56.56,56.56,0,0,0,169,121.23H170A56.56,56.56,0,0,0,217.77,169c0,.18,0,.36,0,.54s0,.36,0,.54A56.56,56.56,0,0,0,170,217.77Zm46.9-39.31a48.4,48.4,0,0,1-38.48,38.48A48.4,48.4,0,0,1,216.94,178.45Zm-56.39,38.48a48.4,48.4,0,0,1-38.48-38.48A48.4,48.4,0,0,1,160.55,216.94Zm-38.48-56.39a48.4,48.4,0,0,1,38.48-38.48A48.4,48.4,0,0,1,122.06,160.55Zm56.39-38.48a48.4,48.4,0,0,1,38.48,38.48A48.4,48.4,0,0,1,178.45,122.06Zm0-17.91a48.4,48.4,0,0,1,38.48-38.48A48.4,48.4,0,0,1,178.45,104.16Zm-17.91,0a48.4,48.4,0,0,1-38.48-38.48A48.4,48.4,0,0,1,160.55,104.16Zm-56.39,56.39a48.4,48.4,0,0,1-38.48-38.48A48.4,48.4,0,0,1,104.16,160.55Zm0,17.91a48.4,48.4,0,0,1-38.48,38.48A48.4,48.4,0,0,1,104.16,178.45Zm56.39,56.39a48.4,48.4,0,0,1-38.48,38.48A48.4,48.4,0,0,1,160.55,234.84Zm17.91,0a48.4,48.4,0,0,1,38.48,38.48A48.4,48.4,0,0,1,178.45,234.84Zm56.39-56.39a48.4,48.4,0,0,1,38.48,38.48A48.4,48.4,0,0,1,234.84,178.45Zm56.39-56.39a48.4,48.4,0,0,1,38.48,38.48A48.4,48.4,0,0,1,291.23,122.06Zm95.72-9a48.34,48.34,0,0,1-48.28,48.28h-.54a56.56,56.56,0,0,0-47.73-47.73c0-.18,0-.36,0-.54s0-.36,0-.54a56.56,56.56,0,0,0,47.73-47.73h.54A48.34,48.34,0,0,1,386.95,113.11Zm-95.72-9a48.4,48.4,0,0,1,38.48-38.48A48.4,48.4,0,0,1,291.23,104.16Zm39.33-47.44c0,.18,0,.36,0,.54A56.56,56.56,0,0,0,282.82,105h-1.08A56.56,56.56,0,0,0,234,57.26c0-.18,0-.36,0-.54s0-.36,0-.54A56.56,56.56,0,0,0,281.74,8.45h.54A48.34,48.34,0,0,1,330.56,56.72Zm-95.72-9A48.4,48.4,0,0,1,273.33,9.29,48.4,48.4,0,0,1,234.84,47.77Zm-9-95.72A48.34,48.34,0,0,1,274.17.33c0,.18,0,.36,0,.54A56.56,56.56,0,0,0,226.43,48.6h-1.08A56.56,56.56,0,0,0,177.62.87c0-.18,0-.36,0-.54A48.34,48.34,0,0,1,225.89-47.95Zm-112.78,0A48.34,48.34,0,0,1,161.39.33c0,.18,0,.36,0,.54A56.56,56.56,0,0,0,113.65,48.6h-1.08A56.56,56.56,0,0,0,64.84.87c0-.18,0-.36,0-.54A48.34,48.34,0,0,1,113.11-47.95Zm-9,95.72A48.4,48.4,0,0,1,65.67,9.29,48.4,48.4,0,0,1,104.16,47.77ZM56.72,8.44h.54A56.56,56.56,0,0,0,105,56.18c0,.18,0,.36,0,.54s0,.36,0,.54A56.56,56.56,0,0,0,57.26,105H56.18A56.56,56.56,0,0,0,8.45,57.26c0-.18,0-.36,0-.54A48.34,48.34,0,0,1,56.72,8.44Zm-9,95.72A48.4,48.4,0,0,1,9.29,65.67,48.4,48.4,0,0,1,47.77,104.16Zm-95.72,9A48.34,48.34,0,0,1,.33,64.83H.87A56.56,56.56,0,0,0,48.6,112.57c0,.18,0,.36,0,.54s0,.36,0,.54A56.56,56.56,0,0,0,.87,161.38H.33A48.34,48.34,0,0,1-47.95,113.11Zm0,112.78A48.34,48.34,0,0,1,.33,177.61H.87A56.56,56.56,0,0,0,48.6,225.35c0,.18,0,.36,0,.54s0,.36,0,.54A56.56,56.56,0,0,0,.87,274.16H.33A48.34,48.34,0,0,1-47.95,225.89Zm95.72,9A48.4,48.4,0,0,1,9.29,273.33,48.4,48.4,0,0,1,47.77,234.84ZM8.44,282.28c0-.18,0-.36,0-.54A56.56,56.56,0,0,0,56.18,234h1.08A56.56,56.56,0,0,0,105,281.74c0,.18,0,.36,0,.54s0,.36,0,.54a56.56,56.56,0,0,0-47.73,47.73h-.54A48.34,48.34,0,0,1,8.44,282.28Zm95.72,9a48.4,48.4,0,0,1-38.48,38.48A48.4,48.4,0,0,1,104.16,291.23Zm9,95.72a48.34,48.34,0,0,1-48.28-48.28c0-.18,0-.36,0-.54a56.56,56.56,0,0,0,47.73-47.73h1.08a56.56,56.56,0,0,0,47.73,47.73c0,.18,0,.36,0,.54A48.34,48.34,0,0,1,113.11,386.95Zm112.78,0a48.34,48.34,0,0,1-48.28-48.28c0-.18,0-.36,0-.54a56.56,56.56,0,0,0,47.73-47.73h1.08a56.56,56.56,0,0,0,47.73,47.73c0,.18,0,.36,0,.54A48.34,48.34,0,0,1,225.89,386.95Zm9-95.72a48.4,48.4,0,0,1,38.48,38.48A48.4,48.4,0,0,1,234.84,291.23Zm47.44,39.33h-.54A56.56,56.56,0,0,0,234,282.82c0-.18,0-.36,0-.54s0-.36,0-.54A56.56,56.56,0,0,0,281.74,234h1.08a56.56,56.56,0,0,0,47.73,47.73c0,.18,0,.36,0,.54A48.34,48.34,0,0,1,282.28,330.56Zm9-95.72a48.4,48.4,0,0,1,38.48,38.48A48.4,48.4,0,0,1,291.23,234.84Zm47.44,39.33h-.54a56.56,56.56,0,0,0-47.73-47.73c0-.18,0-.36,0-.54s0-.36,0-.54a56.56,56.56,0,0,0,47.73-47.73h.54a48.28,48.28,0,0,1,0,96.56Z"/></g></g></svg>