<svg xmlns="http://www.w3.org/2000/svg" xmlns:xlink="http://www.w3.org/1999/xlink" viewBox="0 0 161 161"><defs><style>.cls-1{fill:none;}.cls-2{clip-path:url(#clip-path);}.cls-3{fill:#fff;}.cls-4{clip-path:url(#clip-path-2);}.cls-5{opacity:0.4;}.cls-6{clip-path:url(#clip-path-3);}</style><clipPath id="clip-path"><circle class="cls-1" cx="-157.5" cy="80.5" r="125.5"/></clipPath><clipPath id="clip-path-2"><circle class="cls-1" cx="-179.5" cy="-225.5" r="169"/></clipPath><clipPath id="clip-path-3"><circle class="cls-1" cx="80.5" cy="80.5" r="80"/></clipPath></defs><title>fractal03 のコピー</title><g id="レイヤー_5" data-name="レイヤー 5"><g class="cls-2"><path class="cls-3" d="M-30.21,80.5A42,42,0,0,0,10.2,38.58a42,42,0,0,0-41.92-42A42,42,0,0,0-73.63-45.29a42,42,0,0,0-42-41.92A42,42,0,0,0-157.5-46.79,42,42,0,0,0-199.42-87.2a42,42,0,0,0-42,41.92A42,42,0,0,0-283.29-3.37a42,42,0,0,0-41.92,42A42,42,0,0,0-284.79,80.5a42,42,0,0,0-40.42,41.92,42,42,0,0,0,41.92,42,42,42,0,0,0,41.92,41.92,42,42,0,0,0,42,41.92,42,42,0,0,0,41.92-40.42,42,42,0,0,0,41.92,40.42,42,42,0,0,0,42-41.92,42,42,0,0,0,41.92-41.92,42,42,0,0,0,41.92-42A42,42,0,0,0-30.21,80.5Zm-43.05,35.88h-.8A42,42,0,0,0-109.55,80.9c0-.13,0-.27,0-.4s0-.27,0-.4A42,42,0,0,0-74.07,44.62h.8A42,42,0,0,0-37.79,80.1c0,.13,0,.27,0,.4s0,.27,0,.4A42,42,0,0,0-73.27,116.38Zm34.86-29.22A36,36,0,0,1-67,115.76,36,36,0,0,1-38.41,87.16Zm-76.78,71.14h-.8a42,42,0,0,0-35.48-35.48c0-.13,0-.27,0-.4s0-.27,0-.4A42,42,0,0,0-116,86.54h.8A42,42,0,0,0-79.7,122c0,.13,0,.27,0,.4s0,.27,0,.4A42,42,0,0,0-115.18,158.3Zm34.86-29.22a36,36,0,0,1-28.61,28.61A36,36,0,0,1-80.32,129.07Zm-76.78,71.14h-.8a42,42,0,0,0-35.48-35.48c0-.13,0-.27,0-.4s0-.27,0-.4a42,42,0,0,0,35.48-35.48h.8a42,42,0,0,0,35.48,35.48c0,.13,0,.27,0,.4s0,.27,0,.4A42,42,0,0,0-157.1,200.21ZM-122.24,171a36,36,0,0,1-28.61,28.61A36,36,0,0,1-122.24,171Zm-41.92,28.61A36,36,0,0,1-192.76,171,36,36,0,0,1-164.16,199.59Zm-71.14-76.78c0-.13,0-.27,0-.4s0-.27,0-.4a42,42,0,0,0,35.48-35.48h.8A42,42,0,0,0-163.54,122c0,.13,0,.27,0,.4s0,.27,0,.4A42,42,0,0,0-199,158.3h-.8A42,42,0,0,0-235.3,122.82Zm29.22,34.86a36,36,0,0,1-28.61-28.61A36,36,0,0,1-206.07,157.68ZM-277.21,80.9c0-.13,0-.27,0-.4s0-.27,0-.4a42,42,0,0,0,35.48-35.48h.8A42,42,0,0,0-205.45,80.1c0,.13,0,.27,0,.4s0,.27,0,.4a42,42,0,0,0-35.48,35.48h-.8A42,42,0,0,0-277.21,80.9ZM-248,115.76a36,36,0,0,1-28.61-28.61A36,36,0,0,1-248,115.76Zm-28.61-41.92A36,36,0,0,1-248,45.24,36,36,0,0,1-276.59,73.84ZM-199.82,2.7h.8a42,42,0,0,0,35.48,35.48c0,.13,0,.27,0,.4s0,.27,0,.4A42,42,0,0,0-199,74.46h-.8A42,42,0,0,0-235.3,39c0-.13,0-.27,0-.4s0-.27,0-.4A42,42,0,0,0-199.82,2.7Zm-34.86,29.22A36,36,0,0,1-206.07,3.32,36,36,0,0,1-234.68,31.93Zm76.78-71.14h.8A42,42,0,0,0-121.62-3.73c0,.13,0,.27,0,.4s0,.27,0,.4A42,42,0,0,0-157.1,32.55h-.8A42,42,0,0,0-193.38-2.93c0-.13,0-.27,0-.4s0-.27,0-.4A42,42,0,0,0-157.9-39.21ZM-192.76-10a36,36,0,0,1,28.61-28.61A36,36,0,0,1-192.76-10Zm41.92-28.61A36,36,0,0,1-122.24-10,36,36,0,0,1-150.84-38.59ZM-79.7,38.18c0,.13,0,.27,0,.4s0,.27,0,.4a42,42,0,0,0-35.48,35.48h-.8A42,42,0,0,0-151.46,39c0-.13,0-.27,0-.4s0-.27,0-.4A42,42,0,0,0-116,2.7h.8A42,42,0,0,0-79.7,38.18ZM-108.93,3.32A36,36,0,0,1-80.32,31.93,36,36,0,0,1-108.93,3.32Zm28.61,41.92a36,36,0,0,1-28.61,28.61A36,36,0,0,1-80.32,45.24Zm-76.78,71.14h-.8A42,42,0,0,0-193.38,80.9c0-.13,0-.27,0-.4s0-.27,0-.4A42,42,0,0,0-157.9,44.62h.8A42,42,0,0,0-121.62,80.1c0,.13,0,.27,0,.4s0,.27,0,.4A42,42,0,0,0-157.1,116.38Zm34.86-29.22a36,36,0,0,1-28.61,28.61A36,36,0,0,1-122.24,87.16Zm-41.92,28.61a36,36,0,0,1-28.61-28.61A36,36,0,0,1-164.16,115.76Zm-28.61-41.92a36,36,0,0,1,28.61-28.61A36,36,0,0,1-192.76,73.84Zm41.92-28.61a36,36,0,0,1,28.61,28.61A36,36,0,0,1-150.84,45.24Zm0-13.31A36,36,0,0,1-122.24,3.32,36,36,0,0,1-150.84,31.93Zm-13.31,0A36,36,0,0,1-192.76,3.32,36,36,0,0,1-164.16,31.93Zm-41.92,41.92a36,36,0,0,1-28.61-28.61A36,36,0,0,1-206.07,73.84Zm0,13.31a36,36,0,0,1-28.61,28.61A36,36,0,0,1-206.07,87.16Zm41.92,41.92a36,36,0,0,1-28.61,28.61A36,36,0,0,1-164.16,129.07Zm13.31,0a36,36,0,0,1,28.61,28.61A36,36,0,0,1-150.84,129.07Zm41.92-41.92a36,36,0,0,1,28.61,28.61A36,36,0,0,1-108.93,87.16ZM-67,45.24A36,36,0,0,1-38.41,73.84,36,36,0,0,1-67,45.24ZM4.14,38.58A35.93,35.93,0,0,1-31.75,74.47h-.4A42,42,0,0,0-67.63,39c0-.13,0-.27,0-.4s0-.27,0-.4A42,42,0,0,0-32.15,2.7h.4A35.93,35.93,0,0,1,4.14,38.58ZM-67,31.93A36,36,0,0,1-38.41,3.32,36,36,0,0,1-67,31.93ZM-37.78-3.33c0,.13,0,.27,0,.4A42,42,0,0,0-73.27,32.55h-.8A42,42,0,0,0-109.55-2.93c0-.13,0-.27,0-.4s0-.27,0-.4A42,42,0,0,0-74.07-39.21h.4A35.93,35.93,0,0,1-37.78-3.33ZM-108.93-10A36,36,0,0,1-80.32-38.59,36,36,0,0,1-108.93-10Zm-6.66-71.15A35.93,35.93,0,0,1-79.69-45.25c0,.13,0,.27,0,.4A42,42,0,0,0-115.18-9.37h-.8a42,42,0,0,0-35.48-35.48c0-.13,0-.27,0-.4A35.93,35.93,0,0,1-115.58-81.14Zm-83.83,0a35.93,35.93,0,0,1,35.89,35.89c0,.13,0,.27,0,.4A42,42,0,0,0-199-9.37h-.8A42,42,0,0,0-235.3-44.85c0-.13,0-.27,0-.4A35.93,35.93,0,0,1-199.42-81.14ZM-206.07-10a36,36,0,0,1-28.61-28.61A36,36,0,0,1-206.07-10Zm-35.26-29.23h.4A42,42,0,0,0-205.45-3.73c0,.13,0,.27,0,.4s0,.27,0,.4a42,42,0,0,0-35.48,35.48h-.8A42,42,0,0,0-277.21-2.93c0-.13,0-.27,0-.4A35.93,35.93,0,0,1-241.33-39.22ZM-248,31.93A36,36,0,0,1-276.59,3.32,36,36,0,0,1-248,31.93Zm-71.15,6.66A35.93,35.93,0,0,1-283.25,2.69h.4a42,42,0,0,0,35.48,35.48c0,.13,0,.27,0,.4s0,.27,0,.4a42,42,0,0,0-35.48,35.48h-.4A35.93,35.93,0,0,1-319.14,38.58Zm0,83.83a35.93,35.93,0,0,1,35.89-35.89h.4A42,42,0,0,0-247.37,122c0,.13,0,.27,0,.4s0,.27,0,.4a42,42,0,0,0-35.48,35.48h-.4A35.93,35.93,0,0,1-319.14,122.42Zm71.15,6.66a36,36,0,0,1-28.61,28.61A36,36,0,0,1-248,129.07Zm-29.23,35.26c0-.13,0-.27,0-.4a42,42,0,0,0,35.48-35.48h.8a42,42,0,0,0,35.48,35.48c0,.13,0,.27,0,.4s0,.27,0,.4a42,42,0,0,0-35.48,35.48h-.4A35.93,35.93,0,0,1-277.22,164.33Zm71.15,6.66a36,36,0,0,1-28.61,28.61A36,36,0,0,1-206.07,171Zm6.66,71.15a35.93,35.93,0,0,1-35.89-35.89c0-.13,0-.27,0-.4a42,42,0,0,0,35.48-35.48h.8a42,42,0,0,0,35.48,35.48c0,.13,0,.27,0,.4A35.93,35.93,0,0,1-199.42,242.14Zm83.83,0a35.93,35.93,0,0,1-35.89-35.89c0-.13,0-.27,0-.4A42,42,0,0,0-116,170.37h.8A42,42,0,0,0-79.7,205.85c0,.13,0,.27,0,.4A35.93,35.93,0,0,1-115.58,242.14Zm6.66-71.15a36,36,0,0,1,28.61,28.61A36,36,0,0,1-108.93,171Zm35.26,29.23h-.4a42,42,0,0,0-35.48-35.48c0-.13,0-.27,0-.4s0-.27,0-.4a42,42,0,0,0,35.48-35.48h.8a42,42,0,0,0,35.48,35.48c0,.13,0,.27,0,.4A35.93,35.93,0,0,1-73.67,200.22ZM-67,129.07a36,36,0,0,1,28.61,28.61A36,36,0,0,1-67,129.07Zm35.26,29.23h-.4a42,42,0,0,0-35.48-35.48c0-.13,0-.27,0-.4s0-.27,0-.4A42,42,0,0,0-32.15,86.54h.4A35.93,35.93,0,0,1,4.14,122.42,35.93,35.93,0,0,1-31.75,158.31Z"/></g><g class="cls-4"><path class="cls-3" d="M-8.26-225.5a56.5,56.5,0,0,0,54.37-56.39,56.51,56.51,0,0,0-56.39-56.44,56.5,56.5,0,0,0-56.39-56.39,56.51,56.51,0,0,0-56.44-56.39,56.5,56.5,0,0,0-56.39,54.38,56.5,56.5,0,0,0-56.39-54.38,56.51,56.51,0,0,0-56.44,56.39,56.5,56.5,0,0,0-56.39,56.39,56.51,56.51,0,0,0-56.39,56.44,56.5,56.5,0,0,0,54.37,56.39,56.5,56.5,0,0,0-54.37,56.39,56.51,56.51,0,0,0,56.39,56.44,56.5,56.5,0,0,0,56.39,56.39A56.51,56.51,0,0,0-235.89.11,56.5,56.5,0,0,0-179.5-54.26,56.5,56.5,0,0,0-123.11.11,56.51,56.51,0,0,0-66.67-56.28a56.5,56.5,0,0,0,56.39-56.39,56.51,56.51,0,0,0,56.39-56.44A56.5,56.5,0,0,0-8.26-225.5Zm-57.92,48.27h-1.08A56.56,56.56,0,0,0-115-225c0-.18,0-.36,0-.54s0-.36,0-.54a56.56,56.56,0,0,0,47.73-47.73h1.08A56.56,56.56,0,0,0-18.45-226c0,.18,0,.36,0,.54s0,.36,0,.54A56.56,56.56,0,0,0-66.18-177.23Zm46.9-39.31a48.4,48.4,0,0,1-38.48,38.48A48.4,48.4,0,0,1-19.29-216.55Zm-103.28,95.7h-1.08a56.56,56.56,0,0,0-47.73-47.73c0-.18,0-.36,0-.54s0-.36,0-.54a56.56,56.56,0,0,0,47.73-47.73h1.08a56.56,56.56,0,0,0,47.73,47.73c0,.18,0,.36,0,.54s0,.36,0,.54A56.56,56.56,0,0,0-122.57-120.84Zm46.9-39.31a48.4,48.4,0,0,1-38.48,38.48A48.4,48.4,0,0,1-75.67-160.16ZM-179-64.45H-180a56.56,56.56,0,0,0-47.73-47.73c0-.18,0-.36,0-.54s0-.36,0-.54A56.56,56.56,0,0,0-180-161H-179a56.56,56.56,0,0,0,47.73,47.73c0,.18,0,.36,0,.54s0,.36,0,.54A56.56,56.56,0,0,0-179-64.45Zm46.9-39.31a48.4,48.4,0,0,1-38.48,38.48A48.4,48.4,0,0,1-132.06-103.77Zm-56.39,38.48a48.4,48.4,0,0,1-38.48-38.48A48.4,48.4,0,0,1-188.45-65.29Zm-95.7-103.28c0-.18,0-.36,0-.54s0-.36,0-.54a56.56,56.56,0,0,0,47.73-47.73h1.08a56.56,56.56,0,0,0,47.73,47.73c0,.18,0,.36,0,.54s0,.36,0,.54a56.56,56.56,0,0,0-47.73,47.73h-1.08A56.56,56.56,0,0,0-284.16-168.57Zm39.31,46.9a48.4,48.4,0,0,1-38.48-38.48A48.4,48.4,0,0,1-244.84-121.67ZM-340.55-225c0-.18,0-.36,0-.54s0-.36,0-.54a56.56,56.56,0,0,0,47.73-47.73h1.08A56.56,56.56,0,0,0-244-226c0,.18,0,.36,0,.54s0,.36,0,.54a56.56,56.56,0,0,0-47.73,47.73h-1.08A56.56,56.56,0,0,0-340.55-225Zm39.31,46.9a48.4,48.4,0,0,1-38.48-38.48A48.4,48.4,0,0,1-301.23-178.06Zm-38.48-56.39a48.4,48.4,0,0,1,38.48-38.48A48.4,48.4,0,0,1-339.71-234.45Zm103.28-95.7h1.08a56.56,56.56,0,0,0,47.73,47.73c0,.18,0,.36,0,.54s0,.36,0,.54a56.56,56.56,0,0,0-47.73,47.73h-1.08a56.56,56.56,0,0,0-47.73-47.73c0-.18,0-.36,0-.54s0-.36,0-.54A56.56,56.56,0,0,0-236.43-330.16Zm-46.9,39.31a48.4,48.4,0,0,1,38.48-38.48A48.4,48.4,0,0,1-283.33-290.84ZM-180-386.55H-179a56.56,56.56,0,0,0,47.73,47.73c0,.18,0,.36,0,.54s0,.36,0,.54A56.56,56.56,0,0,0-179-290H-180a56.56,56.56,0,0,0-47.73-47.73c0-.18,0-.36,0-.54s0-.36,0-.54A56.56,56.56,0,0,0-180-386.55Zm-46.9,39.31a48.4,48.4,0,0,1,38.48-38.48A48.4,48.4,0,0,1-226.94-347.23Zm56.39-38.48a48.4,48.4,0,0,1,38.48,38.48A48.4,48.4,0,0,1-170.55-385.71Zm95.7,103.28c0,.18,0,.36,0,.54s0,.36,0,.54a56.56,56.56,0,0,0-47.73,47.73h-1.08a56.56,56.56,0,0,0-47.73-47.73c0-.18,0-.36,0-.54s0-.36,0-.54a56.56,56.56,0,0,0,47.73-47.73h1.08A56.56,56.56,0,0,0-74.84-282.43Zm-39.31-46.9a48.4,48.4,0,0,1,38.48,38.48A48.4,48.4,0,0,1-114.16-329.33Zm38.48,56.39a48.4,48.4,0,0,1-38.48,38.48A48.4,48.4,0,0,1-75.67-272.94ZM-179-177.23H-180A56.56,56.56,0,0,0-227.77-225c0-.18,0-.36,0-.54s0-.36,0-.54A56.56,56.56,0,0,0-180-273.77H-179A56.56,56.56,0,0,0-131.23-226c0,.18,0,.36,0,.54s0,.36,0,.54A56.56,56.56,0,0,0-179-177.23Zm46.9-39.31a48.4,48.4,0,0,1-38.48,38.48A48.4,48.4,0,0,1-132.06-216.55Zm-56.39,38.48a48.4,48.4,0,0,1-38.48-38.48A48.4,48.4,0,0,1-188.45-178.06Zm-38.48-56.39a48.4,48.4,0,0,1,38.48-38.48A48.4,48.4,0,0,1-226.94-234.45Zm56.39-38.48a48.4,48.4,0,0,1,38.48,38.48A48.4,48.4,0,0,1-170.55-272.94Zm0-17.91a48.4,48.4,0,0,1,38.48-38.48A48.4,48.4,0,0,1-170.55-290.84Zm-17.91,0a48.4,48.4,0,0,1-38.48-38.48A48.4,48.4,0,0,1-188.45-290.84Zm-56.39,56.39a48.4,48.4,0,0,1-38.48-38.48A48.4,48.4,0,0,1-244.84-234.45Zm0,17.91a48.4,48.4,0,0,1-38.48,38.48A48.4,48.4,0,0,1-244.84-216.55Zm56.39,56.39a48.4,48.4,0,0,1-38.48,38.48A48.4,48.4,0,0,1-188.45-160.16Zm17.91,0a48.4,48.4,0,0,1,38.48,38.48A48.4,48.4,0,0,1-170.55-160.16Zm56.39-56.39a48.4,48.4,0,0,1,38.48,38.48A48.4,48.4,0,0,1-114.16-216.55Zm56.39-56.39a48.4,48.4,0,0,1,38.48,38.48A48.4,48.4,0,0,1-57.77-272.94Zm95.72-9a48.34,48.34,0,0,1-48.28,48.28h-.54A56.56,56.56,0,0,0-58.6-281.35c0-.18,0-.36,0-.54s0-.36,0-.54a56.56,56.56,0,0,0,47.73-47.73h.54A48.34,48.34,0,0,1,37.95-281.89Zm-95.72-9a48.4,48.4,0,0,1,38.48-38.48A48.4,48.4,0,0,1-57.77-290.84Zm39.33-47.44c0,.18,0,.36,0,.54A56.56,56.56,0,0,0-66.18-290h-1.08A56.56,56.56,0,0,0-115-337.74c0-.18,0-.36,0-.54s0-.36,0-.54a56.56,56.56,0,0,0,47.73-47.73h.54A48.34,48.34,0,0,1-18.44-338.28Zm-95.72-9a48.4,48.4,0,0,1,38.48-38.48A48.4,48.4,0,0,1-114.16-347.23Zm-9-95.72a48.34,48.34,0,0,1,48.28,48.28c0,.18,0,.36,0,.54a56.56,56.56,0,0,0-47.73,47.73h-1.08a56.56,56.56,0,0,0-47.73-47.73c0-.18,0-.36,0-.54A48.34,48.34,0,0,1-123.11-442.95Zm-112.78,0a48.34,48.34,0,0,1,48.28,48.28c0,.18,0,.36,0,.54a56.56,56.56,0,0,0-47.73,47.73h-1.08a56.56,56.56,0,0,0-47.73-47.73c0-.18,0-.36,0-.54A48.34,48.34,0,0,1-235.89-442.95Zm-9,95.72a48.4,48.4,0,0,1-38.48-38.48A48.4,48.4,0,0,1-244.84-347.23Zm-47.44-39.33h.54A56.56,56.56,0,0,0-244-338.82c0,.18,0,.36,0,.54s0,.36,0,.54A56.56,56.56,0,0,0-291.74-290h-1.08a56.56,56.56,0,0,0-47.73-47.73c0-.18,0-.36,0-.54A48.34,48.34,0,0,1-292.28-386.56Zm-9,95.72a48.4,48.4,0,0,1-38.48-38.48A48.4,48.4,0,0,1-301.23-290.84Zm-95.72,9a48.34,48.34,0,0,1,48.28-48.28h.54a56.56,56.56,0,0,0,47.73,47.73c0,.18,0,.36,0,.54s0,.36,0,.54a56.56,56.56,0,0,0-47.73,47.73h-.54A48.34,48.34,0,0,1-396.95-281.89Zm0,112.78a48.34,48.34,0,0,1,48.28-48.28h.54a56.56,56.56,0,0,0,47.73,47.73c0,.18,0,.36,0,.54s0,.36,0,.54a56.56,56.56,0,0,0-47.73,47.73h-.54A48.34,48.34,0,0,1-396.95-169.11Zm95.72,9a48.4,48.4,0,0,1-38.48,38.48A48.4,48.4,0,0,1-301.23-160.16Zm-39.33,47.44c0-.18,0-.36,0-.54A56.56,56.56,0,0,0-292.82-161h1.08A56.56,56.56,0,0,0-244-113.26c0,.18,0,.36,0,.54s0,.36,0,.54a56.56,56.56,0,0,0-47.73,47.73h-.54A48.34,48.34,0,0,1-340.56-112.72Zm95.72,9a48.4,48.4,0,0,1-38.48,38.48A48.4,48.4,0,0,1-244.84-103.77Zm9,95.72a48.34,48.34,0,0,1-48.28-48.28c0-.18,0-.36,0-.54a56.56,56.56,0,0,0,47.73-47.73h1.08a56.56,56.56,0,0,0,47.73,47.73c0,.18,0,.36,0,.54A48.34,48.34,0,0,1-235.89-8.05Zm112.78,0a48.34,48.34,0,0,1-48.28-48.28c0-.18,0-.36,0-.54a56.56,56.56,0,0,0,47.73-47.73h1.08A56.56,56.56,0,0,0-74.84-56.87c0,.18,0,.36,0,.54A48.34,48.34,0,0,1-123.11-8.05Zm9-95.72A48.4,48.4,0,0,1-75.67-65.29,48.4,48.4,0,0,1-114.16-103.77Zm47.44,39.33h-.54A56.56,56.56,0,0,0-115-112.18c0-.18,0-.36,0-.54s0-.36,0-.54A56.56,56.56,0,0,0-67.26-161h1.08a56.56,56.56,0,0,0,47.73,47.73c0,.18,0,.36,0,.54A48.34,48.34,0,0,1-66.72-64.44Zm9-95.72a48.4,48.4,0,0,1,38.48,38.48A48.4,48.4,0,0,1-57.77-160.16Zm47.44,39.33h-.54A56.56,56.56,0,0,0-58.6-168.57c0-.18,0-.36,0-.54s0-.36,0-.54a56.56,56.56,0,0,0,47.73-47.73h.54a48.34,48.34,0,0,1,48.28,48.28A48.34,48.34,0,0,1-10.33-120.83Z"/></g><g class="cls-5"><g class="cls-6"><path class="cls-3" d="M161.55,80.5a26.71,26.71,0,0,0-1-53.4A26.74,26.74,0,0,0,133.9.41a26.71,26.71,0,0,0-53.4-1,26.71,26.71,0,0,0-53.4,1A26.74,26.74,0,0,0,.41,27.1a26.71,26.71,0,0,0-1,53.4,26.71,26.71,0,0,0,1,53.4A26.74,26.74,0,0,0,27.1,160.59a26.71,26.71,0,0,0,53.4,1,26.71,26.71,0,0,0,53.4-1,26.74,26.74,0,0,0,26.69-26.69,26.71,26.71,0,0,0,1-53.4Zm-27.41,22.85h-.51A26.77,26.77,0,0,0,111,80.76c0-.09,0-.17,0-.26s0-.17,0-.26a26.77,26.77,0,0,0,22.59-22.59h.51a26.77,26.77,0,0,0,22.59,22.59c0,.09,0,.17,0,.26s0,.17,0,.26A26.77,26.77,0,0,0,134.14,103.35Zm22.2-18.61A22.91,22.91,0,0,1,138.12,103,22.91,22.91,0,0,1,156.33,84.74ZM107.45,130h-.51a26.77,26.77,0,0,0-22.59-22.59c0-.09,0-.17,0-.26s0-.17,0-.26a26.77,26.77,0,0,0,22.59-22.59h.51A26.77,26.77,0,0,0,130,106.93c0,.09,0,.17,0,.26s0,.17,0,.26A26.77,26.77,0,0,0,107.45,130Zm22.2-18.61a22.91,22.91,0,0,1-18.21,18.21A22.91,22.91,0,0,1,129.64,111.43Zm-48.89,45.3h-.51a26.77,26.77,0,0,0-22.59-22.59c0-.09,0-.17,0-.26s0-.17,0-.26A26.77,26.77,0,0,0,80.24,111h.51a26.77,26.77,0,0,0,22.59,22.59c0,.09,0,.17,0,.26s0,.17,0,.26A26.77,26.77,0,0,0,80.76,156.73ZM103,138.12a22.91,22.91,0,0,1-18.21,18.21A22.91,22.91,0,0,1,103,138.12ZM76.26,156.33A22.91,22.91,0,0,1,58,138.12,22.91,22.91,0,0,1,76.26,156.33ZM31,107.45c0-.09,0-.17,0-.26s0-.17,0-.26A26.77,26.77,0,0,0,53.55,84.34h.51a26.77,26.77,0,0,0,22.59,22.59c0,.09,0,.17,0,.26s0,.17,0,.26A26.77,26.77,0,0,0,54.07,130h-.51A26.77,26.77,0,0,0,31,107.45Zm18.61,22.2a22.91,22.91,0,0,1-18.21-18.21A22.91,22.91,0,0,1,49.57,129.64ZM4.27,80.76c0-.09,0-.17,0-.26s0-.17,0-.26A26.77,26.77,0,0,0,26.86,57.65h.51A26.77,26.77,0,0,0,50,80.24c0,.09,0,.17,0,.26s0,.17,0,.26a26.77,26.77,0,0,0-22.59,22.59h-.51A26.77,26.77,0,0,0,4.27,80.76ZM22.88,103A22.91,22.91,0,0,1,4.67,84.74,22.91,22.91,0,0,1,22.88,103ZM4.67,76.26A22.91,22.91,0,0,1,22.88,58,22.91,22.91,0,0,1,4.67,76.26ZM53.55,31h.51A26.77,26.77,0,0,0,76.66,53.55c0,.09,0,.17,0,.26s0,.17,0,.26A26.77,26.77,0,0,0,54.07,76.66h-.51A26.77,26.77,0,0,0,31,54.07c0-.09,0-.17,0-.26s0-.17,0-.26A26.77,26.77,0,0,0,53.55,31ZM31.36,49.57A22.91,22.91,0,0,1,49.57,31.36,22.91,22.91,0,0,1,31.36,49.57ZM80.24,4.27h.51a26.77,26.77,0,0,0,22.59,22.59c0,.09,0,.17,0,.26s0,.17,0,.26A26.77,26.77,0,0,0,80.76,50h-.51A26.77,26.77,0,0,0,57.65,27.38c0-.09,0-.17,0-.26s0-.17,0-.26A26.77,26.77,0,0,0,80.24,4.27ZM58,22.88A22.91,22.91,0,0,1,76.26,4.67,22.91,22.91,0,0,1,58,22.88ZM84.74,4.67A22.91,22.91,0,0,1,103,22.88,22.91,22.91,0,0,1,84.74,4.67ZM130,53.55c0,.09,0,.17,0,.26s0,.17,0,.26a26.77,26.77,0,0,0-22.59,22.59h-.51A26.77,26.77,0,0,0,84.34,54.07c0-.09,0-.17,0-.26s0-.17,0-.26A26.77,26.77,0,0,0,106.93,31h.51A26.77,26.77,0,0,0,130,53.55Zm-18.61-22.2a22.91,22.91,0,0,1,18.21,18.21A22.91,22.91,0,0,1,111.43,31.36ZM129.64,58a22.91,22.91,0,0,1-18.21,18.21A22.91,22.91,0,0,1,129.64,58Zm-48.89,45.3h-.51A26.77,26.77,0,0,0,57.65,80.76c0-.09,0-.17,0-.26s0-.17,0-.26A26.77,26.77,0,0,0,80.24,57.65h.51a26.77,26.77,0,0,0,22.59,22.59c0,.09,0,.17,0,.26s0,.17,0,.26A26.77,26.77,0,0,0,80.76,103.35ZM103,84.74A22.91,22.91,0,0,1,84.74,103,22.91,22.91,0,0,1,103,84.74ZM76.26,103A22.91,22.91,0,0,1,58,84.74,22.91,22.91,0,0,1,76.26,103ZM58,76.26A22.91,22.91,0,0,1,76.26,58,22.91,22.91,0,0,1,58,76.26ZM84.74,58A22.91,22.91,0,0,1,103,76.26,22.91,22.91,0,0,1,84.74,58Zm0-8.48A22.91,22.91,0,0,1,103,31.36,22.91,22.91,0,0,1,84.74,49.57Zm-8.48,0A22.91,22.91,0,0,1,58,31.36,22.91,22.91,0,0,1,76.26,49.57ZM49.57,76.26A22.91,22.91,0,0,1,31.36,58,22.91,22.91,0,0,1,49.57,76.26Zm0,8.48A22.91,22.91,0,0,1,31.36,103,22.91,22.91,0,0,1,49.57,84.74Zm26.69,26.69A22.91,22.91,0,0,1,58,129.64,22.91,22.91,0,0,1,76.26,111.43Zm8.48,0A22.91,22.91,0,0,1,103,129.64,22.91,22.91,0,0,1,84.74,111.43Zm26.69-26.69A22.91,22.91,0,0,1,129.64,103,22.91,22.91,0,0,1,111.43,84.74ZM138.12,58a22.91,22.91,0,0,1,18.21,18.21A22.91,22.91,0,0,1,138.12,58Zm45.3-4.24a22.88,22.88,0,0,1-22.85,22.85h-.26a26.77,26.77,0,0,0-22.59-22.59c0-.09,0-.17,0-.26s0-.17,0-.26A26.77,26.77,0,0,0,160.31,31h.26A22.88,22.88,0,0,1,183.42,53.81Zm-45.3-4.24a22.91,22.91,0,0,1,18.21-18.21A22.91,22.91,0,0,1,138.12,49.57Zm18.61-22.45c0,.09,0,.17,0,.26A26.77,26.77,0,0,0,134.14,50h-.51A26.77,26.77,0,0,0,111,27.38c0-.09,0-.17,0-.26s0-.17,0-.26A26.77,26.77,0,0,0,133.62,4.27h.26A22.88,22.88,0,0,1,156.73,27.12Zm-45.3-4.24A22.91,22.91,0,0,1,129.64,4.67,22.91,22.91,0,0,1,111.43,22.88Zm-4.24-45.3A22.88,22.88,0,0,1,130,.43c0,.09,0,.17,0,.26a26.77,26.77,0,0,0-22.59,22.59h-.51A26.77,26.77,0,0,0,84.34.69c0-.09,0-.17,0-.26A22.88,22.88,0,0,1,107.19-22.42Zm-53.38,0A22.88,22.88,0,0,1,76.66.43c0,.09,0,.17,0,.26A26.77,26.77,0,0,0,54.07,23.28h-.51A26.77,26.77,0,0,0,31,.69c0-.09,0-.17,0-.26A22.88,22.88,0,0,1,53.81-22.42Zm-4.24,45.3A22.91,22.91,0,0,1,31.36,4.67,22.91,22.91,0,0,1,49.57,22.88ZM27.12,4.27h.26A26.77,26.77,0,0,0,50,26.86c0,.09,0,.17,0,.26s0,.17,0,.26A26.77,26.77,0,0,0,27.38,50h-.51A26.77,26.77,0,0,0,4.27,27.38c0-.09,0-.17,0-.26A22.88,22.88,0,0,1,27.12,4.27Zm-4.24,45.3A22.91,22.91,0,0,1,4.67,31.36,22.91,22.91,0,0,1,22.88,49.57Zm-45.3,4.24A22.88,22.88,0,0,1,.43,31H.69A26.77,26.77,0,0,0,23.28,53.55c0,.09,0,.17,0,.26s0,.17,0,.26A26.77,26.77,0,0,0,.69,76.66H.43A22.88,22.88,0,0,1-22.42,53.81Zm0,53.38A22.88,22.88,0,0,1,.43,84.34H.69a26.77,26.77,0,0,0,22.59,22.59c0,.09,0,.17,0,.26s0,.17,0,.26A26.77,26.77,0,0,0,.69,130H.43A22.88,22.88,0,0,1-22.42,107.19Zm45.3,4.24A22.91,22.91,0,0,1,4.67,129.64,22.91,22.91,0,0,1,22.88,111.43ZM4.27,133.88c0-.09,0-.17,0-.26A26.77,26.77,0,0,0,26.86,111h.51A26.77,26.77,0,0,0,50,133.62c0,.09,0,.17,0,.26s0,.17,0,.26a26.77,26.77,0,0,0-22.59,22.59h-.26A22.88,22.88,0,0,1,4.27,133.88Zm45.3,4.24a22.91,22.91,0,0,1-18.21,18.21A22.91,22.91,0,0,1,49.57,138.12Zm4.24,45.3A22.88,22.88,0,0,1,31,160.57c0-.09,0-.17,0-.26a26.77,26.77,0,0,0,22.59-22.59h.51a26.77,26.77,0,0,0,22.59,22.59c0,.09,0,.17,0,.26A22.88,22.88,0,0,1,53.81,183.42Zm53.38,0a22.88,22.88,0,0,1-22.85-22.85c0-.09,0-.17,0-.26a26.77,26.77,0,0,0,22.59-22.59h.51A26.77,26.77,0,0,0,130,160.31c0,.09,0,.17,0,.26A22.88,22.88,0,0,1,107.19,183.42Zm4.24-45.3a22.91,22.91,0,0,1,18.21,18.21A22.91,22.91,0,0,1,111.43,138.12Zm22.45,18.61h-.26A26.77,26.77,0,0,0,111,134.14c0-.09,0-.17,0-.26s0-.17,0-.26A26.77,26.77,0,0,0,133.62,111h.51a26.77,26.77,0,0,0,22.59,22.59c0,.09,0,.17,0,.26A22.88,22.88,0,0,1,133.88,156.73Zm4.24-45.3a22.91,22.91,0,0,1,18.21,18.21A22.91,22.91,0,0,1,138.12,111.43ZM160.57,130h-.26a26.77,26.77,0,0,0-22.59-22.59c0-.09,0-.17,0-.26s0-.17,0-.26a26.77,26.77,0,0,0,22.59-22.59h.26a22.85,22.85,0,1,1,0,45.7Z"/></g></g></g></svg>