<svg xmlns="http://www.w3.org/2000/svg" xmlns:xlink="http://www.w3.org/1999/xlink" viewBox="0 0 251 251"><defs><style>.cls-1{fill:none;}.cls-2{clip-path:url(#clip-path);}.cls-3{fill:#fff;}.cls-4{clip-path:url(#clip-path-2);}</style><clipPath id="clip-path"><circle class="cls-1" cx="125.5" cy="125.5" r="125.5"/></clipPath><clipPath id="clip-path-2"><circle class="cls-1" cx="103.5" cy="-180.5" r="169"/></clipPath></defs><title>fractal02 のコピー</title><g id="レイヤー_5" data-name="レイヤー 5"><g class="cls-2"><path class="cls-3" d="M252.79,125.5a41.95,41.95,0,0,0-1.5-83.87A42,42,0,0,0,209.37-.29a42,42,0,0,0-42-41.92A42,42,0,0,0,125.5-1.79,42,42,0,0,0,83.58-42.2a42,42,0,0,0-42,41.92A42,42,0,0,0-.29,41.63a42,42,0,0,0-41.92,42A42,42,0,0,0-1.79,125.5,42,42,0,0,0-42.2,167.42a42,42,0,0,0,41.92,42,42,42,0,0,0,41.92,41.92,41.95,41.95,0,0,0,83.87,1.5,41.95,41.95,0,0,0,83.87-1.5,42,42,0,0,0,41.92-41.92,41.95,41.95,0,0,0,1.5-83.87Zm-43.05,35.88h-.8a42,42,0,0,0-35.48-35.48c0-.13,0-.27,0-.4s0-.27,0-.4a42,42,0,0,0,35.48-35.48h.8a42,42,0,0,0,35.48,35.48c0,.13,0,.27,0,.4s0,.27,0,.4A42,42,0,0,0,209.73,161.38Zm34.86-29.22A36,36,0,0,1,216,160.76,36,36,0,0,1,244.59,132.16ZM167.82,203.3H167a42,42,0,0,0-35.48-35.48c0-.13,0-.27,0-.4s0-.27,0-.4A42,42,0,0,0,167,131.54h.8A42,42,0,0,0,203.3,167c0,.13,0,.27,0,.4s0,.27,0,.4A42,42,0,0,0,167.82,203.3Zm34.86-29.22a36,36,0,0,1-28.61,28.61A36,36,0,0,1,202.68,174.07ZM125.9,245.21h-.8a42,42,0,0,0-35.48-35.48c0-.13,0-.27,0-.4s0-.27,0-.4a42,42,0,0,0,35.48-35.48h.8a42,42,0,0,0,35.48,35.48c0,.13,0,.27,0,.4s0,.27,0,.4A42,42,0,0,0,125.9,245.21ZM160.76,216a36,36,0,0,1-28.61,28.61A36,36,0,0,1,160.76,216Zm-41.92,28.61A36,36,0,0,1,90.24,216,36,36,0,0,1,118.84,244.59ZM47.7,167.82c0-.13,0-.27,0-.4s0-.27,0-.4a42,42,0,0,0,35.48-35.48H84A42,42,0,0,0,119.46,167c0,.13,0,.27,0,.4s0,.27,0,.4A42,42,0,0,0,84,203.3h-.8A42,42,0,0,0,47.7,167.82Zm29.22,34.86a36,36,0,0,1-28.61-28.61A36,36,0,0,1,76.93,202.68ZM5.79,125.9c0-.13,0-.27,0-.4s0-.27,0-.4A42,42,0,0,0,41.27,89.62h.8A42,42,0,0,0,77.55,125.1c0,.13,0,.27,0,.4s0,.27,0,.4a42,42,0,0,0-35.48,35.48h-.8A42,42,0,0,0,5.79,125.9ZM35,160.76A36,36,0,0,1,6.41,132.16,36,36,0,0,1,35,160.76ZM6.41,118.84A36,36,0,0,1,35,90.24,36,36,0,0,1,6.41,118.84ZM83.18,47.7H84a42,42,0,0,0,35.48,35.48c0,.13,0,.27,0,.4s0,.27,0,.4A42,42,0,0,0,84,119.46h-.8A42,42,0,0,0,47.7,84c0-.13,0-.27,0-.4s0-.27,0-.4A42,42,0,0,0,83.18,47.7ZM48.32,76.93A36,36,0,0,1,76.93,48.32,36,36,0,0,1,48.32,76.93ZM125.1,5.79h.8a42,42,0,0,0,35.48,35.48c0,.13,0,.27,0,.4s0,.27,0,.4A42,42,0,0,0,125.9,77.55h-.8A42,42,0,0,0,89.62,42.07c0-.13,0-.27,0-.4s0-.27,0-.4A42,42,0,0,0,125.1,5.79ZM90.24,35A36,36,0,0,1,118.84,6.41,36,36,0,0,1,90.24,35ZM132.16,6.41A36,36,0,0,1,160.76,35,36,36,0,0,1,132.16,6.41ZM203.3,83.18c0,.13,0,.27,0,.4s0,.27,0,.4a42,42,0,0,0-35.48,35.48H167A42,42,0,0,0,131.54,84c0-.13,0-.27,0-.4s0-.27,0-.4A42,42,0,0,0,167,47.7h.8A42,42,0,0,0,203.3,83.18ZM174.07,48.32a36,36,0,0,1,28.61,28.61A36,36,0,0,1,174.07,48.32Zm28.61,41.92a36,36,0,0,1-28.61,28.61A36,36,0,0,1,202.68,90.24ZM125.9,161.38h-.8A42,42,0,0,0,89.62,125.9c0-.13,0-.27,0-.4s0-.27,0-.4A42,42,0,0,0,125.1,89.62h.8a42,42,0,0,0,35.48,35.48c0,.13,0,.27,0,.4s0,.27,0,.4A42,42,0,0,0,125.9,161.38Zm34.86-29.22a36,36,0,0,1-28.61,28.61A36,36,0,0,1,160.76,132.16Zm-41.92,28.61a36,36,0,0,1-28.61-28.61A36,36,0,0,1,118.84,160.76ZM90.24,118.84a36,36,0,0,1,28.61-28.61A36,36,0,0,1,90.24,118.84Zm41.92-28.61a36,36,0,0,1,28.61,28.61A36,36,0,0,1,132.16,90.24Zm0-13.31a36,36,0,0,1,28.61-28.61A36,36,0,0,1,132.16,76.93Zm-13.31,0A36,36,0,0,1,90.24,48.32,36,36,0,0,1,118.84,76.93ZM76.93,118.84A36,36,0,0,1,48.32,90.24,36,36,0,0,1,76.93,118.84Zm0,13.31a36,36,0,0,1-28.61,28.61A36,36,0,0,1,76.93,132.16Zm41.92,41.92a36,36,0,0,1-28.61,28.61A36,36,0,0,1,118.84,174.07Zm13.31,0a36,36,0,0,1,28.61,28.61A36,36,0,0,1,132.16,174.07Zm41.92-41.92a36,36,0,0,1,28.61,28.61A36,36,0,0,1,174.07,132.16ZM216,90.24a36,36,0,0,1,28.61,28.61A36,36,0,0,1,216,90.24Zm71.15-6.66a35.93,35.93,0,0,1-35.89,35.89h-.4A42,42,0,0,0,215.37,84c0-.13,0-.27,0-.4s0-.27,0-.4A42,42,0,0,0,250.85,47.7h.4A35.93,35.93,0,0,1,287.14,83.58ZM216,76.93a36,36,0,0,1,28.61-28.61A36,36,0,0,1,216,76.93Zm29.23-35.26c0,.13,0,.27,0,.4a42,42,0,0,0-35.48,35.48h-.8a42,42,0,0,0-35.48-35.48c0-.13,0-.27,0-.4s0-.27,0-.4A42,42,0,0,0,208.93,5.79h.4A35.93,35.93,0,0,1,245.22,41.67ZM174.07,35A36,36,0,0,1,202.68,6.41,36,36,0,0,1,174.07,35Zm-6.66-71.15A35.93,35.93,0,0,1,203.31-.25c0,.13,0,.27,0,.4a42,42,0,0,0-35.48,35.48H167A42,42,0,0,0,131.54.15c0-.13,0-.27,0-.4A35.93,35.93,0,0,1,167.42-36.14Zm-83.83,0A35.93,35.93,0,0,1,119.47-.25c0,.13,0,.27,0,.4A42,42,0,0,0,84,35.63h-.8A42,42,0,0,0,47.7.15c0-.13,0-.27,0-.4A35.93,35.93,0,0,1,83.58-36.14ZM76.93,35A36,36,0,0,1,48.32,6.41,36,36,0,0,1,76.93,35ZM41.67,5.78h.4A42,42,0,0,0,77.55,41.27c0,.13,0,.27,0,.4s0,.27,0,.4A42,42,0,0,0,42.07,77.55h-.8A42,42,0,0,0,5.79,42.07c0-.13,0-.27,0-.4A35.93,35.93,0,0,1,41.67,5.78ZM35,76.93A36,36,0,0,1,6.41,48.32,36,36,0,0,1,35,76.93Zm-71.15,6.66A35.93,35.93,0,0,1-.25,47.69h.4A42,42,0,0,0,35.63,83.18c0,.13,0,.27,0,.4s0,.27,0,.4A42,42,0,0,0,.15,119.46h-.4A35.93,35.93,0,0,1-36.14,83.58Zm0,83.83A35.93,35.93,0,0,1-.25,131.53h.4A42,42,0,0,0,35.63,167c0,.13,0,.27,0,.4s0,.27,0,.4A42,42,0,0,0,.15,203.3h-.4A35.93,35.93,0,0,1-36.14,167.42ZM35,174.07A36,36,0,0,1,6.41,202.68,36,36,0,0,1,35,174.07ZM5.78,209.33c0-.13,0-.27,0-.4a42,42,0,0,0,35.48-35.48h.8a42,42,0,0,0,35.48,35.48c0,.13,0,.27,0,.4s0,.27,0,.4a42,42,0,0,0-35.48,35.48h-.4A35.93,35.93,0,0,1,5.78,209.33ZM76.93,216a36,36,0,0,1-28.61,28.61A36,36,0,0,1,76.93,216Zm6.66,71.15a35.93,35.93,0,0,1-35.89-35.89c0-.13,0-.27,0-.4a42,42,0,0,0,35.48-35.48H84a42,42,0,0,0,35.48,35.48c0,.13,0,.27,0,.4A35.93,35.93,0,0,1,83.58,287.14Zm83.83,0a35.93,35.93,0,0,1-35.89-35.89c0-.13,0-.27,0-.4A42,42,0,0,0,167,215.37h.8a42,42,0,0,0,35.48,35.48c0,.13,0,.27,0,.4A35.93,35.93,0,0,1,167.42,287.14ZM174.07,216a36,36,0,0,1,28.61,28.61A36,36,0,0,1,174.07,216Zm35.26,29.23h-.4a42,42,0,0,0-35.48-35.48c0-.13,0-.27,0-.4s0-.27,0-.4a42,42,0,0,0,35.48-35.48h.8a42,42,0,0,0,35.48,35.48c0,.13,0,.27,0,.4A35.93,35.93,0,0,1,209.33,245.22ZM216,174.07a36,36,0,0,1,28.61,28.61A36,36,0,0,1,216,174.07Zm35.26,29.23h-.4a42,42,0,0,0-35.48-35.48c0-.13,0-.27,0-.4s0-.27,0-.4a42,42,0,0,0,35.48-35.48h.4a35.89,35.89,0,0,1,0,71.78Z"/></g><g class="cls-4"><path class="cls-3" d="M274.74-180.5a56.5,56.5,0,0,0,54.37-56.39,56.51,56.51,0,0,0-56.39-56.44,56.5,56.5,0,0,0-56.39-56.39,56.51,56.51,0,0,0-56.44-56.39,56.5,56.5,0,0,0-56.39,54.38,56.5,56.5,0,0,0-56.39-54.38A56.51,56.51,0,0,0-9.33-349.72a56.5,56.5,0,0,0-56.39,56.39,56.51,56.51,0,0,0-56.39,56.44A56.5,56.5,0,0,0-67.74-180.5a56.5,56.5,0,0,0-54.37,56.39A56.51,56.51,0,0,0-65.72-67.67,56.5,56.5,0,0,0-9.33-11.28,56.51,56.51,0,0,0,47.11,45.11,56.5,56.5,0,0,0,103.5-9.26a56.5,56.5,0,0,0,56.39,54.38,56.51,56.51,0,0,0,56.44-56.39,56.5,56.5,0,0,0,56.39-56.39,56.51,56.51,0,0,0,56.39-56.44A56.5,56.5,0,0,0,274.74-180.5Zm-57.92,48.27h-1.08A56.56,56.56,0,0,0,168-180c0-.18,0-.36,0-.54s0-.36,0-.54a56.56,56.56,0,0,0,47.73-47.73h1.08A56.56,56.56,0,0,0,264.55-181c0,.18,0,.36,0,.54s0,.36,0,.54A56.56,56.56,0,0,0,216.82-132.23Zm46.9-39.31a48.4,48.4,0,0,1-38.48,38.48A48.4,48.4,0,0,1,263.71-171.55ZM160.43-75.84h-1.08a56.56,56.56,0,0,0-47.73-47.73c0-.18,0-.36,0-.54s0-.36,0-.54a56.56,56.56,0,0,0,47.73-47.73h1.08a56.56,56.56,0,0,0,47.73,47.73c0,.18,0,.36,0,.54s0,.36,0,.54A56.56,56.56,0,0,0,160.43-75.84Zm46.9-39.31a48.4,48.4,0,0,1-38.48,38.48A48.4,48.4,0,0,1,207.33-115.16ZM104-19.45H103A56.56,56.56,0,0,0,55.23-67.18c0-.18,0-.36,0-.54s0-.36,0-.54A56.56,56.56,0,0,0,103-116H104a56.56,56.56,0,0,0,47.73,47.73c0,.18,0,.36,0,.54s0,.36,0,.54A56.56,56.56,0,0,0,104-19.45Zm46.9-39.31a48.4,48.4,0,0,1-38.48,38.48A48.4,48.4,0,0,1,150.94-58.77ZM94.55-20.29A48.4,48.4,0,0,1,56.06-58.77,48.4,48.4,0,0,1,94.55-20.29ZM-1.16-123.57c0-.18,0-.36,0-.54s0-.36,0-.54a56.56,56.56,0,0,0,47.73-47.73h1.08a56.56,56.56,0,0,0,47.73,47.73c0,.18,0,.36,0,.54s0,.36,0,.54A56.56,56.56,0,0,0,47.65-75.84H46.57A56.56,56.56,0,0,0-1.16-123.57Zm39.31,46.9A48.4,48.4,0,0,1-.33-115.16,48.4,48.4,0,0,1,38.16-76.67ZM-57.55-180c0-.18,0-.36,0-.54s0-.36,0-.54A56.56,56.56,0,0,0-9.82-228.77h1.08A56.56,56.56,0,0,0,39-181c0,.18,0,.36,0,.54s0,.36,0,.54A56.56,56.56,0,0,0-8.74-132.23H-9.82A56.56,56.56,0,0,0-57.55-180Zm39.31,46.9a48.4,48.4,0,0,1-38.48-38.48A48.4,48.4,0,0,1-18.23-133.06Zm-38.48-56.39a48.4,48.4,0,0,1,38.48-38.48A48.4,48.4,0,0,1-56.71-189.45Zm103.28-95.7h1.08a56.56,56.56,0,0,0,47.73,47.73c0,.18,0,.36,0,.54s0,.36,0,.54a56.56,56.56,0,0,0-47.73,47.73H46.57A56.56,56.56,0,0,0-1.16-236.35c0-.18,0-.36,0-.54s0-.36,0-.54A56.56,56.56,0,0,0,46.57-285.16ZM-.33-245.84a48.4,48.4,0,0,1,38.48-38.48A48.4,48.4,0,0,1-.33-245.84ZM103-341.55H104a56.56,56.56,0,0,0,47.73,47.73c0,.18,0,.36,0,.54s0,.36,0,.54A56.56,56.56,0,0,0,104-245H103a56.56,56.56,0,0,0-47.73-47.73c0-.18,0-.36,0-.54s0-.36,0-.54A56.56,56.56,0,0,0,103-341.55Zm-46.9,39.31a48.4,48.4,0,0,1,38.48-38.48A48.4,48.4,0,0,1,56.06-302.23Zm56.39-38.48a48.4,48.4,0,0,1,38.48,38.48A48.4,48.4,0,0,1,112.45-340.71Zm95.7,103.28c0,.18,0,.36,0,.54s0,.36,0,.54a56.56,56.56,0,0,0-47.73,47.73h-1.08a56.56,56.56,0,0,0-47.73-47.73c0-.18,0-.36,0-.54s0-.36,0-.54a56.56,56.56,0,0,0,47.73-47.73h1.08A56.56,56.56,0,0,0,208.16-237.43Zm-39.31-46.9a48.4,48.4,0,0,1,38.48,38.48A48.4,48.4,0,0,1,168.84-284.33Zm38.48,56.39a48.4,48.4,0,0,1-38.48,38.48A48.4,48.4,0,0,1,207.33-227.94ZM104-132.23H103A56.56,56.56,0,0,0,55.23-180c0-.18,0-.36,0-.54s0-.36,0-.54A56.56,56.56,0,0,0,103-228.77H104A56.56,56.56,0,0,0,151.77-181c0,.18,0,.36,0,.54s0,.36,0,.54A56.56,56.56,0,0,0,104-132.23Zm46.9-39.31a48.4,48.4,0,0,1-38.48,38.48A48.4,48.4,0,0,1,150.94-171.55ZM94.55-133.06a48.4,48.4,0,0,1-38.48-38.48A48.4,48.4,0,0,1,94.55-133.06ZM56.06-189.45a48.4,48.4,0,0,1,38.48-38.48A48.4,48.4,0,0,1,56.06-189.45Zm56.39-38.48a48.4,48.4,0,0,1,38.48,38.48A48.4,48.4,0,0,1,112.45-227.94Zm0-17.91a48.4,48.4,0,0,1,38.48-38.48A48.4,48.4,0,0,1,112.45-245.84Zm-17.91,0a48.4,48.4,0,0,1-38.48-38.48A48.4,48.4,0,0,1,94.55-245.84ZM38.16-189.45A48.4,48.4,0,0,1-.33-227.94,48.4,48.4,0,0,1,38.16-189.45Zm0,17.91A48.4,48.4,0,0,1-.33-133.06,48.4,48.4,0,0,1,38.16-171.55Zm56.39,56.39A48.4,48.4,0,0,1,56.06-76.67,48.4,48.4,0,0,1,94.55-115.16Zm17.91,0a48.4,48.4,0,0,1,38.48,38.48A48.4,48.4,0,0,1,112.45-115.16Zm56.39-56.39a48.4,48.4,0,0,1,38.48,38.48A48.4,48.4,0,0,1,168.84-171.55Zm56.39-56.39a48.4,48.4,0,0,1,38.48,38.48A48.4,48.4,0,0,1,225.23-227.94Zm95.72-9a48.34,48.34,0,0,1-48.28,48.28h-.54a56.56,56.56,0,0,0-47.73-47.73c0-.18,0-.36,0-.54s0-.36,0-.54a56.56,56.56,0,0,0,47.73-47.73h.54A48.34,48.34,0,0,1,320.95-236.89Zm-95.72-9a48.4,48.4,0,0,1,38.48-38.48A48.4,48.4,0,0,1,225.23-245.84Zm39.33-47.44c0,.18,0,.36,0,.54A56.56,56.56,0,0,0,216.82-245h-1.08A56.56,56.56,0,0,0,168-292.74c0-.18,0-.36,0-.54s0-.36,0-.54a56.56,56.56,0,0,0,47.73-47.73h.54A48.34,48.34,0,0,1,264.56-293.28Zm-95.72-9a48.4,48.4,0,0,1,38.48-38.48A48.4,48.4,0,0,1,168.84-302.23Zm-9-95.72a48.34,48.34,0,0,1,48.28,48.28c0,.18,0,.36,0,.54a56.56,56.56,0,0,0-47.73,47.73h-1.08a56.56,56.56,0,0,0-47.73-47.73c0-.18,0-.36,0-.54A48.34,48.34,0,0,1,159.89-397.95Zm-112.78,0a48.34,48.34,0,0,1,48.28,48.28c0,.18,0,.36,0,.54A56.56,56.56,0,0,0,47.65-301.4H46.57A56.56,56.56,0,0,0-1.16-349.13c0-.18,0-.36,0-.54A48.34,48.34,0,0,1,47.11-397.95Zm-9,95.72A48.4,48.4,0,0,1-.33-340.71,48.4,48.4,0,0,1,38.16-302.23ZM-9.28-341.56h.54A56.56,56.56,0,0,0,39-293.82c0,.18,0,.36,0,.54s0,.36,0,.54A56.56,56.56,0,0,0-8.74-245H-9.82a56.56,56.56,0,0,0-47.73-47.73c0-.18,0-.36,0-.54A48.34,48.34,0,0,1-9.28-341.56Zm-9,95.72a48.4,48.4,0,0,1-38.48-38.48A48.4,48.4,0,0,1-18.23-245.84Zm-95.72,9a48.34,48.34,0,0,1,48.28-48.28h.54A56.56,56.56,0,0,0-17.4-237.43c0,.18,0,.36,0,.54s0,.36,0,.54a56.56,56.56,0,0,0-47.73,47.73h-.54A48.34,48.34,0,0,1-113.95-236.89Zm0,112.78a48.34,48.34,0,0,1,48.28-48.28h.54A56.56,56.56,0,0,0-17.4-124.65c0,.18,0,.36,0,.54s0,.36,0,.54A56.56,56.56,0,0,0-65.13-75.84h-.54A48.34,48.34,0,0,1-113.95-124.11Zm95.72,9A48.4,48.4,0,0,1-56.71-76.67,48.4,48.4,0,0,1-18.23-115.16ZM-57.56-67.72c0-.18,0-.36,0-.54A56.56,56.56,0,0,0-9.82-116h1.08A56.56,56.56,0,0,0,39-68.26c0,.18,0,.36,0,.54s0,.36,0,.54A56.56,56.56,0,0,0-8.74-19.45h-.54A48.34,48.34,0,0,1-57.56-67.72Zm95.72,9A48.4,48.4,0,0,1-.33-20.29,48.4,48.4,0,0,1,38.16-58.77Zm9,95.72A48.34,48.34,0,0,1-1.17-11.33c0-.18,0-.36,0-.54A56.56,56.56,0,0,0,46.57-59.6h1.08A56.56,56.56,0,0,0,95.38-11.87c0,.18,0,.36,0,.54A48.34,48.34,0,0,1,47.11,36.95Zm112.78,0a48.34,48.34,0,0,1-48.28-48.28c0-.18,0-.36,0-.54A56.56,56.56,0,0,0,159.35-59.6h1.08a56.56,56.56,0,0,0,47.73,47.73c0,.18,0,.36,0,.54A48.34,48.34,0,0,1,159.89,36.95Zm9-95.72a48.4,48.4,0,0,1,38.48,38.48A48.4,48.4,0,0,1,168.84-58.77Zm47.44,39.33h-.54A56.56,56.56,0,0,0,168-67.18c0-.18,0-.36,0-.54s0-.36,0-.54A56.56,56.56,0,0,0,215.74-116h1.08a56.56,56.56,0,0,0,47.73,47.73c0,.18,0,.36,0,.54A48.34,48.34,0,0,1,216.28-19.44Zm9-95.72a48.4,48.4,0,0,1,38.48,38.48A48.4,48.4,0,0,1,225.23-115.16Zm47.44,39.33h-.54a56.56,56.56,0,0,0-47.73-47.73c0-.18,0-.36,0-.54s0-.36,0-.54a56.56,56.56,0,0,0,47.73-47.73h.54a48.34,48.34,0,0,1,48.28,48.28A48.34,48.34,0,0,1,272.67-75.83Z"/></g></g></svg>