<svg xmlns="http://www.w3.org/2000/svg" xmlns:xlink="http://www.w3.org/1999/xlink" viewBox="0 0 151 151"><defs><style>.cls-1{fill:none;}.cls-2{clip-path:url(#clip-path);}.cls-3{fill:#fff;}.cls-4{opacity:0.4;}.cls-5{clip-path:url(#clip-path-2);}</style><clipPath id="clip-path"><circle class="cls-1" cx="-198.5" cy="-24.5" r="169"/></clipPath><clipPath id="clip-path-2"><circle class="cls-1" cx="75.5" cy="75.5" r="75"/></clipPath></defs><title>fractal04 のコピー</title><g id="レイヤー_5" data-name="レイヤー 5"><g class="cls-2"><path class="cls-3" d="M-27.26-24.5A56.5,56.5,0,0,0,27.11-80.89a56.51,56.51,0,0,0-56.39-56.44,56.5,56.5,0,0,0-56.39-56.39,56.51,56.51,0,0,0-56.44-56.39,56.5,56.5,0,0,0-56.39,54.38,56.5,56.5,0,0,0-56.39-54.38,56.51,56.51,0,0,0-56.44,56.39,56.5,56.5,0,0,0-56.39,56.39,56.51,56.51,0,0,0-56.39,56.44A56.5,56.5,0,0,0-369.74-24.5a56.5,56.5,0,0,0-54.37,56.39,56.51,56.51,0,0,0,56.39,56.44,56.5,56.5,0,0,0,56.39,56.39,56.51,56.51,0,0,0,56.44,56.39,56.5,56.5,0,0,0,56.39-54.38,56.5,56.5,0,0,0,56.39,54.38,56.51,56.51,0,0,0,56.44-56.39A56.5,56.5,0,0,0-29.28,88.33,56.51,56.51,0,0,0,27.11,31.89,56.5,56.5,0,0,0-27.26-24.5ZM-85.18,23.77h-1.08A56.56,56.56,0,0,0-134-24c0-.18,0-.36,0-.54s0-.36,0-.54A56.56,56.56,0,0,0-86.26-72.77h1.08A56.56,56.56,0,0,0-37.45-25c0,.18,0,.36,0,.54s0,.36,0,.54A56.56,56.56,0,0,0-85.18,23.77Zm46.9-39.31A48.4,48.4,0,0,1-76.77,22.94,48.4,48.4,0,0,1-38.29-15.55Zm-103.28,95.7h-1.08a56.56,56.56,0,0,0-47.73-47.73c0-.18,0-.36,0-.54s0-.36,0-.54a56.56,56.56,0,0,0,47.73-47.73h1.08A56.56,56.56,0,0,0-93.84,31.35c0,.18,0,.36,0,.54s0,.36,0,.54A56.56,56.56,0,0,0-141.57,80.16Zm46.9-39.31a48.4,48.4,0,0,1-38.48,38.48A48.4,48.4,0,0,1-94.67,40.84ZM-198,136.55H-199a56.56,56.56,0,0,0-47.73-47.73c0-.18,0-.36,0-.54s0-.36,0-.54A56.56,56.56,0,0,0-199,40H-198a56.56,56.56,0,0,0,47.73,47.73c0,.18,0,.36,0,.54s0,.36,0,.54A56.56,56.56,0,0,0-198,136.55Zm46.9-39.31a48.4,48.4,0,0,1-38.48,38.48A48.4,48.4,0,0,1-151.06,97.23Zm-56.39,38.48a48.4,48.4,0,0,1-38.48-38.48A48.4,48.4,0,0,1-207.45,135.71Zm-95.7-103.28c0-.18,0-.36,0-.54s0-.36,0-.54a56.56,56.56,0,0,0,47.73-47.73h1.08a56.56,56.56,0,0,0,47.73,47.73c0,.18,0,.36,0,.54s0,.36,0,.54a56.56,56.56,0,0,0-47.73,47.73h-1.08A56.56,56.56,0,0,0-303.16,32.43Zm39.31,46.9a48.4,48.4,0,0,1-38.48-38.48A48.4,48.4,0,0,1-263.84,79.33ZM-359.55-24c0-.18,0-.36,0-.54s0-.36,0-.54a56.56,56.56,0,0,0,47.73-47.73h1.08A56.56,56.56,0,0,0-263-25c0,.18,0,.36,0,.54s0,.36,0,.54a56.56,56.56,0,0,0-47.73,47.73h-1.08A56.56,56.56,0,0,0-359.55-24Zm39.31,46.9a48.4,48.4,0,0,1-38.48-38.48A48.4,48.4,0,0,1-320.23,22.94Zm-38.48-56.39a48.4,48.4,0,0,1,38.48-38.48A48.4,48.4,0,0,1-358.71-33.45Zm103.28-95.7h1.08a56.56,56.56,0,0,0,47.73,47.73c0,.18,0,.36,0,.54s0,.36,0,.54a56.56,56.56,0,0,0-47.73,47.73h-1.08a56.56,56.56,0,0,0-47.73-47.73c0-.18,0-.36,0-.54s0-.36,0-.54A56.56,56.56,0,0,0-255.43-129.16Zm-46.9,39.31a48.4,48.4,0,0,1,38.48-38.48A48.4,48.4,0,0,1-302.33-89.84ZM-199-185.55H-198a56.56,56.56,0,0,0,47.73,47.73c0,.18,0,.36,0,.54s0,.36,0,.54A56.56,56.56,0,0,0-198-89H-199a56.56,56.56,0,0,0-47.73-47.73c0-.18,0-.36,0-.54s0-.36,0-.54A56.56,56.56,0,0,0-199-185.55Zm-46.9,39.31a48.4,48.4,0,0,1,38.48-38.48A48.4,48.4,0,0,1-245.94-146.23Zm56.39-38.48a48.4,48.4,0,0,1,38.48,38.48A48.4,48.4,0,0,1-189.55-184.71Zm95.7,103.28c0,.18,0,.36,0,.54s0,.36,0,.54a56.56,56.56,0,0,0-47.73,47.73h-1.08a56.56,56.56,0,0,0-47.73-47.73c0-.18,0-.36,0-.54s0-.36,0-.54a56.56,56.56,0,0,0,47.73-47.73h1.08A56.56,56.56,0,0,0-93.84-81.43Zm-39.31-46.9A48.4,48.4,0,0,1-94.67-89.84,48.4,48.4,0,0,1-133.16-128.33Zm38.48,56.39a48.4,48.4,0,0,1-38.48,38.48A48.4,48.4,0,0,1-94.67-71.94ZM-198,23.77H-199A56.56,56.56,0,0,0-246.77-24c0-.18,0-.36,0-.54s0-.36,0-.54A56.56,56.56,0,0,0-199-72.77H-198A56.56,56.56,0,0,0-150.23-25c0,.18,0,.36,0,.54s0,.36,0,.54A56.56,56.56,0,0,0-198,23.77Zm46.9-39.31a48.4,48.4,0,0,1-38.48,38.48A48.4,48.4,0,0,1-151.06-15.55Zm-56.39,38.48a48.4,48.4,0,0,1-38.48-38.48A48.4,48.4,0,0,1-207.45,22.94Zm-38.48-56.39a48.4,48.4,0,0,1,38.48-38.48A48.4,48.4,0,0,1-245.94-33.45Zm56.39-38.48a48.4,48.4,0,0,1,38.48,38.48A48.4,48.4,0,0,1-189.55-71.94Zm0-17.91a48.4,48.4,0,0,1,38.48-38.48A48.4,48.4,0,0,1-189.55-89.84Zm-17.91,0a48.4,48.4,0,0,1-38.48-38.48A48.4,48.4,0,0,1-207.45-89.84Zm-56.39,56.39a48.4,48.4,0,0,1-38.48-38.48A48.4,48.4,0,0,1-263.84-33.45Zm0,17.91a48.4,48.4,0,0,1-38.48,38.48A48.4,48.4,0,0,1-263.84-15.55Zm56.39,56.39a48.4,48.4,0,0,1-38.48,38.48A48.4,48.4,0,0,1-207.45,40.84Zm17.91,0a48.4,48.4,0,0,1,38.48,38.48A48.4,48.4,0,0,1-189.55,40.84Zm56.39-56.39A48.4,48.4,0,0,1-94.67,22.94,48.4,48.4,0,0,1-133.16-15.55Zm56.39-56.39A48.4,48.4,0,0,1-38.29-33.45,48.4,48.4,0,0,1-76.77-71.94Zm95.72-9A48.34,48.34,0,0,1-29.33-32.61h-.54A56.56,56.56,0,0,0-77.6-80.35c0-.18,0-.36,0-.54s0-.36,0-.54a56.56,56.56,0,0,0,47.73-47.73h.54A48.34,48.34,0,0,1,18.95-80.89Zm-95.72-9a48.4,48.4,0,0,1,38.48-38.48A48.4,48.4,0,0,1-76.77-89.84Zm39.33-47.44c0,.18,0,.36,0,.54A56.56,56.56,0,0,0-85.18-89h-1.08A56.56,56.56,0,0,0-134-136.74c0-.18,0-.36,0-.54s0-.36,0-.54a56.56,56.56,0,0,0,47.73-47.73h.54A48.34,48.34,0,0,1-37.44-137.28Zm-95.72-9a48.4,48.4,0,0,1,38.48-38.48A48.4,48.4,0,0,1-133.16-146.23Zm-9-95.72a48.34,48.34,0,0,1,48.28,48.28c0,.18,0,.36,0,.54a56.56,56.56,0,0,0-47.73,47.73h-1.08a56.56,56.56,0,0,0-47.73-47.73c0-.18,0-.36,0-.54A48.34,48.34,0,0,1-142.11-241.95Zm-112.78,0a48.34,48.34,0,0,1,48.28,48.28c0,.18,0,.36,0,.54a56.56,56.56,0,0,0-47.73,47.73h-1.08a56.56,56.56,0,0,0-47.73-47.73c0-.18,0-.36,0-.54A48.34,48.34,0,0,1-254.89-241.95Zm-9,95.72a48.4,48.4,0,0,1-38.48-38.48A48.4,48.4,0,0,1-263.84-146.23Zm-47.44-39.33h.54A56.56,56.56,0,0,0-263-137.82c0,.18,0,.36,0,.54s0,.36,0,.54A56.56,56.56,0,0,0-310.74-89h-1.08a56.56,56.56,0,0,0-47.73-47.73c0-.18,0-.36,0-.54A48.34,48.34,0,0,1-311.28-185.56Zm-9,95.72a48.4,48.4,0,0,1-38.48-38.48A48.4,48.4,0,0,1-320.23-89.84Zm-95.72,9a48.34,48.34,0,0,1,48.28-48.28h.54A56.56,56.56,0,0,0-319.4-81.43c0,.18,0,.36,0,.54s0,.36,0,.54a56.56,56.56,0,0,0-47.73,47.73h-.54A48.34,48.34,0,0,1-415.95-80.89Zm0,112.78a48.34,48.34,0,0,1,48.28-48.28h.54A56.56,56.56,0,0,0-319.4,31.35c0,.18,0,.36,0,.54s0,.36,0,.54a56.56,56.56,0,0,0-47.73,47.73h-.54A48.34,48.34,0,0,1-415.95,31.89Zm95.72,9a48.4,48.4,0,0,1-38.48,38.48A48.4,48.4,0,0,1-320.23,40.84Zm-39.33,47.44c0-.18,0-.36,0-.54A56.56,56.56,0,0,0-311.82,40h1.08A56.56,56.56,0,0,0-263,87.74c0,.18,0,.36,0,.54s0,.36,0,.54a56.56,56.56,0,0,0-47.73,47.73h-.54A48.34,48.34,0,0,1-359.56,88.28Zm95.72,9a48.4,48.4,0,0,1-38.48,38.48A48.4,48.4,0,0,1-263.84,97.23Zm9,95.72a48.34,48.34,0,0,1-48.28-48.28c0-.18,0-.36,0-.54A56.56,56.56,0,0,0-255.43,96.4h1.08a56.56,56.56,0,0,0,47.73,47.73c0,.18,0,.36,0,.54A48.34,48.34,0,0,1-254.89,192.95Zm112.78,0a48.34,48.34,0,0,1-48.28-48.28c0-.18,0-.36,0-.54A56.56,56.56,0,0,0-142.65,96.4h1.08a56.56,56.56,0,0,0,47.73,47.73c0,.18,0,.36,0,.54A48.34,48.34,0,0,1-142.11,192.95Zm9-95.72a48.4,48.4,0,0,1,38.48,38.48A48.4,48.4,0,0,1-133.16,97.23Zm47.44,39.33h-.54A56.56,56.56,0,0,0-134,88.82c0-.18,0-.36,0-.54s0-.36,0-.54A56.56,56.56,0,0,0-86.26,40h1.08A56.56,56.56,0,0,0-37.45,87.74c0,.18,0,.36,0,.54A48.34,48.34,0,0,1-85.72,136.56Zm9-95.72A48.4,48.4,0,0,1-38.29,79.33,48.4,48.4,0,0,1-76.77,40.84Zm47.44,39.33h-.54A56.56,56.56,0,0,0-77.6,32.43c0-.18,0-.36,0-.54s0-.36,0-.54A56.56,56.56,0,0,0-29.87-16.38h.54A48.34,48.34,0,0,1,18.95,31.89,48.34,48.34,0,0,1-29.33,80.17Z"/></g><g class="cls-4"><g class="cls-5"><path class="cls-3" d="M151.46,75.5a25,25,0,0,0-.89-50.05,25.07,25.07,0,0,0-25-25A25,25,0,0,0,75.5-.46,25,25,0,0,0,25.45.43a25.07,25.07,0,0,0-25,25A25,25,0,0,0-.46,75.5a25,25,0,0,0,.89,50.05,25.07,25.07,0,0,0,25,25,25,25,0,0,0,50.05.89,25,25,0,0,0,50.05-.89,25.07,25.07,0,0,0,25-25,25,25,0,0,0,.89-50.05ZM125.77,96.91h-.48a25.09,25.09,0,0,0-21.17-21.17c0-.08,0-.16,0-.24s0-.16,0-.24a25.09,25.09,0,0,0,21.17-21.17h.48a25.09,25.09,0,0,0,21.17,21.17c0,.08,0,.16,0,.24s0,.16,0,.24A25.09,25.09,0,0,0,125.77,96.91Zm20.8-17.44A21.47,21.47,0,0,1,129.5,96.54,21.47,21.47,0,0,1,146.57,79.47Zm-45.82,42.45h-.48A25.09,25.09,0,0,0,79.1,100.75c0-.08,0-.16,0-.24s0-.16,0-.24A25.09,25.09,0,0,0,100.27,79.1h.48a25.09,25.09,0,0,0,21.17,21.17c0,.08,0,.16,0,.24s0,.16,0,.24A25.09,25.09,0,0,0,100.75,121.93Zm20.8-17.44a21.47,21.47,0,0,1-17.07,17.07A21.47,21.47,0,0,1,121.56,104.49ZM75.74,146.94h-.48a25.09,25.09,0,0,0-21.17-21.17c0-.08,0-.16,0-.24s0-.16,0-.24a25.09,25.09,0,0,0,21.17-21.17h.48a25.09,25.09,0,0,0,21.17,21.17c0,.08,0,.16,0,.24s0,.16,0,.24A25.09,25.09,0,0,0,75.74,146.94Zm20.8-17.44a21.47,21.47,0,0,1-17.07,17.07A21.47,21.47,0,0,1,96.54,129.5Zm-25,17.07A21.47,21.47,0,0,1,54.46,129.5,21.47,21.47,0,0,1,71.53,146.57ZM29.07,100.75c0-.08,0-.16,0-.24s0-.16,0-.24A25.09,25.09,0,0,0,50.25,79.1h.48A25.09,25.09,0,0,0,71.9,100.27c0,.08,0,.16,0,.24s0,.16,0,.24a25.09,25.09,0,0,0-21.17,21.17h-.48A25.09,25.09,0,0,0,29.07,100.75Zm17.44,20.8a21.47,21.47,0,0,1-17.07-17.07A21.47,21.47,0,0,1,46.51,121.56ZM4.06,75.74c0-.08,0-.16,0-.24s0-.16,0-.24A25.09,25.09,0,0,0,25.23,54.09h.48A25.09,25.09,0,0,0,46.88,75.26c0,.08,0,.16,0,.24s0,.16,0,.24A25.09,25.09,0,0,0,25.71,96.91h-.48A25.09,25.09,0,0,0,4.06,75.74ZM21.5,96.54A21.47,21.47,0,0,1,4.43,79.47,21.47,21.47,0,0,1,21.5,96.54Zm-17.07-25A21.47,21.47,0,0,1,21.5,54.46,21.47,21.47,0,0,1,4.43,71.53ZM50.25,29.07h.48A25.09,25.09,0,0,0,71.9,50.25c0,.08,0,.16,0,.24s0,.16,0,.24A25.09,25.09,0,0,0,50.73,71.9h-.48A25.09,25.09,0,0,0,29.07,50.73c0-.08,0-.16,0-.24s0-.16,0-.24A25.09,25.09,0,0,0,50.25,29.07ZM29.44,46.51A21.47,21.47,0,0,1,46.51,29.44,21.47,21.47,0,0,1,29.44,46.51ZM75.26,4.06h.48A25.09,25.09,0,0,0,96.91,25.23c0,.08,0,.16,0,.24s0,.16,0,.24A25.09,25.09,0,0,0,75.74,46.88h-.48A25.09,25.09,0,0,0,54.09,25.71c0-.08,0-.16,0-.24s0-.16,0-.24A25.09,25.09,0,0,0,75.26,4.06ZM54.46,21.5A21.47,21.47,0,0,1,71.53,4.43,21.47,21.47,0,0,1,54.46,21.5Zm25-17.07A21.47,21.47,0,0,1,96.54,21.5,21.47,21.47,0,0,1,79.47,4.43Zm42.45,45.82c0,.08,0,.16,0,.24s0,.16,0,.24A25.09,25.09,0,0,0,100.75,71.9h-.48A25.09,25.09,0,0,0,79.1,50.73c0-.08,0-.16,0-.24s0-.16,0-.24a25.09,25.09,0,0,0,21.17-21.17h.48A25.09,25.09,0,0,0,121.93,50.25Zm-17.44-20.8a21.47,21.47,0,0,1,17.07,17.07A21.47,21.47,0,0,1,104.49,29.44Zm17.07,25a21.47,21.47,0,0,1-17.07,17.07A21.47,21.47,0,0,1,121.56,54.46ZM75.74,96.91h-.48A25.09,25.09,0,0,0,54.09,75.74c0-.08,0-.16,0-.24s0-.16,0-.24A25.09,25.09,0,0,0,75.26,54.09h.48A25.09,25.09,0,0,0,96.91,75.26c0,.08,0,.16,0,.24s0,.16,0,.24A25.09,25.09,0,0,0,75.74,96.91Zm20.8-17.44A21.47,21.47,0,0,1,79.47,96.54,21.47,21.47,0,0,1,96.54,79.47Zm-25,17.07A21.47,21.47,0,0,1,54.46,79.47,21.47,21.47,0,0,1,71.53,96.54Zm-17.07-25A21.47,21.47,0,0,1,71.53,54.46,21.47,21.47,0,0,1,54.46,71.53Zm25-17.07A21.47,21.47,0,0,1,96.54,71.53,21.47,21.47,0,0,1,79.47,54.46Zm0-7.94A21.47,21.47,0,0,1,96.54,29.44,21.47,21.47,0,0,1,79.47,46.51Zm-7.94,0A21.47,21.47,0,0,1,54.46,29.44,21.47,21.47,0,0,1,71.53,46.51Zm-25,25A21.47,21.47,0,0,1,29.44,54.46,21.47,21.47,0,0,1,46.51,71.53Zm0,7.94A21.47,21.47,0,0,1,29.44,96.54,21.47,21.47,0,0,1,46.51,79.47Zm25,25a21.47,21.47,0,0,1-17.07,17.07A21.47,21.47,0,0,1,71.53,104.49Zm7.94,0a21.47,21.47,0,0,1,17.07,17.07A21.47,21.47,0,0,1,79.47,104.49Zm25-25a21.47,21.47,0,0,1,17.07,17.07A21.47,21.47,0,0,1,104.49,79.47Zm25-25a21.47,21.47,0,0,1,17.07,17.07A21.47,21.47,0,0,1,129.5,54.46Zm42.46-4A21.44,21.44,0,0,1,150.54,71.9h-.24a25.09,25.09,0,0,0-21.17-21.17c0-.08,0-.16,0-.24s0-.16,0-.24A25.09,25.09,0,0,0,150.3,29.07h.24A21.44,21.44,0,0,1,172,50.49Zm-42.46-4a21.47,21.47,0,0,1,17.07-17.07A21.47,21.47,0,0,1,129.5,46.51Zm17.45-21c0,.08,0,.16,0,.24a25.09,25.09,0,0,0-21.17,21.17h-.48a25.09,25.09,0,0,0-21.17-21.17c0-.08,0-.16,0-.24s0-.16,0-.24A25.09,25.09,0,0,0,125.29,4.06h.24A21.44,21.44,0,0,1,146.95,25.47Zm-42.46-4A21.47,21.47,0,0,1,121.56,4.43,21.47,21.47,0,0,1,104.49,21.5Zm-4-42.46A21.44,21.44,0,0,1,121.93.46c0,.08,0,.16,0,.24a25.09,25.09,0,0,0-21.17,21.17h-.48A25.09,25.09,0,0,0,79.1.7c0-.08,0-.16,0-.24A21.44,21.44,0,0,1,100.51-21Zm-50,0A21.44,21.44,0,0,1,71.9.46c0,.08,0,.16,0,.24A25.09,25.09,0,0,0,50.73,21.87h-.48A25.09,25.09,0,0,0,29.07.7c0-.08,0-.16,0-.24A21.44,21.44,0,0,1,50.49-21Zm-4,42.46A21.47,21.47,0,0,1,29.44,4.43,21.47,21.47,0,0,1,46.51,21.5Zm-21-17.45h.24A25.09,25.09,0,0,0,46.88,25.23c0,.08,0,.16,0,.24s0,.16,0,.24A25.09,25.09,0,0,0,25.71,46.88h-.48A25.09,25.09,0,0,0,4.06,25.71c0-.08,0-.16,0-.24A21.44,21.44,0,0,1,25.47,4.05Zm-4,42.46A21.47,21.47,0,0,1,4.43,29.44,21.47,21.47,0,0,1,21.5,46.51Zm-42.46,4A21.44,21.44,0,0,1,.46,29.07H.7A25.09,25.09,0,0,0,21.87,50.25c0,.08,0,.16,0,.24s0,.16,0,.24A25.09,25.09,0,0,0,.7,71.9H.46A21.44,21.44,0,0,1-21,50.49Zm0,50A21.44,21.44,0,0,1,.46,79.1H.7a25.09,25.09,0,0,0,21.17,21.17c0,.08,0,.16,0,.24s0,.16,0,.24A25.09,25.09,0,0,0,.7,121.93H.46A21.44,21.44,0,0,1-21,100.51Zm42.46,4A21.47,21.47,0,0,1,4.43,121.56,21.47,21.47,0,0,1,21.5,104.49Zm-17.45,21c0-.08,0-.16,0-.24a25.09,25.09,0,0,0,21.17-21.17h.48a25.09,25.09,0,0,0,21.17,21.17c0,.08,0,.16,0,.24s0,.16,0,.24a25.09,25.09,0,0,0-21.17,21.17h-.24A21.44,21.44,0,0,1,4.05,125.53Zm42.46,4a21.47,21.47,0,0,1-17.07,17.07A21.47,21.47,0,0,1,46.51,129.5Zm4,42.46a21.44,21.44,0,0,1-21.42-21.42c0-.08,0-.16,0-.24a25.09,25.09,0,0,0,21.17-21.17h.48A25.09,25.09,0,0,0,71.9,150.3c0,.08,0,.16,0,.24A21.44,21.44,0,0,1,50.49,172Zm50,0A21.44,21.44,0,0,1,79.1,150.54c0-.08,0-.16,0-.24a25.09,25.09,0,0,0,21.17-21.17h.48a25.09,25.09,0,0,0,21.17,21.17c0,.08,0,.16,0,.24A21.44,21.44,0,0,1,100.51,172Zm4-42.46a21.47,21.47,0,0,1,17.07,17.07A21.47,21.47,0,0,1,104.49,129.5Zm21,17.45h-.24a25.09,25.09,0,0,0-21.17-21.17c0-.08,0-.16,0-.24s0-.16,0-.24a25.09,25.09,0,0,0,21.17-21.17h.48a25.09,25.09,0,0,0,21.17,21.17c0,.08,0,.16,0,.24A21.44,21.44,0,0,1,125.53,146.95Zm4-42.46a21.47,21.47,0,0,1,17.07,17.07A21.47,21.47,0,0,1,129.5,104.49Zm21,17.45h-.24a25.09,25.09,0,0,0-21.17-21.17c0-.08,0-.16,0-.24s0-.16,0-.24A25.09,25.09,0,0,0,150.3,79.1h.24a21.42,21.42,0,0,1,0,42.84Z"/></g></g></g></svg>