<svg id="レイヤー_1" data-name="レイヤー 1" xmlns="http://www.w3.org/2000/svg" xmlns:xlink="http://www.w3.org/1999/xlink" viewBox="0 0 84.08 84.08"><defs><style>.cls-1,.cls-2{fill:none;}.cls-2{clip-rule:evenodd;}.cls-3{clip-path:url(#clip-path);}.cls-4{fill:#fff;}.cls-5{clip-path:url(#clip-path-2);}.cls-6{clip-path:url(#clip-path-3);}.cls-7{clip-path:url(#clip-path-4);}.cls-8{clip-path:url(#clip-path-5);}.cls-9{clip-path:url(#clip-path-6);}.cls-10{clip-path:url(#clip-path-7);}.cls-11{clip-path:url(#clip-path-8);}.cls-12{clip-path:url(#clip-path-9);}.cls-13{clip-path:url(#clip-path-10);}.cls-14{clip-path:url(#clip-path-11);}.cls-15{clip-path:url(#clip-path-12);}.cls-16{clip-path:url(#clip-path-13);}.cls-17{clip-path:url(#clip-path-14);}.cls-18{clip-path:url(#clip-path-15);}.cls-19{clip-path:url(#clip-path-16);}.cls-20{clip-path:url(#clip-path-17);}.cls-21{clip-path:url(#clip-path-18);}.cls-22{clip-path:url(#clip-path-19);}.cls-23{clip-path:url(#clip-path-20);}.cls-24{clip-path:url(#clip-path-21);}.cls-25{clip-path:url(#clip-path-22);}.cls-26{clip-path:url(#clip-path-23);}.cls-27{clip-path:url(#clip-path-24);}</style><clipPath id="clip-path"><path class="cls-1" d="M42,84.08a42,42,0,1,1,42-42A42.09,42.09,0,0,1,42,84.08Z"/></clipPath><clipPath id="clip-path-2"><path class="cls-2" d="M184.38-295h6.23a4.42,4.42,0,0,1,3.36,1.08,3.6,3.6,0,0,1,.63,3.21l-1.27,7.21h-8.17a3.18,3.18,0,0,1-2.49-.86,2.79,2.79,0,0,1-.49-2.45,4.13,4.13,0,0,1,1.56-2.82,6.42,6.42,0,0,1,3.67-.85h4l.05-.29a1.4,1.4,0,0,0-.35-1.44,3.59,3.59,0,0,0-2.07-.42H184Zm2.42,9.19h3.81l.42-2.38h-3.58a3,3,0,0,0-1.52.29,1.4,1.4,0,0,0-.58,1,.86.86,0,0,0,.18.85A2.23,2.23,0,0,0,186.8-285.83Z"/></clipPath><clipPath id="clip-path-3"><path class="cls-2" d="M197.18-295h5.72q2.59,0,3.53,1t.54,3.24l-1.29,7.29h-3l1.22-6.92q.23-1.29-.1-1.67a2.11,2.11,0,0,0-1.54-.38h-2.44l-1.58,9h-3Z"/></clipPath><clipPath id="clip-path-4"><path class="cls-2" d="M208.07-285.92h6.41a2.51,2.51,0,0,0,1.29-.27,1.18,1.18,0,0,0,.54-.85.82.82,0,0,0-.24-.86,2,2,0,0,0-1.19-.27h-2.62q-2.34,0-3-.71a2.88,2.88,0,0,1-.37-2.54,4.18,4.18,0,0,1,1.47-2.73,5.22,5.22,0,0,1,3.23-.87h6.53l-.42,2.4h-5.36a4.33,4.33,0,0,0-1.75.23,1.07,1.07,0,0,0-.54.82.77.77,0,0,0,.21.78,1.67,1.67,0,0,0,1,.25H216a3.62,3.62,0,0,1,2.72.88,2.8,2.8,0,0,1,.54,2.54,4.57,4.57,0,0,1-1.34,2.6,3.44,3.44,0,0,1-2.44,1h-7.85Z"/></clipPath><clipPath id="clip-path-5"><path class="cls-2" d="M222.42-295h6.23a4.42,4.42,0,0,1,3.36,1.08,3.6,3.6,0,0,1,.63,3.21l-1.27,7.21H223.2a3.18,3.18,0,0,1-2.49-.86,2.79,2.79,0,0,1-.49-2.45,4.13,4.13,0,0,1,1.56-2.82,6.42,6.42,0,0,1,3.67-.85h4l.05-.29a1.4,1.4,0,0,0-.35-1.44,3.59,3.59,0,0,0-2.07-.42H222Zm2.42,9.19h3.81l.42-2.38h-3.58a3,3,0,0,0-1.52.29,1.4,1.4,0,0,0-.58,1,.86.86,0,0,0,.18.85A2.23,2.23,0,0,0,224.84-285.83Z"/></clipPath><clipPath id="clip-path-6"><path class="cls-2" d="M236.38-283.16h-3.19l2-11.5h3.19ZM238.64-296h-3.19l.5-2.86h3.19Z"/></clipPath><clipPath id="clip-path-7"><path class="cls-2" d="M2.8-294.79H8.66a4.57,4.57,0,0,1,3.85,1.56,5.34,5.34,0,0,1,.72,4.34,7.62,7.62,0,0,1-.68,2.1,7,7,0,0,1-1.25,1.74,5.39,5.39,0,0,1-2,1.36,8.35,8.35,0,0,1-2.84.41H3.81l-.73,4.17H0Zm2.6,2.48-1.16,6.56H6.1a4.13,4.13,0,0,0,2.75-.78,4.29,4.29,0,0,0,1.22-2.59,3.13,3.13,0,0,0-.27-2.47,2.89,2.89,0,0,0-2.31-.72Z"/></clipPath><clipPath id="clip-path-8"><path class="cls-2" d="M16.43-299h3l-.74,4.17h2.7q2.54,0,3.5,1a3.58,3.58,0,0,1,.57,3.21l-1.29,7.29H21.13l1.22-6.94a2.06,2.06,0,0,0-.15-1.61,2,2,0,0,0-1.52-.43H18.26l-1.58,9h-3Z"/></clipPath><clipPath id="clip-path-9"><path class="cls-2" d="M28.28-294.79h5.85A4.57,4.57,0,0,1,38-293.24a5.34,5.34,0,0,1,.72,4.34,7.6,7.6,0,0,1-.68,2.1,7,7,0,0,1-1.25,1.74,5.39,5.39,0,0,1-2,1.36,8.35,8.35,0,0,1-2.84.41H29.29l-.73,4.17h-3Zm2.6,2.48-1.16,6.56h1.85a4.13,4.13,0,0,0,2.75-.78,4.29,4.29,0,0,0,1.23-2.59,3.13,3.13,0,0,0-.27-2.47,2.89,2.89,0,0,0-2.31-.72Z"/></clipPath><clipPath id="clip-path-10"><path class="cls-2" d="M68.68-289a7,7,0,0,1-2.41,4.32,7.12,7.12,0,0,1-4.73,1.62,5.17,5.17,0,0,1-4.17-1.62,5,5,0,0,1-.9-4.32,7,7,0,0,1,2.43-4.33A7.16,7.16,0,0,1,63.64-295a5.12,5.12,0,0,1,4.14,1.63,5.05,5.05,0,0,1,.89,4.33m-9,0a3.48,3.48,0,0,0,.32,2.56,2.2,2.2,0,0,0,2,.92,3.17,3.17,0,0,0,2.3-.92A4.58,4.58,0,0,0,65.49-289a3.44,3.44,0,0,0-.32-2.55,2.22,2.22,0,0,0-2-.91,3.16,3.16,0,0,0-2.3.92A4.57,4.57,0,0,0,59.66-289"/></clipPath><clipPath id="clip-path-11"><path class="cls-2" d="M71.12-294.79h5.72q2.59,0,3.53,1t.54,3.24l-1.29,7.29h-3l1.22-6.92q.23-1.29-.1-1.67a2.11,2.11,0,0,0-1.54-.38H73.71l-1.58,9h-3Z"/></clipPath><clipPath id="clip-path-12"><path class="cls-2" d="M84.25-292.5H82.06l.4-2.29h2.19l.21-1.18a3.86,3.86,0,0,1,1.07-2.37,4.22,4.22,0,0,1,2.6-.61h2.88L91-296.74H89.58a2.17,2.17,0,0,0-1.15.24,1.12,1.12,0,0,0-.47.79l-.16.92h2.88l-.4,2.29H87.39l-1.62,9.21H82.62Z"/></clipPath><clipPath id="clip-path-13"><path class="cls-2" d="M128-294.79h5.72q2.59,0,3.53,1t.54,3.24l-1.29,7.29h-3l1.22-6.92q.23-1.29-.1-1.67a2.11,2.11,0,0,0-1.54-.38h-2.44l-1.58,9h-3Z"/></clipPath><clipPath id="clip-path-14"><path class="cls-2" d="M145.21-285.75h3.23l-.43,2.46h-4.13a8,8,0,0,1-2.52-.33,3.51,3.51,0,0,1-1.57-1.05,4.44,4.44,0,0,1-.91-1.92,6.1,6.1,0,0,1,0-2.4,7.78,7.78,0,0,1,.89-2.49,6.77,6.77,0,0,1,1.6-1.94,5.66,5.66,0,0,1,2-1.05,9.13,9.13,0,0,1,2.61-.32H150l-.44,2.48h-3.23a5,5,0,0,0-3.08.74A4,4,0,0,0,142-289a3.84,3.84,0,0,0,0,1.75,2,2,0,0,0,.83,1.12,2,2,0,0,0,.74.29,9.86,9.86,0,0,0,1.6.09"/></clipPath><clipPath id="clip-path-15"><path class="cls-2" d="M51.52-285.75h3.23l-.43,2.46H50.19a8,8,0,0,1-2.52-.33,3.51,3.51,0,0,1-1.57-1.05,4.44,4.44,0,0,1-.91-1.92,6.1,6.1,0,0,1,0-2.4,7.78,7.78,0,0,1,.89-2.49,6.77,6.77,0,0,1,1.6-1.94,5.66,5.66,0,0,1,2-1.05,9.13,9.13,0,0,1,2.61-.32h4.13l-.44,2.48H52.68a5,5,0,0,0-3.08.74A4,4,0,0,0,48.33-289a3.84,3.84,0,0,0,0,1.75,2,2,0,0,0,.83,1.12,2,2,0,0,0,.74.29,9.85,9.85,0,0,0,1.6.09"/></clipPath><clipPath id="clip-path-16"><path class="cls-2" d="M101.81-293.34a3.75,3.75,0,0,0-1.21-.92,7.07,7.07,0,0,0-2.82-.41h-1.5a8.14,8.14,0,0,0-3.54.7,5.5,5.5,0,0,0-2.5,2.53,8.67,8.67,0,0,0-.76,2.4,5.1,5.1,0,0,0,.73,4.29,3.41,3.41,0,0,0,1.12.89,7.54,7.54,0,0,0,2.93.31h4.44l.11-.61.31-1.71h-4c-1.14,0-1.87,0-2.16-.31s-.39-.62-.27-1.55h9.55c.12-.46.22-.84.3-1.27.35-1.89.13-3.38-.67-4.35M99.34-290H93.05A2.61,2.61,0,0,1,94-291.8a4,4,0,0,1,2.31-.55h.64a3.19,3.19,0,0,1,2.13.55c.32.31.42.85.3,1.77"/></clipPath><clipPath id="clip-path-17"><path class="cls-2" d="M244.89-287.91a5.29,5.29,0,0,1,1.86-3.51,7.25,7.25,0,0,1,4.32-1.06h2.11a4,4,0,0,0,2.08-.41,2,2,0,0,0,.81-1.39,1.48,1.48,0,0,0-.29-1.45,3.16,3.16,0,0,0-2-.41h-7.49l.47-2.69h8.93a9.65,9.65,0,0,1,1.74.12,2.78,2.78,0,0,1,1,.4,2.82,2.82,0,0,1,1.2,1.58,5.35,5.35,0,0,1,.05,2.49,5.43,5.43,0,0,1-1.8,3.39,5.65,5.65,0,0,1-3.71,1.16h-3a3.39,3.39,0,0,0-2.06.51,2.66,2.66,0,0,0-.88,1.73l-.28,1.56H258.2l-.47,2.68H244.06Z"/></clipPath><clipPath id="clip-path-18"><path class="cls-2" d="M266.46-282.79q-4,0-5.56-2t-.85-6a10,10,0,0,1,3-6.07,9.22,9.22,0,0,1,6.25-2q4,0,5.53,2t.84,6.07a10,10,0,0,1-3,6,9.19,9.19,0,0,1-6.23,2m.43-2.58a4.7,4.7,0,0,0,3.52-1.32,7.64,7.64,0,0,0,1.78-4.1,6,6,0,0,0-.34-4.11,3.31,3.31,0,0,0-3-1.33,4.67,4.67,0,0,0-3.51,1.33,7.71,7.71,0,0,0-1.78,4.11,6,6,0,0,0,.33,4.1,3.3,3.3,0,0,0,3,1.32"/></clipPath><clipPath id="clip-path-19"><polygon class="cls-2" points="279.83 -298.83 277.4 -297.2 276.67 -293.09 279.11 -294.66 277.07 -283.07 280.5 -283.07 283.26 -298.83 279.83 -298.83"/></clipPath><clipPath id="clip-path-20"><path class="cls-2" d="M112.16-294.08a3.34,3.34,0,0,0-2.4-.58h-5.11l-2,11.12h3l1.52-8.94.39,0s1.37.12,1.59.37a2.42,2.42,0,0,1,.13,1.75l0,.28h2.9l.34-1.86a2.46,2.46,0,0,0-.32-2.19"/></clipPath><clipPath id="clip-path-21"><path class="cls-2" d="M124.95-293.34a3.75,3.75,0,0,0-1.21-.92,7.07,7.07,0,0,0-2.82-.41h-1.5a8.14,8.14,0,0,0-3.54.7,5.5,5.5,0,0,0-2.5,2.53,8.68,8.68,0,0,0-.76,2.4,5.1,5.1,0,0,0,.73,4.29,3.41,3.41,0,0,0,1.12.89,7.54,7.54,0,0,0,2.93.31h4.44l.11-.61.31-1.71h-4c-1.14,0-1.87,0-2.16-.31s-.39-.62-.27-1.55h9.55c.12-.46.22-.84.3-1.27.35-1.89.13-3.38-.67-4.35M122.48-290h-6.29a2.61,2.61,0,0,1,.91-1.77,4,4,0,0,1,2.31-.55H120a3.19,3.19,0,0,1,2.13.55c.32.31.42.85.3,1.77"/></clipPath><clipPath id="clip-path-22"><path class="cls-2" d="M162.25-293.34a3.76,3.76,0,0,0-1.21-.92,7.07,7.07,0,0,0-2.82-.41h-1.5a8.14,8.14,0,0,0-3.54.7,5.5,5.5,0,0,0-2.5,2.53,8.67,8.67,0,0,0-.76,2.4,5.1,5.1,0,0,0,.73,4.29,3.41,3.41,0,0,0,1.12.89,7.54,7.54,0,0,0,2.93.31h4.44l.11-.61.31-1.71h-4c-1.14,0-1.87,0-2.16-.31s-.39-.62-.27-1.55h9.55c.12-.46.22-.84.3-1.27.35-1.89.13-3.38-.67-4.35M159.78-290h-6.29a2.61,2.61,0,0,1,.91-1.77,4,4,0,0,1,2.31-.55h.64a3.19,3.19,0,0,1,2.13.55c.32.31.42.85.3,1.77"/></clipPath><clipPath id="clip-path-23"><polygon class="cls-2" points="295.21 -296.16 285.19 -296.16 285.66 -298.83 299.52 -298.83 299.05 -296.16 287.37 -283.19 283.19 -283.19 295.21 -296.16"/></clipPath><clipPath id="clip-path-24"><polygon class="cls-2" points="170.74 -298.83 174.03 -298.83 172.71 -291.3 180.21 -298.83 184.16 -298.83 176.52 -291.17 181.46 -283.15 177.25 -283.15 172.64 -290.95 171.27 -283.15 167.97 -283.15 170.74 -298.83"/></clipPath></defs><title>icn_heading-white</title><g class="cls-3"><path class="cls-4" d="M83,124.08a42,42,0,1,1,42-42A42.09,42.09,0,0,1,83,124.08Zm0-78a36,36,0,1,0,36,36A36,36,0,0,0,83,46.08Z"/><path class="cls-4" d="M1,124.08A42,42,0,0,1,1,40a42,42,0,0,1,0,84.08Zm0-78A36,36,0,0,0,1,118,36,36,0,0,0,1,46.08Z"/><path class="cls-4" d="M42,84.08a42,42,0,1,1,42-42A42.09,42.09,0,0,1,42,84.08Zm0-78A36,36,0,1,0,78,42,36,36,0,0,0,42,6.08Z"/><path class="cls-4" d="M83,44.08A42.09,42.09,0,0,1,41,2a42,42,0,0,1,84.08,0A42.09,42.09,0,0,1,83,44.08Zm0-78a36,36,0,0,0-36,36A36,36,0,0,0,119,2,36,36,0,0,0,83-33.92Z"/><path class="cls-4" d="M1,44.08A42.09,42.09,0,0,1-41,2,42.09,42.09,0,0,1,1-40a42.09,42.09,0,0,1,42,42A42.09,42.09,0,0,1,1,44.08Zm0-78a36,36,0,0,0-36,36A36,36,0,0,0,1,38,36,36,0,0,0,37,2,36,36,0,0,0,1-33.92Z"/></g></svg>