<svg id="thankyou" xmlns="http://www.w3.org/2000/svg" viewBox="0 0 152.02 49.16"><defs><style>.cls-1{isolation:isolate;}.cls-2{fill:#d8d4f5;}</style></defs><title>アートボード 1</title><g class="cls-1"><path id="t" class="cls-2" d="M18.77,4a2.19,2.19,0,0,1-1,.21,23.68,23.68,0,0,1-3.11-.17l-3.17-.25L10.28,8.53A46.52,46.52,0,0,0,9.2,13.28l-.62,3.51a31.74,31.74,0,0,0-.39,3.56l.09,1.05,0,.59a3.53,3.53,0,0,1,0,.55,1.08,1.08,0,0,1-.75.9,2.78,2.78,0,0,1-1.26.12,5.15,5.15,0,0,1-.66-.18A3.11,3.11,0,0,1,5,23a1.41,1.41,0,0,1-.54-.48.87.87,0,0,1-.2-.62,11.59,11.59,0,0,1,.12-2.22q.17-1.52.52-3.53c.38-2.14.82-4.24,1.36-6.35S7.34,5.63,8,3.54L6.19,3.32,4.36,3.14H3.12A8.54,8.54,0,0,1,1.83,3a1.33,1.33,0,0,1-.64-.29,2.15,2.15,0,0,1-.65-.6,2.34,2.34,0,0,1-.43-.7A1.22,1.22,0,0,1,0,.75.69.69,0,0,1,.3.28,1.33,1.33,0,0,1,.83,0a2.75,2.75,0,0,1,.63,0H2L3.9.23A17.36,17.36,0,0,0,5.76.49c1.48.19,3,.32,4.58.46s3.09.27,4.61.29a4.28,4.28,0,0,0,.63-.06,3.87,3.87,0,0,0,.6-.07c.21,0,.42,0,.63-.06a4.18,4.18,0,0,1,.65,0,3.31,3.31,0,0,1,.68.26l.63.53c.17.24.34.44.47.67a1.25,1.25,0,0,1,.12.68A1,1,0,0,1,18.77,4Z"/><path id="h" class="cls-2" d="M33,26.69a2.36,2.36,0,0,1-.56.63,2.13,2.13,0,0,1-.94.25,3.15,3.15,0,0,1-.93,0A2.7,2.7,0,0,1,29,26.19a.69.69,0,0,1-.11-.54,1,1,0,0,1,.21-.41,2.86,2.86,0,0,1,.34-.35,6.71,6.71,0,0,0,.23-.72c.05-.3.15-.63.21-1s.16-.73.22-1.07l.15-.84c.23-1.31.35-2.39.44-3.27a9,9,0,0,0-.07-2.15A2.19,2.19,0,0,0,30,14.66a2.34,2.34,0,0,0-1.15-.51,3.33,3.33,0,0,0-1.66.19,5.59,5.59,0,0,0-1.79,1.14,8.06,8.06,0,0,0-1.54,1.9A7.33,7.33,0,0,0,22.89,20l-.2,1.14c-.07.4-.08.67-.1.74a1.51,1.51,0,0,0,0,.51c0,.13,0,.24,0,.31l.05.49a.44.44,0,0,0,0,.21c0,.13,0,.23,0,.31a1.94,1.94,0,0,1-.21.58,6.09,6.09,0,0,1-.36.66,1.16,1.16,0,0,1-.85.54,2.73,2.73,0,0,1-1.08.05,1.65,1.65,0,0,1-.85-.46c-.3-.23-.45-.39-.49-.54a1.37,1.37,0,0,1-.21-.8,3,3,0,0,1,0-.82c0-.27.08-.64.15-1L19,20.7l.16-1.28.44-2.51L20,15l.43-2c.12-.67.24-1.34.38-1.94s.22-1.07.3-1.53.16-.7.18-.83,0-.47.12-.88l.09-1.3.15-1.25a7.26,7.26,0,0,1,.1-.74,4.42,4.42,0,0,0,0-.82A3.13,3.13,0,0,1,21.81,3a1.62,1.62,0,0,1,.26-.71A1.57,1.57,0,0,1,22.75,2a1.84,1.84,0,0,1,1-.1,6.41,6.41,0,0,1,.66.18,7.15,7.15,0,0,1,.76.38,3.12,3.12,0,0,1,.59.59.94.94,0,0,1,.22.7l-.09.5a8.12,8.12,0,0,0-.24,1l-.24,1.37c-.13.53-.22,1.07-.32,1.6l-.25,1.44c-.09.5-.21,1-.29,1.47l-.41,2.34a12.55,12.55,0,0,1,1.1-.77c.38-.21.76-.42,1.21-.61a6,6,0,0,1,1.23-.34,3.35,3.35,0,0,1,1.15,0,14.21,14.21,0,0,1,1.55.41,6.74,6.74,0,0,1,1.55.83,6.89,6.89,0,0,1,1.77,1.9,6.92,6.92,0,0,1,.73,2.1c0,.39,0,.77,0,1.11l-.07,1.16c-.07.4-.11.81-.18,1.21l-1,5.42A3.48,3.48,0,0,1,33,26.69Z"/><path id="a" class="cls-2" d="M50.92,30.61a2,2,0,0,1-.39.62,1.59,1.59,0,0,1-.65.37,2.11,2.11,0,0,1-1,0,1.59,1.59,0,0,1-1.36-.93A2.65,2.65,0,0,1,47.37,29a6.06,6.06,0,0,1-2.46.67,9.69,9.69,0,0,1-2.54-.1,10.46,10.46,0,0,1-2.53-.72A8.06,8.06,0,0,1,37.9,27.7a4.35,4.35,0,0,1-1.13-1.44,2.81,2.81,0,0,1-.18-1.72,2.88,2.88,0,0,1,.92-1.67,4.84,4.84,0,0,1,1.78-1.1,10.76,10.76,0,0,1,2.31-.59c.84-.09,1.72-.15,2.58-.17s1.73,0,2.55,0,1.49.16,2.11.2a8.75,8.75,0,0,0-.07-1.15A8.22,8.22,0,0,0,48.34,19a4.3,4.3,0,0,0-.85-.87,3.41,3.41,0,0,0-1.26-.5,4.62,4.62,0,0,0-2.15.07,6,6,0,0,0-1.5.7,2.56,2.56,0,0,0-.35.21c-.12.08-.23.13-.31.19s-.23.13-.31.19-.23.13-.31.19a2.57,2.57,0,0,1-.63.23,1.51,1.51,0,0,1-.69,0,1.59,1.59,0,0,1-1.15-.72,1.52,1.52,0,0,1-.27-1.19,1.89,1.89,0,0,1,1.1-1.36,18.62,18.62,0,0,1,2.09-.87,10.77,10.77,0,0,1,2.84-.47,14.38,14.38,0,0,1,2.36.14A6.46,6.46,0,0,1,49.69,16,6.39,6.39,0,0,1,51.42,18a7.07,7.07,0,0,1,.82,2.39,8.73,8.73,0,0,1-.06,2.47c-.14.77-.27,1.54-.37,2.28s-.21,1.55-.34,2.32l-.22,1.24c-.07.4-.11.81-.18,1.21S51,30.38,50.92,30.61Zm-4.7-7.21a13.94,13.94,0,0,0-2.51,0,7,7,0,0,0-2.09.5,1.55,1.55,0,0,0-1.08,1.22,1.07,1.07,0,0,0,.11.75,1.79,1.79,0,0,0,.58.65A2.18,2.18,0,0,0,42,27a2.93,2.93,0,0,0,.91.3,7.14,7.14,0,0,0,2.73,0,5.3,5.3,0,0,0,2.27-1.12l.47-2.47C47.78,23.57,47.07,23.48,46.22,23.4Z"/><path id="n" class="cls-2" d="M69.51,30.71c-.15.66-.26,1.3-.38,1.94a2.24,2.24,0,0,1-.8,1.38,2.12,2.12,0,0,1-1.72.35,1.15,1.15,0,0,1-.7-.33,1.26,1.26,0,0,1-.35-.58,1,1,0,0,1-.09-.64,2.11,2.11,0,0,1,0-.65,1.24,1.24,0,0,1,.15-.46,2,2,0,0,0,.15-.46c.12-.46.23-.93.32-1.43l.44-2.48c.08-.43.13-.94.2-1.52l.1-1.74a15.67,15.67,0,0,0-.16-1.65,5.06,5.06,0,0,0-.5-1.3,1.64,1.64,0,0,0-1-.62,2.57,2.57,0,0,0-2,.54,11.15,11.15,0,0,0-1.84,1.82,6.43,6.43,0,0,0-1.16,1.87,6.41,6.41,0,0,0-.57,1.66l-.14.8c-.09.33-.15.67-.21,1s-.15.66-.21,1l-.15.84c-.05.3-.15.63-.25,1a1.65,1.65,0,0,1-.6.86,2.48,2.48,0,0,1-.65.37,1.45,1.45,0,0,1-.84.09,3.41,3.41,0,0,1-.52-.16l-.53-.3a.86.86,0,0,1-.38-.38.62.62,0,0,1-.12-.5,1.87,1.87,0,0,1,.17-.59l.17-.59c.08-.47.2-.93.28-1.4l.87-4.92c.19-1.1.34-2.11.49-3a19,19,0,0,0,.28-2.16,1.81,1.81,0,0,1,0-.47,1.18,1.18,0,0,1,.77-.83,2.43,2.43,0,0,1,1.45-.19,1.83,1.83,0,0,1,1.23.66,2.13,2.13,0,0,1,.15,1.3c0,.27-.12.5-.16.7s-.12.46-.16.7a7.37,7.37,0,0,1,1-.92,7.63,7.63,0,0,1,1.24-.78,7.74,7.74,0,0,1,1.39-.45,4.67,4.67,0,0,1,2.69.41,8,8,0,0,1,1,.7,6.61,6.61,0,0,1,1.76,2.14,7.76,7.76,0,0,1,.65,2.36,14,14,0,0,1-.1,2.12c-.12.88-.25,1.82-.44,2.89Z"/><path id="k" class="cls-2" d="M86.81,37.56a1.92,1.92,0,0,1-1.54.32q-1.11-.2-2.86-2.58c-.76-1-1.47-2-2.18-3.08S78.76,30.17,78,29.17c-.16.11-.31.19-.43.27a3,3,0,0,0-.39.24L76.74,32a1.87,1.87,0,0,0,0,.61,2.48,2.48,0,0,0,0,.69l.05.28.09.29a1.64,1.64,0,0,1,.08.74,1,1,0,0,1-.72.77c-.21,0-.39.07-.53.08a1.68,1.68,0,0,1-.55,0,2.18,2.18,0,0,1-1.72-1,2.72,2.72,0,0,1-.23-1.8,14,14,0,0,1,.32-1.43l.49-2c.16-.7.31-1.36.48-2s.24-1,.27-1.16l1.48-8.78c0-.27.07-.57.11-.84a6.84,6.84,0,0,1,.06-.75,1.93,1.93,0,0,1,0-.62v-.59L76.32,14a.74.74,0,0,1,0-.38.9.9,0,0,1,.38-.59c.23-.13.49-.26.8-.41a2.59,2.59,0,0,1,1.61-.34,3.22,3.22,0,0,1,1.19.49,2.43,2.43,0,0,1,.41.42.67.67,0,0,1,.12.5,3.22,3.22,0,0,1-.36.87,4.16,4.16,0,0,0-.54,1.49,9.34,9.34,0,0,0-.34,1.35c-.12.46-.19.87-.24,1.17q-.35,2-.76,3.7c-.27,1.13-.46,2.23-.65,3.3l2.16-1.28c.76-.42,1.53-.87,2.37-1.31,1.34-.73,2.36-1.24,3.07-1.56A4.14,4.14,0,0,1,86.79,21c1.24.22,1.75,1.07,1.49,2.51l-.06.33c-.62.2-1.36.45-2.18.79a24.87,24.87,0,0,0-2.55,1.14q-1.48.77-2.88,1.67l.83,1.35L83,31.23q.41.59,1,1.32a17.17,17.17,0,0,0,1.84,2.12,10.07,10.07,0,0,0,2,1.63A5.47,5.47,0,0,1,86.81,37.56Z"/><path id="y" class="cls-2" d="M118.14,29.42l-.24.75c-.26.71-.49,1.4-.68,2.12s-.35,1.42-.48,2.13q-.42,2.36-.92,4.6c-.33,1.5-.6,3-.88,4.58a11.2,11.2,0,0,1-.77,2.59,5.6,5.6,0,0,1-1.4,1.89,5.29,5.29,0,0,1-2.1,1,8.72,8.72,0,0,1-3.06-.06c-.27,0-.6-.14-1.07-.22l-1.43-.32c-.52-.16-1-.28-1.38-.42a2.23,2.23,0,0,1-.86-.43,3.57,3.57,0,0,1-.84-.94,1.53,1.53,0,0,1-.14-1,1,1,0,0,1,.75-.91,2.64,2.64,0,0,1,1.24-.19,14.52,14.52,0,0,0,1.87,1,9.89,9.89,0,0,0,2.07.57,3.32,3.32,0,0,0,2.8-.44,4.06,4.06,0,0,0,1.18-2.38q.23-1.31.56-2.59c.21-.83.4-1.69.62-2.55a15.08,15.08,0,0,1-1.18,1.42,7.94,7.94,0,0,1-1.47,1.12,4.81,4.81,0,0,1-1.77.62,6.38,6.38,0,0,1-2,0,4.89,4.89,0,0,1-2.47-1.09,4.31,4.31,0,0,1-1.27-1.81,6.32,6.32,0,0,1-.36-2.27,14.13,14.13,0,0,1,.24-2.34c.14-.8.28-1.61.46-2.4s.31-1.57.45-2.37a6.89,6.89,0,0,0,.1-1.16,6.93,6.93,0,0,1,.14-1.18c0-.13.11-.22.33-.32a5.08,5.08,0,0,1,.66-.19c.25,0,.5-.08.74-.11a3.45,3.45,0,0,1,.51,0,2.31,2.31,0,0,1,1.17.62,1.36,1.36,0,0,1,.41,1.21c0,.17-.09.33-.13.53l-.22.65a3,3,0,0,0-.22.69,2.53,2.53,0,0,0-.22.65c-.19.69-.39,1.42-.52,2.19s-.31,1.53-.43,2.27a6,6,0,0,0-.12,1.08,3.71,3.71,0,0,0,.15,1.13,1.93,1.93,0,0,0,.49.92,1.69,1.69,0,0,0,1,.48,2.64,2.64,0,0,0,2.19-.68,11,11,0,0,0,1.94-2.18,22.7,22.7,0,0,0,1.54-2.66q.6-1.34.89-2.12c.15-.46.3-.91.42-1.38a5.14,5.14,0,0,1,.45-1.37,1.56,1.56,0,0,1,1.89-.94,1.93,1.93,0,0,1,.52.2l.57.31a5.79,5.79,0,0,1,.4.49.83.83,0,0,1,.11.57A5.17,5.17,0,0,1,118.14,29.42Z"/><path id="o" class="cls-2" d="M134.35,41.25a8.7,8.7,0,0,1-2.07,2.33A8.34,8.34,0,0,1,129.41,45a7.84,7.84,0,0,1-3.41.16,8,8,0,0,1-2.79-1,6.16,6.16,0,0,1-2-1.94,6.88,6.88,0,0,1-1.12-2.65,8.1,8.1,0,0,1,0-3.14,9.49,9.49,0,0,1,1-2.86A8.2,8.2,0,0,1,122.9,31a7.49,7.49,0,0,1,2.63-1.61,5.92,5.92,0,0,1,3.26-.25,10.88,10.88,0,0,1,3.29,1.13,8,8,0,0,1,2.26,2.06,8.47,8.47,0,0,1,1.17,2.76,9.94,9.94,0,0,1,0,3.28A7.9,7.9,0,0,1,134.35,41.25ZM132,34A4.16,4.16,0,0,0,129,32.08a3.52,3.52,0,0,0-1.94.21,6,6,0,0,0-1.64,1.09,6.61,6.61,0,0,0-1.23,1.71,6.12,6.12,0,0,0-.69,1.95,5.09,5.09,0,0,0,.45,3.53,3.59,3.59,0,0,0,2.75,1.83,3.47,3.47,0,0,0,2.08-.22,5.93,5.93,0,0,0,1.8-1.2,7.43,7.43,0,0,0,1.31-1.74,6.81,6.81,0,0,0,.67-1.85A5.31,5.31,0,0,0,132,34Z"/><path id="u" class="cls-2" d="M149.92,48.14a1.4,1.4,0,0,1-.48.4,2,2,0,0,1-1.24.16,1.76,1.76,0,0,1-1.32-1,4.05,4.05,0,0,1-.47-1.84,4.7,4.7,0,0,1-1.73,1,4,4,0,0,1-1.9.18A5.61,5.61,0,0,1,140.07,46a4.14,4.14,0,0,1-1.41-1.8,5.35,5.35,0,0,1-.35-2.31,15.52,15.52,0,0,1,.24-2.55l.15-.84.31-1.39.27-1.51c.09-.5.19-.9.24-1.17s.06-.54.11-.81l0-.79a2.92,2.92,0,0,1,0-.79,12.1,12.1,0,0,1,1.18-.41,2.32,2.32,0,0,1,1-.07,2,2,0,0,1,.58.24,4.64,4.64,0,0,1,.56.37,6.12,6.12,0,0,1,.32.54,1.43,1.43,0,0,1,0,.56,2.59,2.59,0,0,1-.16.52l-.25.82-.34,1.15a5.19,5.19,0,0,0-.23.89c0,.13-.1.4-.17.76l-.43,2.44c-.1.4-.15.63-.16.7a6,6,0,0,0,.06,3A1.82,1.82,0,0,0,143.23,45a2.23,2.23,0,0,0,1.52-.21,3.3,3.3,0,0,0,1.17-1,7.06,7.06,0,0,0,.81-1.45,9,9,0,0,0,.52-1.57c.11-.6.25-1.2.35-1.8s.23-1.13.32-1.63l.32-1.84c.11-.64.19-1.1.28-1.4a1.52,1.52,0,0,1,.39-.62,1,1,0,0,1,.59-.24,1.88,1.88,0,0,1,.55,0,3.15,3.15,0,0,1,.52.19,3.48,3.48,0,0,1,.66.39,3.39,3.39,0,0,1,.58.65.88.88,0,0,1,.2.62,3.84,3.84,0,0,1-.15.46c-.07.23-.15.46-.23.72a5.71,5.71,0,0,0-.27,1,7,7,0,0,0-.3.95,4.82,4.82,0,0,0-.2.76l-.24,1-.17.94a4.38,4.38,0,0,0-.13.53c-.13.74-.24,1.37-.3,1.92a9.19,9.19,0,0,0-.15,1.46,8.23,8.23,0,0,0,0,1.1,3.63,3.63,0,0,0,.14,1,4.2,4.2,0,0,1,.14.78A1.75,1.75,0,0,1,149.92,48.14Z"/></g></svg>