<svg xmlns="http://www.w3.org/2000/svg" xmlns:xlink="http://www.w3.org/1999/xlink" viewBox="0 0 27 21.26"><defs><style>.cls-1{fill:none;clip-rule:evenodd;}.cls-2{clip-path:url(#clip-path);}.cls-3{clip-path:url(#clip-path-2);}.cls-4{clip-path:url(#clip-path-3);}.cls-5{clip-path:url(#clip-path-4);}.cls-6{clip-path:url(#clip-path-5);}.cls-7{clip-path:url(#clip-path-6);}.cls-8{clip-path:url(#clip-path-7);}.cls-9{clip-path:url(#clip-path-8);}.cls-10{clip-path:url(#clip-path-9);}.cls-11{clip-path:url(#clip-path-10);}.cls-12{clip-path:url(#clip-path-11);}.cls-13{clip-path:url(#clip-path-12);}.cls-14{clip-path:url(#clip-path-13);}.cls-15{clip-path:url(#clip-path-14);}.cls-16{clip-path:url(#clip-path-15);}.cls-17{clip-path:url(#clip-path-16);}.cls-18{clip-path:url(#clip-path-17);}.cls-19{clip-path:url(#clip-path-18);}.cls-20{clip-path:url(#clip-path-19);}.cls-21{clip-path:url(#clip-path-20);}.cls-22{clip-path:url(#clip-path-21);}.cls-23{clip-path:url(#clip-path-22);}.cls-24{clip-path:url(#clip-path-23);}.cls-25,.cls-26{fill:#9067ca;}.cls-25{fill-rule:evenodd;}.cls-27{clip-path:url(#clip-path-24);}</style><clipPath id="clip-path"><path class="cls-1" d="M307.84-168.43h6.23a4.42,4.42,0,0,1,3.36,1.08,3.6,3.6,0,0,1,.63,3.21l-1.27,7.21h-8.17a3.18,3.18,0,0,1-2.49-.86,2.79,2.79,0,0,1-.49-2.45,4.13,4.13,0,0,1,1.56-2.82,6.42,6.42,0,0,1,3.67-.85h4l.05-.29a1.4,1.4,0,0,0-.35-1.44,3.59,3.59,0,0,0-2.07-.42h-5.08Zm2.42,9.19h3.81l.42-2.38H310.9a3,3,0,0,0-1.52.29,1.4,1.4,0,0,0-.58,1,.86.86,0,0,0,.18.85A2.23,2.23,0,0,0,310.26-159.24Z"/></clipPath><clipPath id="clip-path-2"><path class="cls-1" d="M320.64-168.43h5.72q2.59,0,3.53,1t.54,3.24l-1.29,7.29h-3l1.22-6.92q.23-1.29-.1-1.67a2.11,2.11,0,0,0-1.54-.38h-2.44l-1.58,9h-3Z"/></clipPath><clipPath id="clip-path-3"><path class="cls-1" d="M331.53-159.33h6.41a2.51,2.51,0,0,0,1.29-.27,1.18,1.18,0,0,0,.54-.85.82.82,0,0,0-.24-.86,2,2,0,0,0-1.19-.27h-2.62q-2.34,0-3-.71a2.88,2.88,0,0,1-.37-2.54,4.18,4.18,0,0,1,1.47-2.73,5.22,5.22,0,0,1,3.23-.87h6.53l-.42,2.4h-5.36a4.33,4.33,0,0,0-1.75.23,1.07,1.07,0,0,0-.54.82.77.77,0,0,0,.21.78,1.67,1.67,0,0,0,1,.25h2.75a3.62,3.62,0,0,1,2.72.88,2.8,2.8,0,0,1,.54,2.54,4.57,4.57,0,0,1-1.34,2.6,3.44,3.44,0,0,1-2.44,1h-7.85Z"/></clipPath><clipPath id="clip-path-4"><path class="cls-1" d="M345.88-168.43h6.23a4.42,4.42,0,0,1,3.36,1.08,3.6,3.6,0,0,1,.63,3.21l-1.27,7.21h-8.17a3.18,3.18,0,0,1-2.49-.86,2.79,2.79,0,0,1-.49-2.45,4.13,4.13,0,0,1,1.56-2.82,6.42,6.42,0,0,1,3.67-.85h4l.05-.29a1.4,1.4,0,0,0-.35-1.44,3.59,3.59,0,0,0-2.07-.42h-5.08Zm2.42,9.19h3.81l.42-2.38h-3.58a3,3,0,0,0-1.52.29,1.4,1.4,0,0,0-.58,1,.86.86,0,0,0,.18.85A2.23,2.23,0,0,0,348.3-159.24Z"/></clipPath><clipPath id="clip-path-5"><path class="cls-1" d="M359.84-156.56h-3.19l2-11.5h3.19Zm2.26-12.82h-3.19l.5-2.86h3.19Z"/></clipPath><clipPath id="clip-path-6"><path class="cls-1" d="M126.26-168.2h5.85a4.57,4.57,0,0,1,3.85,1.56,5.34,5.34,0,0,1,.72,4.34,7.62,7.62,0,0,1-.68,2.1,7,7,0,0,1-1.25,1.74,5.39,5.39,0,0,1-2,1.36,8.35,8.35,0,0,1-2.84.41h-2.61l-.73,4.17h-3Zm2.6,2.48-1.16,6.56h1.85a4.13,4.13,0,0,0,2.75-.78,4.29,4.29,0,0,0,1.22-2.59,3.13,3.13,0,0,0-.27-2.47,2.89,2.89,0,0,0-2.31-.72Z"/></clipPath><clipPath id="clip-path-7"><path class="cls-1" d="M139.89-172.37h3l-.74,4.17h2.7q2.54,0,3.5,1a3.58,3.58,0,0,1,.57,3.21l-1.29,7.29h-3.06l1.22-6.94a2.06,2.06,0,0,0-.15-1.61,2,2,0,0,0-1.52-.43h-2.42l-1.58,9h-3Z"/></clipPath><clipPath id="clip-path-8"><path class="cls-1" d="M151.74-168.2h5.85a4.57,4.57,0,0,1,3.85,1.56,5.34,5.34,0,0,1,.72,4.34,7.6,7.6,0,0,1-.68,2.1,7,7,0,0,1-1.25,1.74,5.39,5.39,0,0,1-2,1.36,8.35,8.35,0,0,1-2.84.41h-2.61l-.73,4.17h-3Zm2.6,2.48-1.16,6.56H155a4.13,4.13,0,0,0,2.75-.78,4.29,4.29,0,0,0,1.23-2.59,3.13,3.13,0,0,0-.27-2.47,2.89,2.89,0,0,0-2.31-.72Z"/></clipPath><clipPath id="clip-path-9"><path class="cls-1" d="M192.14-162.44a7,7,0,0,1-2.41,4.32A7.12,7.12,0,0,1,185-156.5a5.17,5.17,0,0,1-4.17-1.62,5,5,0,0,1-.9-4.32,7,7,0,0,1,2.43-4.33,7.16,7.16,0,0,1,4.74-1.63,5.12,5.12,0,0,1,4.14,1.63,5.05,5.05,0,0,1,.89,4.33m-9,0a3.48,3.48,0,0,0,.32,2.56,2.2,2.2,0,0,0,2,.92,3.17,3.17,0,0,0,2.3-.92,4.58,4.58,0,0,0,1.23-2.56,3.44,3.44,0,0,0-.32-2.55,2.22,2.22,0,0,0-2-.91,3.16,3.16,0,0,0-2.3.92,4.57,4.57,0,0,0-1.22,2.55"/></clipPath><clipPath id="clip-path-10"><path class="cls-1" d="M194.58-168.2h5.72q2.59,0,3.53,1t.54,3.24l-1.29,7.29h-3l1.22-6.92q.23-1.29-.1-1.67a2.11,2.11,0,0,0-1.54-.38h-2.44l-1.58,9h-3Z"/></clipPath><clipPath id="clip-path-11"><path class="cls-1" d="M207.71-165.91h-2.19l.4-2.29h2.19l.21-1.18a3.86,3.86,0,0,1,1.07-2.37,4.22,4.22,0,0,1,2.6-.61h2.88l-.39,2.22H213a2.17,2.17,0,0,0-1.15.24,1.12,1.12,0,0,0-.47.79l-.16.92h2.88l-.4,2.29h-2.88l-1.62,9.21h-3.15Z"/></clipPath><clipPath id="clip-path-12"><path class="cls-1" d="M251.43-168.2h5.72q2.59,0,3.53,1t.54,3.24l-1.29,7.29h-3l1.22-6.92q.23-1.29-.1-1.67a2.11,2.11,0,0,0-1.54-.38H254l-1.58,9h-3Z"/></clipPath><clipPath id="clip-path-13"><path class="cls-1" d="M268.67-159.16h3.23l-.43,2.46h-4.13a8,8,0,0,1-2.52-.33,3.51,3.51,0,0,1-1.57-1.05,4.44,4.44,0,0,1-.91-1.92,6.1,6.1,0,0,1,0-2.4,7.78,7.78,0,0,1,.89-2.49,6.77,6.77,0,0,1,1.6-1.94,5.66,5.66,0,0,1,2-1.05,9.13,9.13,0,0,1,2.61-.32h4.13l-.44,2.48h-3.23a5,5,0,0,0-3.08.74,4,4,0,0,0-1.26,2.58,3.84,3.84,0,0,0,0,1.75,2,2,0,0,0,.83,1.12,2,2,0,0,0,.74.29,9.86,9.86,0,0,0,1.6.09"/></clipPath><clipPath id="clip-path-14"><path class="cls-1" d="M175-159.16h3.23l-.43,2.46h-4.13a8,8,0,0,1-2.52-.33,3.51,3.51,0,0,1-1.57-1.05,4.44,4.44,0,0,1-.91-1.92,6.1,6.1,0,0,1,0-2.4,7.78,7.78,0,0,1,.89-2.49,6.77,6.77,0,0,1,1.6-1.94,5.66,5.66,0,0,1,2-1.05,9.13,9.13,0,0,1,2.61-.32h4.13l-.44,2.48h-3.23a5,5,0,0,0-3.08.74,4,4,0,0,0-1.26,2.58,3.84,3.84,0,0,0,0,1.75,2,2,0,0,0,.83,1.12,2,2,0,0,0,.74.29,9.85,9.85,0,0,0,1.6.09"/></clipPath><clipPath id="clip-path-15"><path class="cls-1" d="M225.27-166.75a3.75,3.75,0,0,0-1.21-.92,7.07,7.07,0,0,0-2.82-.41h-1.5a8.14,8.14,0,0,0-3.54.7,5.5,5.5,0,0,0-2.5,2.53,8.67,8.67,0,0,0-.76,2.4,5.1,5.1,0,0,0,.73,4.29,3.41,3.41,0,0,0,1.12.89,7.54,7.54,0,0,0,2.93.31h4.44l.11-.61.31-1.71h-4c-1.14,0-1.87,0-2.16-.31s-.39-.62-.27-1.55h9.55c.12-.46.22-.84.3-1.27.35-1.89.13-3.38-.67-4.35m-2.47,3.31h-6.29a2.61,2.61,0,0,1,.91-1.77,4,4,0,0,1,2.31-.55h.64a3.19,3.19,0,0,1,2.13.55c.32.31.42.85.3,1.77"/></clipPath><clipPath id="clip-path-16"><path class="cls-1" d="M368.35-161.31a5.29,5.29,0,0,1,1.86-3.51,7.25,7.25,0,0,1,4.32-1.06h2.11a4,4,0,0,0,2.08-.41,2,2,0,0,0,.81-1.39,1.48,1.48,0,0,0-.29-1.45,3.16,3.16,0,0,0-2-.41H369.8l.47-2.69h8.93a9.65,9.65,0,0,1,1.74.12,2.78,2.78,0,0,1,1,.4,2.82,2.82,0,0,1,1.2,1.58,5.35,5.35,0,0,1,.05,2.49,5.43,5.43,0,0,1-1.8,3.39,5.65,5.65,0,0,1-3.71,1.16h-3a3.39,3.39,0,0,0-2.06.51,2.66,2.66,0,0,0-.88,1.73l-.28,1.56h10.14l-.47,2.68H367.52Z"/></clipPath><clipPath id="clip-path-17"><path class="cls-1" d="M389.92-156.2q-4,0-5.56-2t-.85-6a10,10,0,0,1,3-6.07,9.22,9.22,0,0,1,6.25-2q4,0,5.53,2t.84,6.07a10,10,0,0,1-3,6,9.19,9.19,0,0,1-6.23,2m.43-2.58a4.7,4.7,0,0,0,3.52-1.32,7.64,7.64,0,0,0,1.78-4.1,6,6,0,0,0-.34-4.11,3.31,3.31,0,0,0-3-1.33,4.67,4.67,0,0,0-3.51,1.33A7.71,7.71,0,0,0,387-164.2a6,6,0,0,0,.33,4.1,3.3,3.3,0,0,0,3,1.32"/></clipPath><clipPath id="clip-path-18"><polygon class="cls-1" points="403.29 -172.24 400.87 -170.61 400.13 -166.5 402.57 -168.07 400.53 -156.48 403.97 -156.48 406.72 -172.24 403.29 -172.24"/></clipPath><clipPath id="clip-path-19"><path class="cls-1" d="M235.62-167.49a3.34,3.34,0,0,0-2.4-.58h-5.11l-2,11.12h3l1.52-8.94.39,0s1.37.12,1.59.37a2.42,2.42,0,0,1,.13,1.75l0,.28h2.9l.34-1.86a2.46,2.46,0,0,0-.32-2.19"/></clipPath><clipPath id="clip-path-20"><path class="cls-1" d="M248.41-166.75a3.75,3.75,0,0,0-1.21-.92,7.07,7.07,0,0,0-2.82-.41h-1.5a8.14,8.14,0,0,0-3.54.7,5.5,5.5,0,0,0-2.5,2.53,8.68,8.68,0,0,0-.76,2.4,5.1,5.1,0,0,0,.73,4.29,3.41,3.41,0,0,0,1.12.89,7.54,7.54,0,0,0,2.93.31h4.44l.11-.61.31-1.71h-4c-1.14,0-1.87,0-2.16-.31s-.39-.62-.27-1.55h9.55c.12-.46.22-.84.3-1.27.35-1.89.13-3.38-.67-4.35m-2.47,3.31h-6.29a2.61,2.61,0,0,1,.91-1.77,4,4,0,0,1,2.31-.55h.64a3.19,3.19,0,0,1,2.13.55c.32.31.42.85.3,1.77"/></clipPath><clipPath id="clip-path-21"><path class="cls-1" d="M285.71-166.75a3.76,3.76,0,0,0-1.21-.92,7.07,7.07,0,0,0-2.82-.41h-1.5a8.14,8.14,0,0,0-3.54.7,5.5,5.5,0,0,0-2.5,2.53,8.67,8.67,0,0,0-.76,2.4,5.1,5.1,0,0,0,.73,4.29,3.41,3.41,0,0,0,1.12.89,7.54,7.54,0,0,0,2.93.31h4.44l.11-.61.31-1.71h-4c-1.14,0-1.87,0-2.16-.31s-.39-.62-.27-1.55h9.55c.12-.46.22-.84.3-1.27.35-1.89.13-3.38-.67-4.35m-2.47,3.31H277a2.61,2.61,0,0,1,.91-1.77,4,4,0,0,1,2.31-.55h.64a3.19,3.19,0,0,1,2.13.55c.32.31.42.85.3,1.77"/></clipPath><clipPath id="clip-path-22"><polygon class="cls-1" points="418.67 -169.57 408.65 -169.57 409.12 -172.24 422.98 -172.24 422.51 -169.57 410.83 -156.6 406.65 -156.6 418.67 -169.57"/></clipPath><clipPath id="clip-path-23"><polygon class="cls-1" points="294.2 -172.24 297.49 -172.24 296.17 -164.71 303.67 -172.24 307.62 -172.24 299.98 -164.58 304.92 -156.56 300.71 -156.56 296.1 -164.36 294.73 -156.56 291.44 -156.56 294.2 -172.24"/></clipPath><clipPath id="clip-path-24"><path class="cls-1" d="M311.87-68.54l-33-.08a19.34,19.34,0,0,0-19.39,19.29V-45l.26,15q0,2.08,0,4.16c0,2.84-.8,6.47-4.28,7.87-1.65.67-3.46-.18-4.9-1.24l-5.21,6.26c7,5.16,15.07,5.41,20.71.08,4.93-4.65,5-8.06,5.06-14.32a4.55,4.55,0,0,1,3.17,4.35l0,19.65,7.3,0,6.3,0,0-13.56,25,.06,0,13.56,15,0,.12-49.43a16.12,16.12,0,0,0-16.08-16.16M273.56-41.87a3.2,3.2,0,0,1-3.19-3.21,3.2,3.2,0,0,1,3.21-3.19,3.2,3.2,0,0,1,3.19,3.21,3.2,3.2,0,0,1-3.21,3.19m10.19,15.59a1.14,1.14,0,0,1-1.13-1.14,1.14,1.14,0,0,1,1.14-1.13,17,17,0,0,0,12.07-5,17,17,0,0,0,5-12A1.14,1.14,0,0,1,302-46.7a1.14,1.14,0,0,1,1.13,1.14,19.33,19.33,0,0,1-19.38,19.28"/></clipPath></defs><title>icon_ribbon</title><g id="レイヤー_8" data-name="レイヤー 8"><polygon class="cls-25" points="6.24 9.15 9.87 7.94 12.29 7.94 9.26 21.26 6.24 18.84 2 20.05 6.24 9.15"/><polygon class="cls-25" points="20.55 9.15 16.92 7.94 14.5 7.94 17.53 21.26 20.55 18.84 24.79 20.05 20.55 9.15"/><rect class="cls-26" x="11.68" y="2.42" width="3.63" height="4.84"/><polygon class="cls-25" points="10.47 2.42 0 0 0 9.68 10.47 7.26 10.47 2.42"/><polygon class="cls-25" points="16.53 2.42 27 0 27 9.68 16.53 7.26 16.53 2.42"/></g></svg>