<svg xmlns="http://www.w3.org/2000/svg" viewBox="0 0 1024 768"><defs><style>.cls-1{fill:#f4f3f5;}.cls-2{fill:#dcc9f0;}.cls-25,.cls-3,.cls-4,.cls-5,.cls-7,.cls-8{fill:#9067ca;}.cls-21,.cls-4{font-size:15px;}.cls-4,.cls-8{font-family:HiraKakuPro-W6-83pv-RKSJ-H, Hiragino Kaku Gothic Pro;}.cls-5,.cls-8{font-size:12px;}.cls-21,.cls-5,.cls-7{font-family:HiraKakuPro-W3-83pv-RKSJ-H, Hiragino Kaku Gothic Pro;}.cls-6{letter-spacing:0.25em;}.cls-7{font-size:10px;}.cls-10,.cls-11,.cls-12,.cls-13,.cls-14,.cls-15,.cls-16,.cls-17,.cls-18,.cls-19,.cls-9{fill:none;stroke-linecap:square;}.cls-11,.cls-12,.cls-13,.cls-14,.cls-16,.cls-17,.cls-18,.cls-19,.cls-9{stroke:gray;}.cls-10,.cls-11,.cls-12,.cls-13,.cls-14,.cls-15,.cls-16,.cls-17,.cls-18,.cls-19,.cls-24,.cls-9{stroke-miterlimit:10;}.cls-15,.cls-9{stroke-width:6px;}.cls-10{stroke:#fff;}.cls-10,.cls-11,.cls-12,.cls-13,.cls-14,.cls-16,.cls-17,.cls-18,.cls-19{stroke-width:4px;}.cls-11{stroke-dasharray:10 15;}.cls-12{stroke-dasharray:9.9 14.85;}.cls-13{stroke-dasharray:10.11 15.16;}.cls-14{stroke-dasharray:9.92 14.88;}.cls-15{stroke:#b2b2b2;}.cls-17{stroke-dasharray:10.18 15.26;}.cls-18{stroke-dasharray:9.85 14.77;}.cls-19{stroke-dasharray:10.1 15.15;}.cls-20{fill:#87819b;}.cls-21,.cls-22,.cls-23,.cls-24{fill:#fff;}.cls-22{font-size:16.99px;}.cls-22,.cls-23{font-family:FontAwesome, FontAwesome;}.cls-23{font-size:20px;}.cls-24{stroke:#9067ca;stroke-width:0.87px;}.cls-25{fill-rule:evenodd;}</style></defs><title>img_map</title><g id="路線"><g id="区域"><polygon class="cls-1" points="350.5 -26.5 379.5 -26.5 372.5 9.5 421.5 374.5 421.5 621.5 103.5 850.5 84.5 850.5 261.5 185.5 350.5 -26.5"/><polygon class="cls-1" points="389.5 69.5 396.5 62.5 486.5 52.5 531.5 345.5 531.5 356.5 433.5 374.5 389.5 69.5"/><polygon class="cls-1" points="432.5 621.5 436.5 389.5 531.5 374.5 563.5 498.5 577.5 513.5 593.5 521.5 432.5 621.5"/><path class="cls-1" d="M547.5,370.5l149-24,6-6,19,98-113,67s-11,9-22-4S547.5,370.5,547.5,370.5Z"/><polygon class="cls-1" points="547.5 352.5 538.5 277.5 581.5 270.5 597.5 343.5 547.5 352.5"/><polygon class="cls-1" points="608.5 340.5 649.5 335.5 629.5 191.5 581.5 201.5 608.5 340.5"/><polygon class="cls-1" points="581.5 258.5 547.5 42.5 505.5 48.5 500.5 56.5 538.5 266.5 581.5 258.5"/><polygon class="cls-1" points="559.5 38.5 599.5 32.5 619.5 147.5 576.5 154.5 559.5 38.5"/><polygon class="cls-1" points="578.5 166.5 622.5 158.5 626.5 181.5 582.5 191.5 578.5 166.5"/><polygon class="cls-1" points="634.5 157.5 659.5 334.5 686.5 331.5 699.5 323.5 694.5 317.5 666.5 153.5 634.5 157.5"/><polygon class="cls-1" points="631.5 146.5 662.5 142.5 643.5 28.5 611.5 31.5 631.5 146.5"/><polygon class="cls-1" points="20.5 80.5 26.5 47.5 82.5 24.5 82.5 80.5 20.5 80.5"/><polygon class="cls-1" points="95.5 80.5 92.5 24.5 103.5 7.5 132.5 -3.5 150.5 80.5 95.5 80.5"/><polygon class="cls-1" points="150.5 0.5 164.5 74.5 218.5 63.5 203.5 -13.5 150.5 0.5"/><polygon class="cls-1" points="229.5 68.5 222.5 38.5 278.5 32.5 282.5 65.5 229.5 68.5"/><polygon class="cls-1" points="291.5 63.5 282.5 -20.5 336.5 -26.5 291.5 63.5"/><polygon class="cls-1" points="222.5 27.5 275.5 18.5 271.5 -19.5 213.5 -15.5 222.5 27.5"/><polygon class="cls-1" points="164.5 84.5 218.5 74.5 227.5 121.5 170.5 130.5 164.5 84.5"/><polygon class="cls-1" points="237.5 118.5 231.5 80.5 282.5 74.5 286.5 80.5 269.5 118.5 237.5 118.5"/><polygon class="cls-1" points="10.5 137.5 153.5 122.5 150.5 92.5 20.5 92.5 10.5 137.5"/><polygon class="cls-1" points="3.5 272.5 10.5 147.5 153.5 133.5 159.5 213.5 167.5 278.5 150.5 278.5 150.5 284.5 3.5 272.5"/><polygon class="cls-1" points="3.5 280.5 153.5 292.5 158.5 286.5 167.5 284.5 170.5 306.5 158.5 414.5 147.5 451.5 -7.5 473.5 3.5 280.5"/><polygon class="cls-1" points="-7.5 524.5 63.5 516.5 60.5 480.5 -7.5 489.5 -7.5 524.5"/><polygon class="cls-1" points="81.5 514.5 78.5 477.5 140.5 467.5 127.5 510.5 81.5 514.5"/><polygon class="cls-1" points="184.5 270.5 177.5 209.5 227.5 204.5 184.5 270.5"/><path class="cls-1" d="M171.5,147.5l91-14-15,45s-5,7-10,9-63,7-63,7Z"/><polygon class="cls-1" points="184.5 301.5 250.5 199.5 181.5 448.5 165.5 448.5 184.5 301.5"/><polygon class="cls-1" points="159.5 467.5 174.5 464.5 140.5 601.5 113.5 601.5 159.5 467.5"/><path class="cls-1" d="M144.5,613.5l-66,249h-15l-3-73s-1-15,3-28,46-148,46-148Z"/><polygon class="cls-1" points="81.5 524.5 91.5 601.5 97.5 601.5 122.5 520.5 81.5 524.5"/><polygon class="cls-1" points="-4.5 535.5 63.5 527.5 75.5 604.5 -0.5 621.5 -4.5 535.5"/><polygon class="cls-1" points="-0.5 630.5 38.5 621.5 38.5 636.5 -0.5 639.5 -0.5 630.5"/><polygon class="cls-1" points="48.5 633.5 48.5 621.5 94.5 613.5 88.5 633.5 48.5 633.5"/><polygon class="cls-1" points="46.5 644.5 84.5 644.5 78.5 668.5 42.5 668.5 46.5 644.5"/><polygon class="cls-1" points="-0.5 644.5 35.5 644.5 32.5 668.5 -0.5 668.5 -0.5 644.5"/><polygon class="cls-1" points="-0.5 677.5 32.5 677.5 27.5 713.5 -0.5 713.5 -0.5 677.5"/><polygon class="cls-1" points="38.5 713.5 42.5 677.5 75.5 677.5 63.5 710.5 38.5 713.5"/><polygon class="cls-1" points="32.5 768.5 38.5 723.5 60.5 720.5 48.5 760.5 32.5 768.5"/><polygon class="cls-1" points="-0.5 724.5 27.5 724.5 22.5 768.5 -0.5 768.5 -0.5 724.5"/><polygon class="cls-1" points="371.5 -56.5 356.5 -31.5 381.5 -31.5 372.5 9.5 379.75 63.5 389.5 52.5 490.5 42.5 472.5 -45.5 465.5 -72.5 371.5 -56.5"/><polygon class="cls-1" points="480.5 -56.5 497.5 36.5 619.5 18.5 642.5 18.5 615.5 -62.5 480.5 -56.5"/><polygon class="cls-1" points="715.5 12.5 669.5 15.5 653.45 -40.51 715.5 12.5"/><path class="cls-1" d="M672.5,25.5l40-3s23,24,28,41,6,19,6,19l-62,13Z"/><polygon class="cls-1" points="684.5 103.5 695.5 158.5 721.5 314.5 756.5 308.5 743.5 238.5 766.5 196.5 749.5 93.5 684.5 103.5"/><polygon class="cls-1" points="717.5 330.5 760 320 777 412 895 425 905.3 442.68 917 486 917 650 904 683 833 693 817 662 738 440 717.5 330.5"/><polygon class="cls-1" points="775.5 -56.5 772.5 8.5 787.5 28.5 1001.5 -8.5 1001.5 -68.5 775.5 -56.5"/><path class="cls-1" d="M793.5,36.5l13,22s15-3,33-6,43,18,43,18l35-6,7-6-7-40Z"/><polygon class="cls-1" points="927.5 15.5 1001.5 0.5 1001.5 44.5 935.5 54.5 927.5 15.5"/><path class="cls-1" d="M830.5,108.5l46-10,11-8s-17-18-24-23-25-5-25-5l-27,5Z"/><polygon class="cls-1" points="955.5 62.5 1001.5 58.5 1001.5 118.5 975.5 124.5 955.5 62.5"/><polygon class="cls-1" points="978.5 136.5 983.5 153.5 1001.5 148.5 1001.5 133.5 978.5 136.5"/><path class="cls-1" d="M945.5,65.5l26,89-32,12s-4-23-12-33-29-42-29-42Z"/><path class="cls-1" d="M835.5,120.5s16-9,24-9,20-3,20-3l11-7s19,21,27,35,10,30,10,30l-74,9Z"/><polygon class="cls-1" points="856.5 186.5 887.5 180.5 893.5 222.5 868.5 229.5 856.5 186.5"/><path class="cls-1" d="M926.5,468.5s12,35,12,51-6,95-6,95l128-116s-14-67-14-85,27-86,27-86L1057,299Z"/><path class="cls-1" d="M938.5,678.5l-12-23s33-38,42-46,105-101,105-101,22,37,22,43,15,117,15,117Z"/><polygon class="cls-1" points="697.5 776.5 730.5 833.5 857.5 754.5 808.5 717.5 697.5 776.5"/><polygon class="cls-1" points="853.5 707.5 1116.5 681.5 1119.5 799.5 940.5 809.5 853.5 707.5"/><rect class="cls-1" x="448.4" y="558.28" width="266.33" height="127.28" transform="translate(-241.03 402.06) rotate(-31.96)"/><path class="cls-1" d="M903.5,220.5l-5-40,33-5s2,22,11,30,13,12,13,12Z"/><path class="cls-1" d="M942.5,175.5l33-9,11,54s-20-8-30-16S942.5,175.5,942.5,175.5Z"/><polygon class="cls-1" points="983.5 163.5 1001.5 158.5 1017.5 249.5 996.5 229.5 983.5 163.5"/><path class="cls-1" d="M872.5,237.5l92-13s13,2,26,13,21,29,21,29-57,2-76,4-51,13-51,13Z"/><path class="cls-1" d="M887.5,294.5l30,126s94-77,100-86,16-23,16-23l-16-34S935.5,275.5,887.5,294.5Z"/><polygon class="cls-1" points="130 862 412 656 531 834 178.34 944.84 130 862"/></g><g id="グランフロント"><path class="cls-2" d="M446,399l78-10,17,54,14,55s-39,13-74-17S446,399,446,399Z"/><polygon class="cls-2" points="416 171 503.63 164 531 345 447 356 439 353 416 171"/><polygon class="cls-3" points="393 74 401.69 61.92 458.2 55.65 463 63 471 141 404 149 393 74"/><polygon class="cls-3" points="460 403 467 459 524 453 518 396 460 403"/><polygon class="cls-3" points="446 290 504 285 510 343 453 348 446 290"/><polygon class="cls-3" points="444 178 450 227 495 222 490 173.18 444 178"/><text class="cls-4" transform="translate(423.02 252.79)">グランフロント<tspan x="37.5" y="20.25">北館</tspan></text><text class="cls-5" transform="translate(482.52 474.79)">グランフロント<tspan x="30" y="16.25">南館</tspan></text><text class="cls-5" transform="translate(391.17 207.37)">タワ<tspan class="cls-6" x="24" y="0">ー</tspan><tspan x="39" y="0">C</tspan></text><text class="cls-5" transform="translate(328.21 112.37)">オーナーズ<tspan x="12" y="21">タワー</tspan></text><text class="cls-5" transform="translate(397.44 324.37)">タワ<tspan class="cls-6" x="24" y="0">ー</tspan><tspan x="39" y="0">B</tspan></text><text class="cls-5" transform="translate(406.21 436.37)">タワ<tspan class="cls-6" x="24" y="0">ー</tspan><tspan x="39" y="0">A</tspan></text></g><g id="建物"><polygon class="cls-2" points="454 627 473.5 665.62 683.24 535.5 665 504 454 627"/><path class="cls-2" d="M577,720l32,50,92-55s5-6,5-12-29-49.09-29-49.09Z"/><polygon class="cls-2" points="510 55 538 51 548 118 521 122 510 55"/><path class="cls-2" d="M789,568l27,78,24,30s52-1,59-9,8-55,8-55l-37-2-3-102Z"/><path class="cls-2" d="M573,443l13,39s2,9,8,12,101-51,101-51,10-5,5-31-15-23-15-23l-35,23-41,7Z"/><text class="cls-5" transform="translate(592.21 448.37)">ヨドバシカメラ</text><text class="cls-7" transform="translate(524.04 77.37)">JR<tspan x="-8.83" y="15">西日本</tspan><tspan x="-3.83" y="30">ビル</tspan></text><polygon class="cls-2" points="387 1 389 12 397 12 399 21 482 6 478 -16 387 1"/><polygon class="cls-2" points="397 33 463 21 463 37 401 49 397 33"/><text class="cls-8" transform="translate(615.94 396.37)">P</text><text class="cls-5" transform="translate(541.6 575.79)">LUCUA</text><text class="cls-5" transform="translate(464.52 607.79)">コナミ<tspan x="-24" y="16.25">スポーツクラブ</tspan></text><text class="cls-5" transform="translate(649.52 714.79)">大丸</text><text class="cls-5" transform="translate(818.52 588.79)">阪急<tspan x="-6" y="16.25">百貨店</tspan></text></g><path class="cls-9" d="M170.5,970.5s104-107,162-148S678,600,717,579s106.29-69.47,153-95c86-47,164-100,217-194"/><path class="cls-10" d="M170.5,970.5s104-107,162-148S678,600,717,579s106.29-69.47,153-95c86-47,164-100,217-194"/><path class="cls-11" d="M184.54,956.26c30.36-30.5,103-102,148-133.76C390.5,781.5,678,600,717,579s106.29-69.47,153-95c82.65-45.17,157.91-95.88,210.69-183.19"/><path class="cls-9" d="M170.5,953.5S272,840,330,799,671.5,587.5,710.5,566.5s129.79-70,176.5-95.5c86-47,141-87,194-181"/><path class="cls-10" d="M170.5,953.5S272,840,330,799,671.5,587.5,710.5,566.5s129.79-70,176.5-95.5c86-47,141-87,194-181"/><path class="cls-12" d="M183.86,938.82c29.46-32,101-107.9,146.14-139.82,58-41,341.5-211.5,380.5-232.5s129.79-70,176.5-95.5c82.64-45.17,136.66-83.87,187.78-170.24"/><path class="cls-9" d="M165,915s102-94,160-135S672,564,711,543s129.29-55.47,176-81c86-47,146.5-97.5,199.5-191.5"/><path class="cls-10" d="M165,915s102-94,160-135S672,564,711,543s129.29-55.47,176-81c86-47,146.5-97.5,199.5-191.5"/><path class="cls-13" d="M179.9,901.43C210.35,873.89,280.58,811.4,325,780c58-41,347-216,386-237s129.29-55.47,176-81c82.61-45.15,141.7-93.53,193.2-180.6"/><path class="cls-9" d="M170.5,903.5s104-107,162-148,339-218,378-239,131.29-35.47,178-61c86-47,145-106,198-200"/><path class="cls-10" d="M170.5,903.5s104-107,162-148,339-218,378-239,131.29-35.47,178-61c86-47,145-106,198-200"/><path class="cls-14" d="M184.46,889.35c30.31-30.46,103-102,148-133.85,58-41,339-218,378-239s131.29-35.47,178-61c82.66-45.17,140.38-101.44,191.8-189.21"/><path class="cls-15" d="M863,308s-28.33-10.47-47-79S788,93,763,53c-50.88-81.41-83.82-88-154-170"/><path class="cls-10" d="M863,308s-28.33-10.47-47-79S788,93,763,53c-50.88-81.41-83.82-88-154-170"/><path class="cls-16" d="M863,308a23,23,0,0,1-4.35-2.45"/><path class="cls-17" d="M847.42,295.27c-9.56-11-21.78-30.88-31.42-66.27-18.67-68.53-28-136-53-176-48.84-78.14-81.14-87.37-145.71-160.46"/><path class="cls-15" d="M836,299s11.67-10.47-7-79S796,87,771,47c-50.88-81.41-78.82-91-149-173"/><path class="cls-10" d="M836,299s11.67-10.47-7-79S796,87,771,47c-50.88-81.41-78.82-91-149-173"/><path class="cls-16" d="M836,299s1.13-1,2.13-4.48"/><path class="cls-18" d="M839.59,279.87C839.43,268.08,837,249.38,829,220c-18.67-68.53-33-133-58-173-48.88-78.2-76.58-90.15-140.89-163.63"/><path class="cls-15" d="M788,247s19.09,68.08.42-.45S777,119.34,757,70C721-19,647.18-35,577-117"/><path class="cls-10" d="M788,247s19.09,68.08.42-.45S777,119.34,757,70C721-19,647.18-35,577-117"/><path class="cls-16" d="M788,247l1.35,4.81"/><path class="cls-19" d="M793.47,266.39c3.73,13.13,6.2,21.46-5.05-19.85C769.75,178,777,119.34,757,70,722.42-15.48,653-33.64,585.34-107.58"/></g><g id="駅"><polygon class="cls-20" points="898.73 431.74 790.11 455.05 752.09 242.7 770.38 207.12 838.89 191.95 898.73 431.74"/><polygon class="cls-20" points="459 666.06 510 757 700 636 691 615 721.5 589.4 685.8 524.3 459 666.06"/><polygon class="cls-20" points="744 581 716 510 766 490 793 556 744 581"/><g id="テキスト"><g id="梅田"><text class="cls-21"><tspan x="734.16" y="548.91">梅田駅</tspan></text><text class="cls-22" transform="translate(747.99 526.57) scale(1.18 1)"></text></g><g id="梅田-2" data-name="梅田"><text class="cls-21" transform="translate(571.16 653.91)">大阪駅</text><text class="cls-22" transform="translate(584.99 630.57) scale(1.18 1)"></text></g><g id="阪急梅田"><text class="cls-21" transform="translate(806.66 351.91)">阪急<tspan x="-7.5" y="15">梅田駅</tspan></text><text class="cls-23" transform="translate(812.99 329.22)"></text></g></g><text class="cls-5" transform="translate(274.21 310.37)">うめきたガーデン</text></g><g id="レイヤー_6" data-name="レイヤー 6"><path class="cls-24" d="M514.09,137.53A41.55,41.55,0,0,1,483,177.75c-3.33.86-10.41,27.54-10.41,27.54s-5.67-26.52-8.37-27.07a41.53,41.53,0,1,1,49.9-40.69Z"/><path class="cls-25" d="M471.73,116.74a2.48,2.48,0,0,0-2.33,3.32L461.6,123a3.4,3.4,0,1,0,.61,2.6l26.58,4.31c0,.16,0,.32,0,.47l-28.79,4.68a6.74,6.74,0,1,0-.7,5.43l11.94,7a9.19,9.19,0,1,0,2.09-4.5l-13.32-4a6.58,6.58,0,0,0,.27-1.37l28.6-6.78a4.89,4.89,0,1,0,.09-2.64l-26.76-2.82c0-.11,0-.21,0-.32a3.38,3.38,0,0,0-.27-1.33l7.49-3.41a2.48,2.48,0,1,0,2.24-3.54Z"/></g></svg>