<svg xmlns="http://www.w3.org/2000/svg" viewBox="0 0 1024 768"><defs><style>.cls-1{fill:#f4f3f5;}.cls-2{fill:#e5dfef;}.cls-3{fill:#a69dc9;}.cls-16,.cls-17,.cls-33,.cls-4,.cls-5,.cls-8{fill:#9067ca;}.cls-29,.cls-5{font-size:15px;}.cls-13,.cls-17,.cls-5{font-family:HiraKakuPro-W6-83pv-RKSJ-H, Hiragino Kaku Gothic Pro;}.cls-5{letter-spacing:-0.02em;}.cls-6{letter-spacing:0.04em;}.cls-7{letter-spacing:0.06em;}.cls-16,.cls-17,.cls-8{font-size:12px;}.cls-11,.cls-14,.cls-16,.cls-29,.cls-8{font-family:HiraKakuPro-W3-83pv-RKSJ-H, Hiragino Kaku Gothic Pro;}.cls-8{letter-spacing:-0.08em;}.cls-9{letter-spacing:0.06em;}.cls-10{letter-spacing:-0.04em;}.cls-11{font-size:11px;}.cls-11,.cls-14,.cls-29,.cls-30,.cls-31,.cls-32{fill:#fff;}.cls-12{letter-spacing:-0.04em;}.cls-14{font-size:10px;}.cls-15{letter-spacing:-0.04em;}.cls-18,.cls-19,.cls-20,.cls-21,.cls-22,.cls-23,.cls-24,.cls-25,.cls-26,.cls-27{fill:none;stroke-linecap:square;}.cls-18,.cls-20,.cls-21,.cls-22,.cls-23,.cls-24,.cls-25,.cls-26,.cls-27{stroke:gray;}.cls-18,.cls-19,.cls-20,.cls-21,.cls-22,.cls-23,.cls-24,.cls-25,.cls-26,.cls-27,.cls-32{stroke-miterlimit:10;}.cls-18{stroke-width:6px;}.cls-19{stroke:#fff;}.cls-19,.cls-20,.cls-21,.cls-22,.cls-23,.cls-24,.cls-25,.cls-26,.cls-27{stroke-width:4px;}.cls-20{stroke-dasharray:9.97 14.96;}.cls-21{stroke-dasharray:10.01 15.01;}.cls-22{stroke-dasharray:9.93 14.89;}.cls-23{stroke-dasharray:9.94 14.92;}.cls-25{stroke-dasharray:9.85 14.77;}.cls-26{stroke-dasharray:9.98 14.96;}.cls-27{stroke-dasharray:10.27 15.41;}.cls-28{fill:#c6c6ce;}.cls-30{font-size:16.99px;}.cls-30,.cls-31{font-family:FontAwesome, FontAwesome;}.cls-31{font-size:20px;}.cls-32{stroke:#9067ca;}.cls-33{fill-rule:evenodd;}</style></defs><title>img_map</title><g id="路線"><g id="区域"><polygon class="cls-1" points="350.5 -26.5 379.5 -26.5 372.5 9.5 421.5 374.5 421.5 621.5 103.5 850.5 84.5 850.5 261.5 185.5 350.5 -26.5"/><polygon class="cls-1" points="389.5 69.5 394.5 62.5 486.5 52.5 532.5 354.5 433.5 368.5 389.5 69.5"/><polygon class="cls-1" points="432.5 617.5 434.5 389.5 533.5 374.5 563.5 498.5 577.5 513.5 590.5 520.5 432.5 617.5"/><path class="cls-1" d="M547.5,370.5l155-30,19,98-113,67s-11,9-22-4S547.5,370.5,547.5,370.5Z"/><polygon class="cls-1" points="545.5 352.5 536.5 277.5 581.5 270.5 597.5 343.5 545.5 352.5"/><polygon class="cls-1" points="606.5 341.5 646.5 334.5 625.5 191.5 583.5 199.5 606.5 341.5"/><polygon class="cls-1" points="579.5 258.5 547.5 42.5 505.5 48.5 500.5 56.5 533.5 265.5 579.5 258.5"/><polygon class="cls-1" points="559.5 38.5 599.5 32.5 619.5 147.5 576.5 154.5 559.5 38.5"/><polygon class="cls-1" points="578.5 164.5 620.5 158.5 624.5 181.5 582.5 188.5 578.5 164.5"/><polygon class="cls-1" points="633.5 157.5 658.5 332.5 699.5 323.5 666.5 153.5 633.5 157.5"/><polygon class="cls-1" points="631.5 146.5 662.5 142.5 643.5 28.5 611.5 31.5 631.5 146.5"/><polygon class="cls-1" points="20.5 80.5 26.5 47.5 82.5 24.5 82.5 80.5 20.5 80.5"/><polygon class="cls-1" points="95.5 80.5 91.5 21.5 103.5 7.5 132.5 -3.5 149.5 77.5 95.5 80.5"/><polygon class="cls-1" points="150.5 0.5 164.5 71.5 218.5 65.5 203.5 -13.5 150.5 0.5"/><polygon class="cls-1" points="228.5 63.5 224.5 36.5 277.5 28.5 281.5 57.5 228.5 63.5"/><polygon class="cls-1" points="291.5 63.5 282.5 -20.5 336.5 -26.5 291.5 63.5"/><polygon class="cls-1" points="222.5 27.5 275.5 18.5 271.5 -19.5 213.5 -15.5 222.5 27.5"/><polygon class="cls-1" points="164.5 86.5 218.5 79.5 227.5 121.5 170.5 130.5 164.5 86.5"/><polygon class="cls-1" points="237.5 118.5 231.5 77.5 282.5 71.5 287.5 77.5 269.5 118.5 237.5 118.5"/><polygon class="cls-1" points="10.5 137.5 153.5 122.5 150.5 87.5 20.5 92.5 10.5 137.5"/><polygon class="cls-1" points="3.5 272.5 10.5 147.5 153.5 133.5 159.5 213.5 167.5 278.5 150.5 278.5 150.5 284.5 3.5 272.5"/><polygon class="cls-1" points="3.5 280.5 153.5 292.5 158.5 286.5 167.5 284.5 170.5 306.5 147.5 451.5 -7.5 473.5 3.5 280.5"/><polygon class="cls-1" points="-7.5 524.5 63.5 516.5 60.5 480.5 -7.5 489.5 -7.5 524.5"/><polygon class="cls-1" points="81.5 514.5 78.5 477.5 140.5 467.5 127.5 510.5 81.5 514.5"/><polygon class="cls-1" points="184.5 270.5 177.5 209.5 227.5 204.5 184.5 270.5"/><path class="cls-1" d="M171.5,147.5l91-14-15,45s-5,7-10,9-63,7-63,7Z"/><polygon class="cls-1" points="186.5 300.5 250.5 199.5 181.5 448.5 165.5 448.5 186.5 300.5"/><polygon class="cls-1" points="159.5 467.5 174.5 464.5 140.5 601.5 113.5 601.5 159.5 467.5"/><path class="cls-1" d="M138.5,610.5l-66,249-9,3-3-73s-1-15,3-28,49-152,49-152Z"/><polygon class="cls-1" points="81.5 524.5 91.5 601.5 97.5 601.5 122.5 520.5 81.5 524.5"/><polygon class="cls-1" points="-4.5 535.5 63.5 527.5 75.5 604.5 -0.5 621.5 -4.5 535.5"/><polygon class="cls-1" points="-0.5 630.5 38.5 621.5 38.5 636.5 -0.5 639.5 -0.5 630.5"/><polygon class="cls-1" points="48.5 633.5 48.5 621.5 94.5 613.5 88.5 633.5 48.5 633.5"/><polygon class="cls-1" points="46.5 644.5 84.5 644.5 78.5 668.5 42.5 668.5 46.5 644.5"/><polygon class="cls-1" points="-0.5 644.5 35.5 644.5 32.5 668.5 -0.5 668.5 -0.5 644.5"/><polygon class="cls-1" points="-0.5 677.5 32.5 677.5 27.5 713.5 -0.5 713.5 -0.5 677.5"/><polygon class="cls-1" points="38.5 713.5 42.5 677.5 75.5 677.5 63.5 710.5 38.5 713.5"/><polygon class="cls-1" points="32.5 768.5 38.5 723.5 60.5 720.5 48.5 760.5 32.5 768.5"/><polygon class="cls-1" points="-0.5 724.5 27.5 724.5 22.5 768.5 -0.5 768.5 -0.5 724.5"/><polygon class="cls-1" points="371.5 -56.5 356.5 -31.5 381.5 -31.5 372.5 9.5 379.75 63.5 389.5 52.5 483.5 42.5 465.5 -72.5 371.5 -56.5"/><polygon class="cls-1" points="480.5 -56.5 497.5 36.5 642.5 18.5 615.5 -62.5 480.5 -56.5"/><polygon class="cls-1" points="715.5 12.5 669.5 15.5 653.45 -40.51 715.5 12.5"/><path class="cls-1" d="M672.5,25.5l40-3s23,24,28,41,6,20,6,20l-62,9Z"/><polygon class="cls-1" points="686.5 103.5 721.5 314.5 754.5 308.5 742.5 237.5 766.5 196.5 749.5 93.5 686.5 103.5"/><polygon class="cls-1" points="717.5 330.5 760 320 777 412 898 420 917 486 917 650 904 683 833 693 817 662 738 440 717.5 330.5"/><polygon class="cls-1" points="775.5 -56.5 772.5 8.5 787.5 28.5 1001.5 -8.5 1001.5 -68.5 775.5 -56.5"/><path class="cls-1" d="M793.5,36.5l13,22s15-3,33-6,43,18,43,18l35-6,7-6-7-40Z"/><polygon class="cls-1" points="927.5 15.5 1001.5 0.5 1001.5 44.5 935.5 54.5 927.5 15.5"/><path class="cls-1" d="M829.5,111.5l58-21s-17-18-24-23-25-5-25-5l-27,5Z"/><polygon class="cls-1" points="955.5 62.5 1001.5 58.5 1001.5 118.5 975.5 124.5 955.5 62.5"/><polygon class="cls-1" points="978.5 136.5 983.5 153.5 1001.5 148.5 1001.5 133.5 978.5 136.5"/><path class="cls-1" d="M945.5,65.5l26,89-32,12s-4-23-12-33-29-42-29-42Z"/><path class="cls-1" d="M834.5,120.5l56-19s19,21,27,35,10,30,10,30l-74,9Z"/><polygon class="cls-1" points="856.5 186.5 887.5 180.5 893.5 222.5 868.5 226.5 856.5 186.5"/><path class="cls-1" d="M926.5,468.5s12,35,12,51-6,95-6,95l128-116s-14-67-14-85,27-86,27-86L1057,299Z"/><path class="cls-1" d="M938.5,678.5l-12-23s33-38,42-46,105-101,105-101,22,37,22,43,15,117,15,117Z"/><polygon class="cls-1" points="697.5 776.5 730.5 833.5 857.5 754.5 808.5 717.5 697.5 776.5"/><polygon class="cls-1" points="853.5 707.5 1116.5 681.5 1119.5 799.5 940.5 809.5 853.5 707.5"/><polygon class="cls-1" points="728.23 605.43 504.26 746.4 443.9 638.4 660.87 500.44 728.23 605.43"/><path class="cls-1" d="M903.5,220.5l-5-40,33-5s2,22,11,30,13,12,13,12Z"/><path class="cls-1" d="M942.5,175.5l33-9,11,54s-20-8-30-16S942.5,175.5,942.5,175.5Z"/><polygon class="cls-1" points="983.5 163.5 1001.5 158.5 1017.5 249.5 996.5 229.5 983.5 163.5"/><path class="cls-1" d="M871.5,237.5l93-13s13,2,26,13,21,29,21,29-43.5.5-69,4c-22.95,3.15-58,13-58,13Z"/><path class="cls-1" d="M887.5,294.5l30,126s94-77,100-86,16-23,16-23l-16-34S935.5,275.5,887.5,294.5Z"/><polygon class="cls-1" points="130 862 412 656 531 834 178.34 944.84 130 862"/></g><g id="グランフロント"><path class="cls-2" d="M446,400l82-12,27,110s-39,13-74-17S446,400,446,400Z"/><polygon class="cls-2" points="410 172 501.63 161 530 345 446 357 436 351 410 172"/><polygon class="cls-2" points="395 75 401.69 65.92 458.2 59.65 463 67 471 145 406 152 395 75"/><polygon class="cls-3" points="469 408 474 452 522 447 517 402 469 408"/><polygon class="cls-3" points="446 292 504 284 511 340 453 348 446 292"/><polygon class="cls-4" points="434 179 439 228 495 222 490 173.18 434 179"/><text class="cls-5" transform="translate(423.82 252.79)">グランフロント<tspan class="cls-6"><tspan x="35.4" y="18.25">北</tspan><tspan class="cls-7" x="51" y="18.25">館</tspan></tspan></text><text class="cls-8" transform="translate(468.4 466.79)">グランフロント<tspan class="cls-9"><tspan x="26.76" y="16.25">南</tspan><tspan class="cls-10" x="39.48" y="16.25">館</tspan></tspan></text><text class="cls-11" transform="translate(447.93 200.37)"><tspan class="cls-12">タ</tspan><tspan x="10.56" y="0">ワー</tspan><tspan class="cls-13"><tspan x="11.92" y="13">C</tspan></tspan></text><text class="cls-14" transform="translate(463.41 311.37)"><tspan class="cls-15">タ</tspan><tspan x="9.6" y="0">ワー</tspan><tspan class="cls-13"><tspan x="11.03" y="13">B</tspan></tspan></text><text class="cls-14" transform="translate(480.41 425.37)"><tspan class="cls-15">タ</tspan><tspan x="9.6" y="0">ワー</tspan><tspan class="cls-13"><tspan x="10.76" y="13">A</tspan></tspan></text></g><g id="建物"><polygon class="cls-2" points="443 639 471.5 686.62 683.24 535.5 661 500 443 639"/><path class="cls-2" d="M577,721l32,44,88-58s5-6,5-12-24-39.09-24-39.09Z"/><polygon class="cls-2" points="790 568 818 646 835 685 896 678 907 612 870 610 867 508 790 568"/><path class="cls-2" d="M573,443l13,39s5,15,11,18,95-54,95-54a34.94,34.94,0,0,0,6-27c-3-16-13-30-13-30Z"/><text class="cls-16" transform="translate(590.21 449.37)">ヨドバシカメラ</text><text class="cls-17" transform="translate(615.94 396.37)">P</text><text class="cls-16" transform="translate(539.6 576.79)">LUCUA</text><text class="cls-16" transform="translate(627.52 715.79)">大丸</text><text class="cls-16" transform="translate(824.52 588.79)">阪急<tspan x="-6" y="16.25">百貨店</tspan></text></g><path class="cls-18" d="M170.5,970.5s104-107,162-148S678,596,717,575s106.29-55.47,153-81c86-47,164-102,217-196"/><path class="cls-19" d="M170.5,970.5s104-107,162-148S678,596,717,575s106.29-55.47,153-81c86-47,164-102,217-196"/><path class="cls-20" d="M184.51,956.3c30.34-30.49,103-102,148-133.8C390.5,781.5,678,596,717,575s106.29-55.47,153-81c82.66-45.17,157.92-97.74,210.71-185.21"/><path class="cls-18" d="M170.5,953.5S272,840,330,799,671.5,581.5,710.5,560.5s129.79-64,176.5-89.5c86-47,144-100,202-191"/><path class="cls-19" d="M170.5,953.5S272,840,330,799,671.5,581.5,710.5,560.5s129.79-64,176.5-89.5c86-47,144-100,202-191"/><path class="cls-21" d="M184,938.71C213.49,906.6,284.9,830.88,330,799c58-41,341.5-217.5,380.5-238.5s129.79-64,176.5-89.5c82.64-45.16,139.42-95.86,195.19-180.5"/><path class="cls-18" d="M165,915s102-94,160-135S672,564,711,543s128.29-57.47,175-83c88.17-48.19,145.33-99.65,200.5-197.5"/><path class="cls-19" d="M165,915s102-94,160-135S672,564,711,543s128.29-57.47,175-83c88.17-48.19,145.33-99.65,200.5-197.5"/><path class="cls-22" d="M179.7,901.61C210,874.16,280.48,811.47,325,780c58-41,347-216,386-237s128.29-57.47,175-83c84.87-46.38,141-95.8,194.29-186.7"/><path class="cls-18" d="M170.5,903.5s104-107,162-148,336.39-213.82,378-229c41.25-15,129.59-52.54,178-79,86-47,145-108,198-202"/><path class="cls-19" d="M170.5,903.5s104-107,162-148,336.39-213.82,378-229c41.25-15,129.59-52.54,178-79,86-47,145-108,198-202"/><path class="cls-23" d="M184.48,889.33c30.32-30.47,103-102,148-133.83,58-41,336.39-213.82,378-229,41.25-15,129.59-52.54,178-79,82.66-45.17,140.37-103.28,191.79-191.18"/><path class="cls-18" d="M835,312s-2.33-10.47-21-79S777.65,76.64,762,49C732-4,690-50,620-117"/><path class="cls-19" d="M835,312s-2.33-10.47-21-79S777.65,76.64,762,49C732-4,690-50,620-117"/><path class="cls-24" d="M835,312s-.24-1.09-1.19-4.85"/><path class="cls-25" d="M830.1,292.86C827,281.07,822,262.36,814,233c-18.67-68.53-36.35-156.36-52-184C733.3-1.71,693.61-46,628.94-108.41"/><path class="cls-18" d="M845,301S797.91,87.23,775,46c-40-72-59.82-81-130-163"/><path class="cls-19" d="M845,301S797.91,87.23,775,46c-40-72-59.82-81-130-163"/><path class="cls-24" d="M845,301s-.38-1.72-1.08-4.88"/><path class="cls-26" d="M840.62,281.53C828.42,227.87,793.67,79.61,775,46c-38.41-69.13-58.21-80.2-121.84-153.54"/><path class="cls-18" d="M805,285S777,119.34,757,70C721-19,648-48,588-97"/><path class="cls-19" d="M805,285S777,119.34,757,70C721-19,648-48,588-97"/><path class="cls-24" d="M805,285s-.29-1.74-.85-4.92"/><path class="cls-27" d="M801.48,264.9C793.34,219.26,772.68,108.75,757,70,723-14.12,655.89-44.64,598-89.11"/></g><g id="駅"><polygon class="cls-28" points="898.73 421.74 790.11 455.05 752.09 242.7 770.38 207.12 838.89 191.95 898.73 421.74"/><polygon class="cls-28" points="459 666.06 510 757 700 636 690 618 722.5 596.4 676.8 525.3 459 666.06"/><polygon class="cls-28" points="743.36 583 710 510.98 763.79 482 799 552.53 743.36 583"/><g id="テキスト"><g id="梅田"><text class="cls-29"><tspan x="733.16" y="546.91">梅田駅</tspan></text><text class="cls-30" transform="translate(746.99 524.57) scale(1.18 1)"></text></g><g id="梅田-2" data-name="梅田"><text class="cls-29" transform="translate(571.16 653.91)">大阪駅</text><text class="cls-30" transform="translate(584.99 630.57) scale(1.18 1)"></text></g><g id="阪急梅田"><text class="cls-29" transform="translate(805.66 320.91)">阪急<tspan x="-7.5" y="17">梅田駅</tspan></text><text class="cls-31" transform="translate(811.99 298.22)"></text></g></g></g><g id="レイヤー_6" data-name="レイヤー 6"><path class="cls-32" d="M503.53,121.86a41.55,41.55,0,0,1-31.44,40c-3.33.83-10.63,23.46-10.63,23.46s-5.45-22.56-8.15-23.14a41.53,41.53,0,1,1,50.22-40.29Z"/><path class="cls-33" d="M461.16,101.74a2.48,2.48,0,0,0-2.33,3.32L451,108a3.4,3.4,0,1,0,.61,2.6l26.58,4.31c0,.16,0,.32,0,.47l-28.79,4.68a6.74,6.74,0,1,0-.7,5.43l11.94,7a9.19,9.19,0,1,0,2.09-4.5l-13.32-4a6.58,6.58,0,0,0,.27-1.37l28.6-6.78a4.89,4.89,0,1,0,.09-2.64l-26.76-2.82c0-.11,0-.21,0-.32a3.38,3.38,0,0,0-.27-1.33l7.49-3.41a2.48,2.48,0,1,0,2.24-3.54Z"/></g></svg>