<svg xmlns="http://www.w3.org/2000/svg" viewBox="0 0 155.25 123.58"><defs><style>.cls-1{fill:#fff;fill-rule:evenodd;}</style></defs><title>logo-white</title><g id="レイヤー_4" data-name="レイヤー 4"><path class="cls-1" d="M75.13,0a7.41,7.41,0,0,0-7,9.92L44.89,18.69a10.16,10.16,0,1,0,1.84,7.77l79.39,12.89c0,.47.07.94.14,1.4l-86,14A20.52,20.52,0,0,0,20.57,40.47a20.08,20.08,0,1,0,0,40.15,20.66,20.66,0,0,0,17.6-9.68L73.83,91.76a27.45,27.45,0,1,0,6.23-13.45l-39.8-12a19.67,19.67,0,0,0,.8-4.11L126.5,42a14.62,14.62,0,1,0,.26-7.87L46.83,25.68c0-.31,0-.63,0-1a10.1,10.1,0,0,0-.81-4L68.43,10.58A7.41,7.41,0,1,0,75.13,0Z"/></g></svg>