<?xml version="1.0" encoding="utf-8"?>
<!-- Generator: Adobe Illustrator 21.1.0, SVG Export Plug-In . SVG Version: 6.00 Build 0)  -->
<svg version="1.1" id="icon" xmlns="http://www.w3.org/2000/svg" xmlns:xlink="http://www.w3.org/1999/xlink" x="0px" y="0px"
	 viewBox="0 0 54.9 54.4" style="enable-background:new 0 0 54.9 54.4;" xml:space="preserve">
<style type="text/css">
	.st0{fill:#9067CA;}
	.st1{enable-background:new    ;}
	.st2{fill:#9B9B9B;}
</style>
<path id="zou" class="st0" d="M22.5,40.2c0-0.4,0.3-0.7,0.7-0.7c2.7,0,5.2-1.1,7-2.9c1.8-1.8,2.9-4.3,2.9-7c0-0.4,0.3-0.7,0.7-0.7
	c0.4,0,0.7,0.3,0.7,0.7c0,6.2-5.1,11.2-11.2,11.2C22.8,40.8,22.5,40.6,22.5,40.2z M15.4,29.9c0-1,0.8-1.9,1.9-1.9
	c1,0,1.9,0.8,1.9,1.9c0,1-0.8,1.9-1.9,1.9C16.2,31.8,15.4,31,15.4,29.9z M20.3,16.3c-6.2,0-11.2,5-11.3,11.2L9,30l0.2,8.7
	c0,0.8,0,1.6,0,2.4c0,1.7-0.5,3.8-2.5,4.6c-1,0.4-2-0.1-2.8-0.7l-3,3.6c4.1,3,8.7,3.1,12,0c2.9-2.7,2.9-4.7,2.9-8.3
	c1.1,0.3,1.8,1.3,1.8,2.5l0,11.4l4.2,0l3.7,0l0-7.9l14.5,0l0,7.9l8.7,0l0.1-28.7c0-5.2-4.2-9.4-9.3-9.4L20.3,16.3z"/>
<g id="text" class="st1">
	<path class="st2" d="M1.4,5.4V8H0V0.9h2.4c0.4,0,0.7,0.1,1,0.2c0.3,0.1,0.6,0.3,0.8,0.5C4.5,1.7,4.7,2,4.8,2.2S5,2.8,5,3.2
		c0,0.3-0.1,0.6-0.2,0.9S4.5,4.6,4.3,4.8C4.1,5,3.8,5.1,3.5,5.2s-0.7,0.2-1,0.2H1.4z M1.4,4.3h1.1c0.2,0,0.4,0,0.5-0.1
		S3.2,4.1,3.3,4s0.2-0.2,0.2-0.3c0-0.1,0.1-0.3,0.1-0.4c0-0.2,0-0.3-0.1-0.5S3.4,2.5,3.3,2.4S3.1,2.2,2.9,2.1S2.6,2,2.4,2H1.4V4.3z"
		/>
	<path class="st2" d="M9.1,8C9,7.9,9,7.9,9,7.8s0-0.2-0.1-0.3C8.8,7.6,8.8,7.7,8.7,7.7S8.5,7.9,8.3,7.9C8.2,8,8.1,8,7.9,8.1
		c-0.1,0-0.3,0-0.5,0C7.2,8.1,7,8.1,6.7,8S6.3,7.8,6.2,7.7S5.9,7.3,5.8,7.2C5.7,7,5.6,6.7,5.6,6.5c0-0.6,0.2-1,0.6-1.3
		c0.4-0.3,1-0.5,1.9-0.5h0.8V4.5c0-0.3-0.1-0.5-0.2-0.6C8.5,3.7,8.2,3.6,7.9,3.6c-0.3,0-0.5,0.1-0.6,0.2C7.2,3.9,7.1,4.1,7.1,4.3
		H5.8c0-0.2,0-0.4,0.1-0.6s0.2-0.4,0.4-0.5S6.8,2.8,7,2.8C7.3,2.7,7.6,2.6,8,2.6c0.3,0,0.6,0,0.9,0.1s0.5,0.2,0.7,0.3
		s0.4,0.3,0.5,0.6c0.1,0.2,0.2,0.5,0.2,0.8v2.3c0,0.3,0,0.5,0.1,0.7s0.1,0.3,0.2,0.5V8H9.1z M7.8,7C7.9,7,8,7,8.1,7s0.2-0.1,0.3-0.1
		s0.2-0.1,0.2-0.2c0.1-0.1,0.1-0.1,0.2-0.2V5.6H8.2c-0.2,0-0.4,0-0.5,0.1c-0.1,0-0.3,0.1-0.4,0.2C7.2,5.9,7.1,6,7.1,6.1
		C7,6.2,7,6.3,7,6.4c0,0.2,0.1,0.3,0.2,0.5S7.5,7,7.8,7z"/>
	<path class="st2" d="M11.4,5.3c0-0.4,0-0.8,0.1-1.1s0.2-0.6,0.4-0.9s0.4-0.4,0.7-0.6s0.6-0.2,0.9-0.2c0.3,0,0.6,0.1,0.8,0.2
		s0.4,0.3,0.6,0.4L15,2.7h1.2v5.1c0,0.4-0.1,0.7-0.2,1s-0.3,0.5-0.5,0.7S15,9.8,14.7,9.9c-0.3,0.1-0.6,0.1-1,0.1c-0.2,0-0.3,0-0.5,0
		s-0.4-0.1-0.5-0.2s-0.3-0.2-0.5-0.3c-0.2-0.1-0.3-0.2-0.4-0.4l0.6-0.8c0.2,0.2,0.4,0.3,0.6,0.4C13.2,9,13.4,9,13.6,9
		c0.4,0,0.7-0.1,0.9-0.3c0.2-0.2,0.3-0.5,0.3-0.9V7.5c-0.2,0.2-0.3,0.3-0.6,0.4s-0.5,0.1-0.7,0.1c-0.3,0-0.6-0.1-0.9-0.2
		c-0.3-0.1-0.5-0.3-0.7-0.6s-0.3-0.5-0.4-0.8c-0.1-0.3-0.1-0.7-0.1-1.1V5.3z M12.8,5.4c0,0.2,0,0.4,0.1,0.6c0,0.2,0.1,0.4,0.2,0.5
		c0.1,0.1,0.2,0.3,0.3,0.3S13.7,7,13.9,7c0.2,0,0.4,0,0.6-0.1s0.3-0.2,0.4-0.4V4.2c-0.1-0.2-0.2-0.3-0.4-0.4
		c-0.2-0.1-0.3-0.1-0.6-0.1c-0.2,0-0.4,0-0.5,0.1c-0.1,0.1-0.3,0.2-0.3,0.3c-0.1,0.1-0.2,0.3-0.2,0.5c0,0.2-0.1,0.4-0.1,0.6V5.4z"/>
	<path class="st2" d="M19.9,8.1c-0.4,0-0.8-0.1-1.1-0.2S18.2,7.6,18,7.4c-0.2-0.2-0.4-0.5-0.5-0.8c-0.1-0.3-0.2-0.6-0.2-1V5.3
		c0-0.4,0.1-0.8,0.2-1.1c0.1-0.3,0.3-0.6,0.5-0.9s0.5-0.4,0.8-0.6s0.7-0.2,1-0.2c0.4,0,0.7,0.1,1,0.2c0.3,0.1,0.6,0.3,0.8,0.5
		s0.4,0.5,0.5,0.8c0.1,0.3,0.2,0.7,0.2,1.1v0.6h-3.6c0,0.2,0.1,0.3,0.2,0.5c0.1,0.1,0.2,0.3,0.3,0.4s0.3,0.2,0.4,0.2S19.8,7,20,7
		c0.1,0,0.3,0,0.4,0s0.3-0.1,0.4-0.1c0.1-0.1,0.2-0.1,0.3-0.2s0.2-0.2,0.3-0.3l0.7,0.7c-0.1,0.1-0.2,0.2-0.3,0.4
		c-0.1,0.1-0.3,0.2-0.5,0.3C21.1,7.9,20.9,8,20.7,8S20.2,8.1,19.9,8.1z M19.8,3.7c-0.2,0-0.3,0-0.4,0.1C19.2,3.9,19.1,3.9,19,4
		s-0.2,0.2-0.2,0.4s-0.1,0.3-0.1,0.5h2.2V4.8c0-0.1,0-0.3-0.1-0.4S20.6,4.1,20.6,4c-0.1-0.1-0.2-0.2-0.3-0.2
		C20.1,3.7,19.9,3.7,19.8,3.7z"/>
	<path class="st2" d="M43.9,2h-2.2v6h-1.4V2h-2.2V0.9h5.7V2z"/>
	<path class="st2" d="M44,5.3c0-0.4,0.1-0.7,0.2-1.1c0.1-0.3,0.3-0.6,0.5-0.9s0.5-0.4,0.8-0.6s0.7-0.2,1.1-0.2
		c0.4,0,0.8,0.1,1.1,0.2c0.3,0.1,0.6,0.3,0.8,0.6s0.4,0.5,0.5,0.9C48.9,4.6,49,4.9,49,5.3v0.1c0,0.4-0.1,0.7-0.2,1.1
		c-0.1,0.3-0.3,0.6-0.5,0.9c-0.2,0.2-0.5,0.4-0.8,0.6c-0.3,0.1-0.7,0.2-1.1,0.2c-0.4,0-0.8-0.1-1.1-0.2c-0.3-0.1-0.6-0.3-0.8-0.6
		s-0.4-0.5-0.5-0.9C44,6.2,44,5.8,44,5.4V5.3z M45.3,5.4c0,0.2,0,0.4,0.1,0.6c0,0.2,0.1,0.4,0.2,0.5c0.1,0.1,0.2,0.3,0.4,0.3
		S46.3,7,46.5,7c0.2,0,0.4,0,0.5-0.1c0.1-0.1,0.3-0.2,0.3-0.3c0.1-0.1,0.2-0.3,0.2-0.5c0-0.2,0.1-0.4,0.1-0.6V5.3
		c0-0.2,0-0.4-0.1-0.6c0-0.2-0.1-0.4-0.2-0.5S47.1,3.9,47,3.8c-0.1-0.1-0.3-0.1-0.5-0.1c-0.2,0-0.4,0-0.5,0.1
		c-0.1,0.1-0.3,0.2-0.4,0.3c-0.1,0.1-0.2,0.3-0.2,0.5c0,0.2-0.1,0.4-0.1,0.6V5.4z"/>
	<path class="st2" d="M54.9,5.4c0,0.4,0,0.7-0.1,1.1s-0.2,0.6-0.4,0.9c-0.2,0.2-0.4,0.4-0.6,0.6c-0.3,0.1-0.6,0.2-0.9,0.2
		c-0.3,0-0.5,0-0.7-0.1s-0.4-0.2-0.6-0.4V10h-1.4V2.7h1.3l0,0.5c0.2-0.2,0.4-0.3,0.6-0.5c0.2-0.1,0.5-0.2,0.8-0.2
		c0.3,0,0.6,0.1,0.9,0.2c0.3,0.1,0.5,0.3,0.6,0.5c0.2,0.2,0.3,0.5,0.4,0.8c0.1,0.3,0.1,0.7,0.1,1.1V5.4z M53.6,5.3
		c0-0.2,0-0.4-0.1-0.6c0-0.2-0.1-0.4-0.2-0.5C53.2,4,53.1,3.9,53,3.8s-0.3-0.1-0.5-0.1c-0.2,0-0.4,0-0.6,0.1
		c-0.2,0.1-0.3,0.2-0.4,0.4v2.2c0.1,0.2,0.2,0.3,0.4,0.4C52.1,7,52.3,7,52.5,7c0.2,0,0.4,0,0.5-0.1s0.2-0.2,0.3-0.3
		c0.1-0.1,0.1-0.3,0.2-0.5c0-0.2,0.1-0.4,0.1-0.6V5.3z"/>
</g>
<path id="allow" class="st0" d="M35.4,5.2c0,0.2-0.1,0.4-0.2,0.6l-0.5,0.5c-0.2,0.2-0.4,0.3-0.6,0.3c-0.2,0-0.4-0.1-0.6-0.3l-2-2
	v4.7c0,0.2-0.1,0.4-0.3,0.6c-0.2,0.1-0.4,0.2-0.6,0.2h-0.9c-0.2,0-0.4-0.1-0.6-0.2c-0.2-0.1-0.3-0.3-0.3-0.6V4.4l-2,2
	c-0.2,0.2-0.4,0.3-0.6,0.3s-0.4-0.1-0.6-0.3l-0.5-0.5c-0.2-0.2-0.3-0.4-0.3-0.6c0-0.2,0.1-0.4,0.3-0.6l4.4-4.4
	C29.7,0.1,29.9,0,30.1,0c0.2,0,0.4,0.1,0.6,0.2l4.4,4.4C35.3,4.8,35.4,5,35.4,5.2z"/>
</svg>
