<svg xmlns="http://www.w3.org/2000/svg" xmlns:xlink="http://www.w3.org/1999/xlink" viewBox="0 0 299.48 19.84"><defs><style>.cls-1,.cls-2{fill:none;}.cls-1{clip-rule:evenodd;}.cls-3{clip-path:url(#clip-path);}.cls-4{clip-path:url(#clip-path-2);}.cls-5{fill:#9067ca;}.cls-6{clip-path:url(#clip-path-3);}.cls-7{clip-path:url(#clip-path-5);}.cls-8{clip-path:url(#clip-path-7);}.cls-9{clip-path:url(#clip-path-9);}.cls-10{clip-path:url(#clip-path-11);}.cls-11{clip-path:url(#clip-path-13);}.cls-12{clip-path:url(#clip-path-15);}.cls-13{clip-path:url(#clip-path-17);}.cls-14{clip-path:url(#clip-path-19);}.cls-15{clip-path:url(#clip-path-21);}.cls-16{clip-path:url(#clip-path-23);}.cls-17{clip-path:url(#clip-path-25);}.cls-18{clip-path:url(#clip-path-27);}.cls-19{clip-path:url(#clip-path-29);}.cls-20{clip-path:url(#clip-path-31);}.cls-21{clip-path:url(#clip-path-33);}.cls-22{clip-path:url(#clip-path-35);}.cls-23{clip-path:url(#clip-path-37);}.cls-24{clip-path:url(#clip-path-39);}.cls-25{clip-path:url(#clip-path-41);}.cls-26{clip-path:url(#clip-path-43);}.cls-27{clip-path:url(#clip-path-45);}</style><clipPath id="clip-path"><path class="cls-1" d="M184.34,3.94h6.23A4.42,4.42,0,0,1,193.93,5a3.6,3.6,0,0,1,.63,3.21l-1.27,7.21h-8.17a3.18,3.18,0,0,1-2.49-.86,2.79,2.79,0,0,1-.49-2.45,4.13,4.13,0,0,1,1.56-2.82,6.42,6.42,0,0,1,3.67-.85h4l.05-.29a1.4,1.4,0,0,0-.35-1.44A3.59,3.59,0,0,0,189,6.31h-5.08Zm2.42,9.19h3.81l.42-2.38H187.4a3,3,0,0,0-1.52.29,1.4,1.4,0,0,0-.58,1,.86.86,0,0,0,.18.85A2.23,2.23,0,0,0,186.76,13.13Z"/></clipPath><clipPath id="clip-path-2"><rect class="cls-2" x="-294" y="-19.65" width="1607" height="2460"/></clipPath><clipPath id="clip-path-3"><path class="cls-1" d="M197.14,3.94h5.72q2.59,0,3.53,1t.54,3.24l-1.29,7.29h-3l1.22-6.92q.23-1.29-.1-1.67a2.11,2.11,0,0,0-1.54-.38h-2.44l-1.58,9h-3Z"/></clipPath><clipPath id="clip-path-5"><path class="cls-1" d="M208,13h6.41a2.51,2.51,0,0,0,1.29-.27,1.18,1.18,0,0,0,.54-.85.82.82,0,0,0-.24-.86,2,2,0,0,0-1.19-.27h-2.62q-2.34,0-3-.71a2.88,2.88,0,0,1-.37-2.54,4.18,4.18,0,0,1,1.47-2.73,5.22,5.22,0,0,1,3.23-.87H220l-.42,2.4h-5.36a4.33,4.33,0,0,0-1.75.23,1.07,1.07,0,0,0-.54.82.77.77,0,0,0,.21.78,1.67,1.67,0,0,0,1,.25H216a3.62,3.62,0,0,1,2.72.88,2.8,2.8,0,0,1,.54,2.54,4.57,4.57,0,0,1-1.34,2.6,3.44,3.44,0,0,1-2.44,1h-7.85Z"/></clipPath><clipPath id="clip-path-7"><path class="cls-1" d="M222.38,3.94h6.23A4.42,4.42,0,0,1,232,5a3.6,3.6,0,0,1,.63,3.21l-1.27,7.21h-8.17a3.18,3.18,0,0,1-2.49-.86,2.79,2.79,0,0,1-.49-2.45,4.13,4.13,0,0,1,1.56-2.82,6.42,6.42,0,0,1,3.67-.85h4l.05-.29a1.4,1.4,0,0,0-.35-1.44A3.59,3.59,0,0,0,227,6.31H222Zm2.42,9.19h3.81l.42-2.38h-3.58a3,3,0,0,0-1.52.29,1.4,1.4,0,0,0-.58,1,.86.86,0,0,0,.18.85A2.23,2.23,0,0,0,224.8,13.13Z"/></clipPath><clipPath id="clip-path-9"><path class="cls-1" d="M236.34,15.81h-3.19l2-11.5h3.19ZM238.6,3h-3.19l.5-2.86h3.19Z"/></clipPath><clipPath id="clip-path-11"><path class="cls-1" d="M2.76,4.17H8.62a4.57,4.57,0,0,1,3.85,1.56,5.34,5.34,0,0,1,.72,4.34,7.62,7.62,0,0,1-.68,2.1,7,7,0,0,1-1.25,1.74,5.39,5.39,0,0,1-2,1.36,8.35,8.35,0,0,1-2.84.41H3.77L3,19.84H0Zm2.6,2.48L4.21,13.21H6.06a4.13,4.13,0,0,0,2.75-.78A4.29,4.29,0,0,0,10,9.84a3.13,3.13,0,0,0-.27-2.47,2.89,2.89,0,0,0-2.31-.72Z"/></clipPath><clipPath id="clip-path-13"><path class="cls-1" d="M16.39,0h3l-.74,4.17h2.7q2.54,0,3.5,1a3.58,3.58,0,0,1,.57,3.21l-1.29,7.29H21.09l1.22-6.94a2.06,2.06,0,0,0-.15-1.61,2,2,0,0,0-1.52-.43H18.22l-1.58,9h-3Z"/></clipPath><clipPath id="clip-path-15"><path class="cls-1" d="M28.24,4.17H34.1a4.57,4.57,0,0,1,3.85,1.56,5.34,5.34,0,0,1,.72,4.34,7.6,7.6,0,0,1-.68,2.1,7,7,0,0,1-1.25,1.74,5.39,5.39,0,0,1-2,1.36,8.35,8.35,0,0,1-2.84.41H29.25l-.73,4.17h-3Zm2.6,2.48-1.16,6.56h1.85a4.13,4.13,0,0,0,2.75-.78,4.29,4.29,0,0,0,1.23-2.59,3.13,3.13,0,0,0-.27-2.47,2.89,2.89,0,0,0-2.31-.72Z"/></clipPath><clipPath id="clip-path-17"><path class="cls-1" d="M68.64,9.93a7,7,0,0,1-2.41,4.32,7.12,7.12,0,0,1-4.73,1.62,5.17,5.17,0,0,1-4.17-1.62,5,5,0,0,1-.9-4.32,7,7,0,0,1,2.43-4.33A7.16,7.16,0,0,1,63.6,4a5.12,5.12,0,0,1,4.14,1.63,5.05,5.05,0,0,1,.89,4.33m-9,0a3.48,3.48,0,0,0,.32,2.56,2.2,2.2,0,0,0,2,.92,3.17,3.17,0,0,0,2.3-.92,4.58,4.58,0,0,0,1.23-2.56,3.44,3.44,0,0,0-.32-2.55,2.22,2.22,0,0,0-2-.91,3.16,3.16,0,0,0-2.3.92,4.57,4.57,0,0,0-1.22,2.55"/></clipPath><clipPath id="clip-path-19"><path class="cls-1" d="M71.08,4.17h5.72q2.59,0,3.53,1t.54,3.24l-1.29,7.29h-3l1.22-6.92q.23-1.29-.1-1.67a2.11,2.11,0,0,0-1.54-.38H73.67l-1.58,9H69Z"/></clipPath><clipPath id="clip-path-21"><path class="cls-1" d="M84.21,6.46H82l.4-2.29h2.19L84.82,3A3.86,3.86,0,0,1,85.89.61,4.22,4.22,0,0,1,88.49,0h2.88L91,2.22H89.54a2.17,2.17,0,0,0-1.15.24,1.12,1.12,0,0,0-.47.79l-.16.92h2.88l-.4,2.29H87.35l-1.62,9.21H82.58Z"/></clipPath><clipPath id="clip-path-23"><path class="cls-1" d="M127.93,4.17h5.72q2.59,0,3.53,1t.54,3.24l-1.29,7.29h-3l1.22-6.92q.23-1.29-.1-1.67A2.11,2.11,0,0,0,133,6.7h-2.44l-1.58,9h-3Z"/></clipPath><clipPath id="clip-path-25"><path class="cls-1" d="M145.17,13.21h3.23L148,15.67h-4.13a8,8,0,0,1-2.52-.33,3.51,3.51,0,0,1-1.57-1.05,4.44,4.44,0,0,1-.91-1.92,6.1,6.1,0,0,1,0-2.4,7.78,7.78,0,0,1,.89-2.49,6.77,6.77,0,0,1,1.6-1.94,5.66,5.66,0,0,1,2-1.05,9.13,9.13,0,0,1,2.61-.32H150l-.44,2.48h-3.23a5,5,0,0,0-3.08.74A4,4,0,0,0,142,10a3.84,3.84,0,0,0,0,1.75,2,2,0,0,0,1.57,1.41,9.86,9.86,0,0,0,1.6.09"/></clipPath><clipPath id="clip-path-27"><path class="cls-1" d="M51.48,13.21h3.23l-.43,2.46H50.15a8,8,0,0,1-2.52-.33,3.51,3.51,0,0,1-1.57-1.05,4.44,4.44,0,0,1-.91-1.92,6.1,6.1,0,0,1,0-2.4A7.78,7.78,0,0,1,46,7.48a6.77,6.77,0,0,1,1.6-1.94,5.66,5.66,0,0,1,2-1.05,9.13,9.13,0,0,1,2.61-.32h4.13l-.44,2.48H52.64a5,5,0,0,0-3.08.74A4,4,0,0,0,48.29,10a3.84,3.84,0,0,0,0,1.75,2,2,0,0,0,1.57,1.41,9.85,9.85,0,0,0,1.6.09"/></clipPath><clipPath id="clip-path-29"><path class="cls-1" d="M101.77,5.62a3.75,3.75,0,0,0-1.21-.92,7.07,7.07,0,0,0-2.82-.41h-1.5a8.14,8.14,0,0,0-3.54.7,5.5,5.5,0,0,0-2.5,2.53,8.67,8.67,0,0,0-.76,2.4,5.1,5.1,0,0,0,.73,4.29,3.41,3.41,0,0,0,1.12.89,7.54,7.54,0,0,0,2.93.31h4.44l.11-.61.31-1.71H95c-1.14,0-1.87,0-2.16-.31s-.39-.62-.27-1.55h9.55c.12-.46.22-.84.3-1.27.35-1.89.13-3.38-.67-4.35M99.3,8.93H93a2.61,2.61,0,0,1,.91-1.77,4,4,0,0,1,2.31-.55h.64A3.19,3.19,0,0,1,99,7.16c.32.31.42.85.3,1.77"/></clipPath><clipPath id="clip-path-31"><path class="cls-1" d="M244.85,11.06a5.29,5.29,0,0,1,1.86-3.51A7.25,7.25,0,0,1,251,6.49h2.11a4,4,0,0,0,2.08-.41A2,2,0,0,0,256,4.68a1.48,1.48,0,0,0-.29-1.45,3.16,3.16,0,0,0-2-.41H246.3l.47-2.69h8.93a9.65,9.65,0,0,1,1.74.12,2.78,2.78,0,0,1,1,.4,2.82,2.82,0,0,1,1.2,1.58,5.35,5.35,0,0,1,.05,2.49,5.43,5.43,0,0,1-1.8,3.39,5.65,5.65,0,0,1-3.71,1.16h-3a3.39,3.39,0,0,0-2.06.51,2.66,2.66,0,0,0-.88,1.73L248,13.07h10.14l-.47,2.68H244Z"/></clipPath><clipPath id="clip-path-33"><path class="cls-1" d="M266.42,16.17q-4,0-5.56-2t-.85-6a10,10,0,0,1,3-6.07,9.22,9.22,0,0,1,6.25-2q4,0,5.53,2t.84,6.07a10,10,0,0,1-3,6,9.19,9.19,0,0,1-6.23,2m.43-2.58a4.7,4.7,0,0,0,3.52-1.32,7.64,7.64,0,0,0,1.78-4.1,6,6,0,0,0-.34-4.11,3.31,3.31,0,0,0-3-1.33,4.67,4.67,0,0,0-3.51,1.33,7.71,7.71,0,0,0-1.78,4.11,6,6,0,0,0,.33,4.1,3.3,3.3,0,0,0,3,1.32"/></clipPath><clipPath id="clip-path-35"><polygon class="cls-1" points="279.79 0.13 277.37 1.76 276.63 5.87 279.07 4.3 277.03 15.89 280.47 15.89 283.22 0.13 279.79 0.13"/></clipPath><clipPath id="clip-path-37"><path class="cls-1" d="M112.12,4.88a3.34,3.34,0,0,0-2.4-.58h-5.11l-2,11.12h3l1.52-8.94.39,0s1.37.12,1.59.37a2.42,2.42,0,0,1,.13,1.75l0,.28h2.9l.34-1.86a2.46,2.46,0,0,0-.32-2.19"/></clipPath><clipPath id="clip-path-39"><path class="cls-1" d="M124.91,5.62a3.75,3.75,0,0,0-1.21-.92,7.07,7.07,0,0,0-2.82-.41h-1.5a8.14,8.14,0,0,0-3.54.7,5.5,5.5,0,0,0-2.5,2.53,8.68,8.68,0,0,0-.76,2.4,5.1,5.1,0,0,0,.73,4.29,3.41,3.41,0,0,0,1.12.89,7.54,7.54,0,0,0,2.93.31h4.44l.11-.61.31-1.71h-4c-1.14,0-1.87,0-2.16-.31s-.39-.62-.27-1.55h9.55c.12-.46.22-.84.3-1.27.35-1.89.13-3.38-.67-4.35m-2.47,3.31h-6.29a2.61,2.61,0,0,1,.91-1.77,4,4,0,0,1,2.31-.55H120a3.19,3.19,0,0,1,2.13.55c.32.31.42.85.3,1.77"/></clipPath><clipPath id="clip-path-41"><path class="cls-1" d="M162.21,5.62A3.76,3.76,0,0,0,161,4.7a7.07,7.07,0,0,0-2.82-.41h-1.5a8.14,8.14,0,0,0-3.54.7,5.5,5.5,0,0,0-2.5,2.53,8.67,8.67,0,0,0-.76,2.4,5.1,5.1,0,0,0,.73,4.29,3.41,3.41,0,0,0,1.12.89,7.54,7.54,0,0,0,2.93.31h4.44l.11-.61.31-1.71h-4c-1.14,0-1.87,0-2.16-.31s-.39-.62-.27-1.55h9.55c.12-.46.22-.84.3-1.27.35-1.89.13-3.38-.67-4.35m-2.47,3.31h-6.29a2.61,2.61,0,0,1,.91-1.77,4,4,0,0,1,2.31-.55h.64a3.19,3.19,0,0,1,2.13.55c.32.31.42.85.3,1.77"/></clipPath><clipPath id="clip-path-43"><polygon class="cls-1" points="295.17 2.8 285.15 2.8 285.62 0.13 299.48 0.13 299.01 2.8 287.33 15.77 283.15 15.77 295.17 2.8"/></clipPath><clipPath id="clip-path-45"><polygon class="cls-1" points="170.7 0.13 173.99 0.13 172.67 7.66 180.17 0.13 184.12 0.13 176.48 7.79 181.42 15.81 177.21 15.81 172.6 8.01 171.23 15.81 167.94 15.81 170.7 0.13"/></clipPath></defs><title>title_header</title><g id="レイヤー_7" data-name="レイヤー 7"><g class="cls-3"><g class="cls-4"><rect class="cls-5" x="177.07" y="-1.06" width="22.59" height="21.5"/></g></g><g class="cls-6"><g class="cls-4"><rect class="cls-5" x="190.11" y="-1.06" width="21.93" height="21.5"/></g></g><g class="cls-7"><g class="cls-4"><rect class="cls-5" x="202.61" y="-1.06" width="22.43" height="21.5"/></g></g><g class="cls-8"><g class="cls-4"><rect class="cls-5" x="215.11" y="-1.06" width="22.59" height="21.5"/></g></g><g class="cls-9"><g class="cls-4"><rect class="cls-5" x="228.15" y="-4.87" width="15.95" height="25.67"/></g></g><g class="cls-10"><g class="cls-4"><rect class="cls-5" x="-5" y="-0.83" width="23.33" height="25.67"/></g></g><g class="cls-11"><g class="cls-4"><rect class="cls-5" x="8.62" y="-5" width="21.92" height="25.67"/></g></g><g class="cls-12"><g class="cls-4"><rect class="cls-5" x="20.48" y="-0.83" width="23.33" height="25.67"/></g></g><g class="cls-13"><g class="cls-4"><rect class="cls-5" x="51.31" y="-1.03" width="22.45" height="21.9"/></g></g><g class="cls-14"><g class="cls-4"><rect class="cls-5" x="64.05" y="-0.83" width="21.93" height="21.5"/></g></g><g class="cls-15"><g class="cls-4"><rect class="cls-5" x="77.02" y="-5" width="19.35" height="25.67"/></g></g><g class="cls-16"><g class="cls-4"><rect class="cls-5" x="120.9" y="-0.83" width="21.93" height="21.5"/></g></g><g class="cls-17"><g class="cls-4"><rect class="cls-5" x="133.71" y="-0.83" width="21.29" height="21.5"/></g></g><g class="cls-18"><g class="cls-4"><rect class="cls-5" x="40.02" y="-0.83" width="21.29" height="21.5"/></g></g><g class="cls-19"><g class="cls-4"><rect class="cls-5" x="84.29" y="-0.7" width="23.31" height="21.12"/></g></g><g class="cls-20"><g class="cls-4"><rect class="cls-5" x="239.02" y="-4.87" width="25.8" height="25.62"/></g></g><g class="cls-21"><g class="cls-4"><rect class="cls-5" x="254.78" y="-4.87" width="26.07" height="26.03"/></g></g><g class="cls-22"><g class="cls-4"><rect class="cls-5" x="271.63" y="-4.87" width="16.59" height="25.76"/></g></g><g class="cls-23"><g class="cls-4"><rect class="cls-5" x="97.59" y="-0.7" width="19.95" height="21.12"/></g></g><g class="cls-24"><g class="cls-4"><rect class="cls-5" x="107.43" y="-0.7" width="23.31" height="21.12"/></g></g><g class="cls-25"><g class="cls-4"><rect class="cls-5" x="144.73" y="-0.7" width="23.31" height="21.12"/></g></g><g class="cls-26"><g class="cls-4"><rect class="cls-5" x="278.15" y="-4.87" width="26.33" height="25.64"/></g></g><g class="cls-27"><g class="cls-4"><rect class="cls-5" x="162.93" y="-4.87" width="26.19" height="25.67"/></g></g></g></svg>