<svg xmlns="http://www.w3.org/2000/svg" xmlns:xlink="http://www.w3.org/1999/xlink" viewBox="0 0 300 129.24"><defs><style>.cls-1{fill:none;clip-rule:evenodd;}.cls-2{fill:#9067ca;}.cls-3{clip-path:url(#clip-path);}.cls-4{clip-path:url(#clip-path-2);}.cls-5{clip-path:url(#clip-path-3);}.cls-6{clip-path:url(#clip-path-4);}.cls-7{clip-path:url(#clip-path-5);}.cls-8{clip-path:url(#clip-path-6);}.cls-9{clip-path:url(#clip-path-7);}.cls-10{clip-path:url(#clip-path-8);}.cls-11{clip-path:url(#clip-path-9);}.cls-12{clip-path:url(#clip-path-10);}.cls-13{clip-path:url(#clip-path-11);}.cls-14{clip-path:url(#clip-path-12);}.cls-15{clip-path:url(#clip-path-13);}.cls-16{clip-path:url(#clip-path-14);}.cls-17{clip-path:url(#clip-path-15);}.cls-18{clip-path:url(#clip-path-16);}.cls-19{clip-path:url(#clip-path-17);}.cls-20{clip-path:url(#clip-path-18);}.cls-21{clip-path:url(#clip-path-19);}.cls-22{clip-path:url(#clip-path-20);}.cls-23{clip-path:url(#clip-path-21);}.cls-24{clip-path:url(#clip-path-22);}.cls-25{clip-path:url(#clip-path-23);}</style><clipPath id="clip-path"><path class="cls-1" d="M629.34-286h6.23a4.42,4.42,0,0,1,3.36,1.08,3.6,3.6,0,0,1,.63,3.21l-1.27,7.21h-8.17a3.18,3.18,0,0,1-2.49-.86,2.79,2.79,0,0,1-.49-2.45,4.13,4.13,0,0,1,1.56-2.82,6.42,6.42,0,0,1,3.67-.85h4l.05-.29a1.4,1.4,0,0,0-.35-1.44,3.59,3.59,0,0,0-2.07-.42h-5.08Zm2.42,9.19h3.81l.42-2.38H632.4a3,3,0,0,0-1.52.29,1.4,1.4,0,0,0-.58,1,.86.86,0,0,0,.18.85A2.23,2.23,0,0,0,631.76-276.77Z"/></clipPath><clipPath id="clip-path-2"><path class="cls-1" d="M642.14-286h5.72q2.59,0,3.53,1t.54,3.24l-1.29,7.29h-3l1.22-6.92q.23-1.29-.1-1.67a2.11,2.11,0,0,0-1.54-.38h-2.44l-1.58,9h-3Z"/></clipPath><clipPath id="clip-path-3"><path class="cls-1" d="M653-276.85h6.41a2.51,2.51,0,0,0,1.29-.27,1.18,1.18,0,0,0,.54-.85.82.82,0,0,0-.24-.86,2,2,0,0,0-1.19-.27h-2.62q-2.34,0-3-.71a2.88,2.88,0,0,1-.37-2.54,4.18,4.18,0,0,1,1.47-2.73,5.22,5.22,0,0,1,3.23-.87H665l-.42,2.4h-5.36a4.33,4.33,0,0,0-1.75.23,1.07,1.07,0,0,0-.54.82.77.77,0,0,0,.21.78,1.67,1.67,0,0,0,1,.25H661a3.62,3.62,0,0,1,2.72.88,2.8,2.8,0,0,1,.54,2.54,4.57,4.57,0,0,1-1.34,2.6,3.44,3.44,0,0,1-2.44,1h-7.85Z"/></clipPath><clipPath id="clip-path-4"><path class="cls-1" d="M667.38-286h6.23a4.42,4.42,0,0,1,3.36,1.08,3.6,3.6,0,0,1,.63,3.21l-1.27,7.21h-8.17a3.18,3.18,0,0,1-2.49-.86,2.79,2.79,0,0,1-.49-2.45,4.13,4.13,0,0,1,1.56-2.82,6.42,6.42,0,0,1,3.67-.85h4l.05-.29a1.4,1.4,0,0,0-.35-1.44,3.59,3.59,0,0,0-2.07-.42H667Zm2.42,9.19h3.81l.42-2.38h-3.58a3,3,0,0,0-1.52.29,1.4,1.4,0,0,0-.58,1,.86.86,0,0,0,.18.85A2.23,2.23,0,0,0,669.8-276.77Z"/></clipPath><clipPath id="clip-path-5"><path class="cls-1" d="M681.34-274.09h-3.19l2-11.5h3.19Zm2.26-12.82h-3.19l.5-2.86h3.19Z"/></clipPath><clipPath id="clip-path-6"><path class="cls-1" d="M447.76-285.73h5.85a4.57,4.57,0,0,1,3.85,1.56,5.34,5.34,0,0,1,.72,4.34,7.62,7.62,0,0,1-.68,2.1,7,7,0,0,1-1.25,1.74,5.39,5.39,0,0,1-2,1.36,8.35,8.35,0,0,1-2.84.41h-2.61l-.73,4.17h-3Zm2.6,2.48-1.16,6.56h1.85a4.13,4.13,0,0,0,2.75-.78,4.29,4.29,0,0,0,1.22-2.59,3.13,3.13,0,0,0-.27-2.47,2.89,2.89,0,0,0-2.31-.72Z"/></clipPath><clipPath id="clip-path-7"><path class="cls-1" d="M461.39-289.9h3l-.74,4.17h2.7q2.54,0,3.5,1a3.58,3.58,0,0,1,.57,3.21l-1.29,7.29h-3.06l1.22-6.94a2.06,2.06,0,0,0-.15-1.61,2,2,0,0,0-1.52-.43h-2.42l-1.58,9h-3Z"/></clipPath><clipPath id="clip-path-8"><path class="cls-1" d="M473.24-285.73h5.85a4.57,4.57,0,0,1,3.85,1.56,5.34,5.34,0,0,1,.72,4.34,7.6,7.6,0,0,1-.68,2.1,7,7,0,0,1-1.25,1.74,5.39,5.39,0,0,1-2,1.36,8.35,8.35,0,0,1-2.84.41h-2.61l-.73,4.17h-3Zm2.6,2.48-1.16,6.56h1.85a4.13,4.13,0,0,0,2.75-.78,4.29,4.29,0,0,0,1.23-2.59,3.13,3.13,0,0,0-.27-2.47,2.89,2.89,0,0,0-2.31-.72Z"/></clipPath><clipPath id="clip-path-9"><path class="cls-1" d="M513.64-280a7,7,0,0,1-2.41,4.32A7.12,7.12,0,0,1,506.5-274a5.17,5.17,0,0,1-4.17-1.62,5,5,0,0,1-.9-4.32,7,7,0,0,1,2.43-4.33,7.16,7.16,0,0,1,4.74-1.63,5.12,5.12,0,0,1,4.14,1.63,5.05,5.05,0,0,1,.89,4.33m-9,0a3.48,3.48,0,0,0,.32,2.56,2.2,2.2,0,0,0,2,.92,3.17,3.17,0,0,0,2.3-.92,4.58,4.58,0,0,0,1.23-2.56,3.44,3.44,0,0,0-.32-2.55,2.22,2.22,0,0,0-2-.91,3.16,3.16,0,0,0-2.3.92,4.57,4.57,0,0,0-1.22,2.55"/></clipPath><clipPath id="clip-path-10"><path class="cls-1" d="M516.08-285.73h5.72q2.59,0,3.53,1t.54,3.24l-1.29,7.29h-3l1.22-6.92q.23-1.29-.1-1.67a2.11,2.11,0,0,0-1.54-.38h-2.44l-1.58,9h-3Z"/></clipPath><clipPath id="clip-path-11"><path class="cls-1" d="M529.21-283.44H527l.4-2.29h2.19l.21-1.18a3.86,3.86,0,0,1,1.07-2.37,4.22,4.22,0,0,1,2.6-.61h2.88l-.39,2.22h-1.44a2.17,2.17,0,0,0-1.15.24,1.12,1.12,0,0,0-.47.79l-.16.92h2.88l-.4,2.29h-2.88l-1.62,9.21h-3.15Z"/></clipPath><clipPath id="clip-path-12"><path class="cls-1" d="M572.93-285.73h5.72q2.59,0,3.53,1t.54,3.24l-1.29,7.29h-3l1.22-6.92q.23-1.29-.1-1.67a2.11,2.11,0,0,0-1.54-.38h-2.44l-1.58,9h-3Z"/></clipPath><clipPath id="clip-path-13"><path class="cls-1" d="M590.17-276.69h3.23l-.43,2.46h-4.13a8,8,0,0,1-2.52-.33,3.51,3.51,0,0,1-1.57-1.05,4.44,4.44,0,0,1-.91-1.92,6.1,6.1,0,0,1,0-2.4,7.78,7.78,0,0,1,.89-2.49,6.77,6.77,0,0,1,1.6-1.94,5.66,5.66,0,0,1,2-1.05,9.13,9.13,0,0,1,2.61-.32H595l-.44,2.48h-3.23a5,5,0,0,0-3.08.74,4,4,0,0,0-1.26,2.58,3.84,3.84,0,0,0,0,1.75,2,2,0,0,0,.83,1.12,2,2,0,0,0,.74.29,9.86,9.86,0,0,0,1.6.09"/></clipPath><clipPath id="clip-path-14"><path class="cls-1" d="M496.48-276.69h3.23l-.43,2.46h-4.13a8,8,0,0,1-2.52-.33,3.51,3.51,0,0,1-1.57-1.05,4.44,4.44,0,0,1-.91-1.92,6.1,6.1,0,0,1,0-2.4,7.78,7.78,0,0,1,.89-2.49,6.77,6.77,0,0,1,1.6-1.94,5.66,5.66,0,0,1,2-1.05,9.13,9.13,0,0,1,2.61-.32h4.13l-.44,2.48h-3.23a5,5,0,0,0-3.08.74,4,4,0,0,0-1.26,2.58,3.84,3.84,0,0,0,0,1.75,2,2,0,0,0,.83,1.12,2,2,0,0,0,.74.29,9.85,9.85,0,0,0,1.6.09"/></clipPath><clipPath id="clip-path-15"><path class="cls-1" d="M546.77-284.28a3.75,3.75,0,0,0-1.21-.92,7.07,7.07,0,0,0-2.82-.41h-1.5a8.14,8.14,0,0,0-3.54.7,5.5,5.5,0,0,0-2.5,2.53,8.67,8.67,0,0,0-.76,2.4,5.1,5.1,0,0,0,.73,4.29,3.41,3.41,0,0,0,1.12.89,7.54,7.54,0,0,0,2.93.31h4.44l.11-.61.31-1.71h-4c-1.14,0-1.87,0-2.16-.31s-.39-.62-.27-1.55h9.55c.12-.46.22-.84.3-1.27.35-1.89.13-3.38-.67-4.35M544.3-281H538a2.61,2.61,0,0,1,.91-1.77,4,4,0,0,1,2.31-.55h.64a3.19,3.19,0,0,1,2.13.55c.32.31.42.85.3,1.77"/></clipPath><clipPath id="clip-path-16"><path class="cls-1" d="M689.85-278.84a5.29,5.29,0,0,1,1.86-3.51,7.25,7.25,0,0,1,4.32-1.06h2.11a4,4,0,0,0,2.08-.41,2,2,0,0,0,.81-1.39,1.48,1.48,0,0,0-.29-1.45,3.16,3.16,0,0,0-2-.41H691.3l.47-2.69h8.93a9.65,9.65,0,0,1,1.74.12,2.78,2.78,0,0,1,1,.4,2.82,2.82,0,0,1,1.2,1.58,5.35,5.35,0,0,1,.05,2.49,5.43,5.43,0,0,1-1.8,3.39,5.65,5.65,0,0,1-3.71,1.16h-3a3.39,3.39,0,0,0-2.06.51,2.66,2.66,0,0,0-.88,1.73l-.28,1.56h10.14l-.47,2.68H689Z"/></clipPath><clipPath id="clip-path-17"><path class="cls-1" d="M711.42-273.73q-4,0-5.56-2t-.85-6a10,10,0,0,1,3-6.07,9.22,9.22,0,0,1,6.25-2q4,0,5.53,2t.84,6.07a10,10,0,0,1-3,6,9.19,9.19,0,0,1-6.23,2m.43-2.58a4.7,4.7,0,0,0,3.52-1.32,7.64,7.64,0,0,0,1.78-4.1,6,6,0,0,0-.34-4.11,3.31,3.31,0,0,0-3-1.33,4.67,4.67,0,0,0-3.51,1.33,7.71,7.71,0,0,0-1.78,4.11,6,6,0,0,0,.33,4.1,3.3,3.3,0,0,0,3,1.32"/></clipPath><clipPath id="clip-path-18"><polygon class="cls-1" points="724.79 -289.76 722.37 -288.13 721.63 -284.02 724.07 -285.6 722.03 -274.01 725.47 -274.01 728.22 -289.76 724.79 -289.76"/></clipPath><clipPath id="clip-path-19"><path class="cls-1" d="M557.12-285a3.34,3.34,0,0,0-2.4-.58h-5.11l-2,11.12h3l1.52-8.94.39,0s1.37.12,1.59.37a2.42,2.42,0,0,1,.13,1.75l0,.28h2.9l.34-1.86a2.46,2.46,0,0,0-.32-2.19"/></clipPath><clipPath id="clip-path-20"><path class="cls-1" d="M569.91-284.28a3.75,3.75,0,0,0-1.21-.92,7.07,7.07,0,0,0-2.82-.41h-1.5a8.14,8.14,0,0,0-3.54.7,5.5,5.5,0,0,0-2.5,2.53,8.68,8.68,0,0,0-.76,2.4,5.1,5.1,0,0,0,.73,4.29,3.41,3.41,0,0,0,1.12.89,7.54,7.54,0,0,0,2.93.31h4.44l.11-.61.31-1.71h-4c-1.14,0-1.87,0-2.16-.31s-.39-.62-.27-1.55h9.55c.12-.46.22-.84.3-1.27.35-1.89.13-3.38-.67-4.35M567.44-281h-6.29a2.61,2.61,0,0,1,.91-1.77,4,4,0,0,1,2.31-.55H565a3.19,3.19,0,0,1,2.13.55c.32.31.42.85.3,1.77"/></clipPath><clipPath id="clip-path-21"><path class="cls-1" d="M607.21-284.28a3.76,3.76,0,0,0-1.21-.92,7.07,7.07,0,0,0-2.82-.41h-1.5a8.14,8.14,0,0,0-3.54.7,5.5,5.5,0,0,0-2.5,2.53,8.67,8.67,0,0,0-.76,2.4,5.1,5.1,0,0,0,.73,4.29,3.41,3.41,0,0,0,1.12.89,7.54,7.54,0,0,0,2.93.31h4.44l.11-.61.31-1.71h-4c-1.14,0-1.87,0-2.16-.31s-.39-.62-.27-1.55h9.55c.12-.46.22-.84.3-1.27.35-1.89.13-3.38-.67-4.35M604.74-281h-6.29a2.61,2.61,0,0,1,.91-1.77,4,4,0,0,1,2.31-.55h.64a3.19,3.19,0,0,1,2.13.55c.32.31.42.85.3,1.77"/></clipPath><clipPath id="clip-path-22"><polygon class="cls-1" points="740.17 -287.1 730.15 -287.1 730.62 -289.76 744.48 -289.76 744.01 -287.1 732.33 -274.13 728.15 -274.13 740.17 -287.1"/></clipPath><clipPath id="clip-path-23"><polygon class="cls-1" points="615.7 -289.76 618.99 -289.76 617.67 -282.24 625.17 -289.76 629.12 -289.76 621.48 -282.11 626.42 -274.09 622.21 -274.09 617.6 -281.88 616.23 -274.09 612.93 -274.09 615.7 -289.76"/></clipPath></defs><title>title</title><g id="レイヤー_3" data-name="レイヤー 3"><path class="cls-2" d="M89.87,46.19h6.06L93.49,60l13.8-13.85h7.28L100.51,60.27,109.6,75h-7.75L93.37,60.69,90.84,75H84.78Z"/><path class="cls-2" d="M114.34,53.86h11.46q4.34,0,6.18,2t1.15,5.92L130.79,75h-15q-3.16,0-4.58-1.59a5.13,5.13,0,0,1-.9-4.51,7.61,7.61,0,0,1,2.87-5.18q2.23-1.57,6.76-1.57h7.36l.09-.53a2.57,2.57,0,0,0-.64-2.65q-1-.77-3.82-.77h-9.34Zm4.45,16.91h7l.77-4.38H120a5.49,5.49,0,0,0-2.8.53,2.57,2.57,0,0,0-1.07,1.84,1.58,1.58,0,0,0,.32,1.56A4.1,4.1,0,0,0,118.79,70.77Z"/><path class="cls-2" d="M138.34,53.86h10.52q4.77,0,6.49,1.8t1,6L154,75h-5.59l2.25-12.73q.42-2.37-.19-3.08t-2.83-.71h-4.49L140.2,75H134.6Z"/><path class="cls-2" d="M158,70.61h11.79a4.62,4.62,0,0,0,2.37-.49,2.17,2.17,0,0,0,1-1.57,1.52,1.52,0,0,0-.45-1.58,3.63,3.63,0,0,0-2.19-.5h-4.83q-4.3,0-5.58-1.31t-.69-4.67a7.69,7.69,0,0,1,2.71-5,9.6,9.6,0,0,1,5.93-1.61h12l-.78,4.41h-9.87a8,8,0,0,0-3.21.42,2,2,0,0,0-1,1.5,1.42,1.42,0,0,0,.38,1.44,3.07,3.07,0,0,0,1.93.46h5.06q3.47,0,5,1.62t1,4.68a8.4,8.4,0,0,1-2.46,4.79A6.33,6.33,0,0,1,171.7,75H157.26Z"/><path class="cls-2" d="M184.47,53.86h11.46q4.34,0,6.18,2t1.15,5.92L200.93,75h-15q-3.16,0-4.58-1.59a5.13,5.13,0,0,1-.9-4.51,7.61,7.61,0,0,1,2.87-5.18q2.23-1.57,6.76-1.57h7.36l.09-.53a2.57,2.57,0,0,0-.64-2.65q-1-.77-3.82-.77H183.7Zm4.45,16.91h7l.77-4.38h-6.59a5.49,5.49,0,0,0-2.8.53,2.57,2.57,0,0,0-1.07,1.84,1.58,1.58,0,0,0,.32,1.56A4.1,4.1,0,0,0,188.93,70.77Z"/><path class="cls-2" d="M210.63,75h-5.87l3.73-21.17h5.87Zm4.16-23.58h-5.87l.93-5.26h5.87Z"/><path class="cls-2" d="M5.09,7.67H15.86q4.87,0,7.09,2.86t1.32,8A14,14,0,0,1,23,22.38a12.78,12.78,0,0,1-2.29,3.21A9.92,9.92,0,0,1,17,28.08a15.38,15.38,0,0,1-5.23.76H6.94L5.59,36.51H0Zm4.79,4.57L7.74,24.31h3.41a7.6,7.6,0,0,0,5.06-1.43,7.9,7.9,0,0,0,2.25-4.77Q19,14.89,18,13.57t-4.26-1.32Z"/><path class="cls-2" d="M30.15,0H35.7L34.35,7.67h5q4.67,0,6.44,1.83t1,5.92L44.43,28.84H38.8l2.25-12.77q.38-2.18-.27-3T38,12.32H33.53L30.62,28.84H25.07Z"/><path class="cls-2" d="M52,7.67H62.74q4.87,0,7.09,2.86t1.32,8a14,14,0,0,1-1.25,3.86,12.78,12.78,0,0,1-2.29,3.21,9.92,9.92,0,0,1-3.74,2.5,15.38,15.38,0,0,1-5.23.76H53.83l-1.35,7.67H46.88Zm4.79,4.57L54.63,24.31H58a7.6,7.6,0,0,0,5.06-1.43,7.9,7.9,0,0,0,2.25-4.77q.57-3.22-.49-4.54T60.6,12.24Z"/><path class="cls-2" d="M126.29,18.27a12.91,12.91,0,0,1-4.43,8,13.1,13.1,0,0,1-8.7,3q-5.14,0-7.67-3t-1.66-7.95a12.93,12.93,0,0,1,4.47-8,13.18,13.18,0,0,1,8.73-3q5.1,0,7.62,3T126.29,18.27Zm-16.6,0a6.4,6.4,0,0,0,.58,4.71,4,4,0,0,0,3.65,1.69A5.84,5.84,0,0,0,118.16,23a8.41,8.41,0,0,0,2.26-4.71,6.33,6.33,0,0,0-.59-4.7,4.08,4.08,0,0,0-3.66-1.68,5.81,5.81,0,0,0-4.23,1.69A8.41,8.41,0,0,0,109.7,18.27Z"/><path class="cls-2" d="M130.78,7.67H141.3q4.77,0,6.49,1.8t1,6l-2.37,13.42h-5.59l2.25-12.73q.42-2.37-.19-3.08T140,12.32h-4.49l-2.91,16.52h-5.59Z"/><path class="cls-2" d="M154.94,11.89h-4l.74-4.22h4l.38-2.18q.57-3.24,2-4.37T162.83,0h5.3l-.72,4.08h-2.65a4,4,0,0,0-2.12.44A2.06,2.06,0,0,0,161.77,6l-.3,1.69h5.3L166,11.89h-5.3l-3,17H152Z"/><path class="cls-2" d="M235.39,7.67h10.52q4.77,0,6.49,1.8t1,6L251,28.84h-5.59l2.25-12.73q.42-2.37-.19-3.08t-2.83-.71h-4.49l-2.91,16.52h-5.59Z"/><path class="cls-2" d="M267.12,24.31h5.94l-.8,4.53h-7.59a14.67,14.67,0,0,1-4.63-.6,6.46,6.46,0,0,1-2.89-1.93,8.18,8.18,0,0,1-1.68-3.54,11.22,11.22,0,0,1-.05-4.42A14.33,14.33,0,0,1,257,13.76,12.46,12.46,0,0,1,260,10.2a10.39,10.39,0,0,1,3.61-1.93,16.76,16.76,0,0,1,4.8-.6H276l-.81,4.57h-5.94q-3.94,0-5.67,1.36a7.44,7.44,0,0,0-2.33,4.74,7.07,7.07,0,0,0,0,3.22,3.62,3.62,0,0,0,2.89,2.59A18.15,18.15,0,0,0,267.12,24.31Z"/><path class="cls-2" d="M94.73,24.31h5.94l-.8,4.53H92.28a14.67,14.67,0,0,1-4.63-.6,6.46,6.46,0,0,1-2.89-1.93,8.18,8.18,0,0,1-1.68-3.54A11.22,11.22,0,0,1,83,18.34a14.33,14.33,0,0,1,1.63-4.58A12.46,12.46,0,0,1,87.6,10.2a10.39,10.39,0,0,1,3.61-1.93,16.76,16.76,0,0,1,4.8-.6h7.59l-.81,4.57H96.85q-3.94,0-5.67,1.36a7.44,7.44,0,0,0-2.33,4.74,7.07,7.07,0,0,0,0,3.22,3.62,3.62,0,0,0,2.89,2.59A18.15,18.15,0,0,0,94.73,24.31Z"/><path class="cls-2" d="M187.25,10.34A6.92,6.92,0,0,0,185,8.66a13,13,0,0,0-5.19-.75h-2.76a15,15,0,0,0-6.52,1.29A10.12,10.12,0,0,0,166,13.85a16,16,0,0,0-1.41,4.42c-.61,3.48-.15,6.1,1.34,7.89a6.28,6.28,0,0,0,2.06,1.64c1.33.61,3.17.57,5.39.57h8.16l.21-1.11.57-3.15h-7.44c-2.11,0-3.43,0-4-.57s-.72-1.14-.5-2.84h17.58c.22-.85.4-1.55.55-2.34C189.14,14.88,188.72,12.14,187.25,10.34Zm-4.54,6.09H171.14a4.79,4.79,0,0,1,1.68-3.26,7.44,7.44,0,0,1,4.24-1h1.18c2,0,3.34.43,3.93,1S182.94,14.73,182.71,16.43Z"/><path class="cls-2" d="M101.43,120.21q.8-4.52,3.43-6.46t7.95-1.95h3.89a7.28,7.28,0,0,0,3.82-.76,3.61,3.61,0,0,0,1.5-2.56,2.73,2.73,0,0,0-.54-2.66q-.87-.76-3.59-.76H104.11l.87-4.95H121.4a17.7,17.7,0,0,1,3.2.22,5.1,5.1,0,0,1,1.87.74,5.19,5.19,0,0,1,2.2,2.91,9.86,9.86,0,0,1,.09,4.58,10,10,0,0,1-3.31,6.24,10.39,10.39,0,0,1-6.83,2.13H113.2a6.25,6.25,0,0,0-3.79.94,4.89,4.89,0,0,0-1.63,3.19l-.51,2.87h18.65l-.87,4.93H99.91Z"/><path class="cls-2" d="M140.88,129.24q-7.35,0-10.24-3.6t-1.56-11.12q1.33-7.55,5.5-11.16t11.5-3.62q7.31,0,10.18,3.62t1.54,11.16q-1.33,7.53-5.47,11.12T140.88,129.24Zm.8-4.75a8.64,8.64,0,0,0,6.47-2.43q2.38-2.43,3.28-7.54T150.8,107q-1.53-2.44-5.6-2.44a8.6,8.6,0,0,0-6.46,2.44q-2.38,2.44-3.28,7.57t.62,7.54Q137.59,124.49,141.68,124.49Z"/><polygon class="cls-2" points="165.37 100 160.91 103 159.56 110.57 164.05 107.67 160.3 129 166.62 129 171.69 100 165.37 100"/><path class="cls-2" d="M206.31,9c-.74-.79-2.21-1.07-4.41-1.07h-9.4l-3.73,20.47h5.59l2.79-16.45.72.09s2.51.22,2.92.69.52,1.65.24,3.23l-.09.51h5.34L206.9,13C207.25,11,207.05,9.77,206.31,9Z"/><path class="cls-2" d="M229.83,10.34a6.92,6.92,0,0,0-2.23-1.69,13,13,0,0,0-5.19-.75h-2.76a15,15,0,0,0-6.52,1.29,10.12,10.12,0,0,0-4.59,4.65,16,16,0,0,0-1.41,4.42c-.61,3.48-.15,6.1,1.34,7.89a6.28,6.28,0,0,0,2.06,1.64c1.33.61,3.17.57,5.39.57h8.16l.21-1.11.57-3.15h-7.44c-2.11,0-3.43,0-4-.57s-.72-1.14-.5-2.84h17.58c.22-.85.4-1.55.55-2.34C231.72,14.88,231.3,12.14,229.83,10.34Zm-4.54,6.09H213.72a4.79,4.79,0,0,1,1.68-3.26,7.44,7.44,0,0,1,4.24-1h1.18c2,0,3.34.43,3.93,1S225.52,14.73,225.29,16.43Z"/><path class="cls-2" d="M298.47,10.34a6.92,6.92,0,0,0-2.23-1.69A13,13,0,0,0,291,7.91h-2.76a15,15,0,0,0-6.52,1.29,10.12,10.12,0,0,0-4.59,4.65,16,16,0,0,0-1.41,4.42c-.61,3.48-.15,6.1,1.34,7.89a6.28,6.28,0,0,0,2.06,1.64c1.33.61,3.17.57,5.39.57h8.16l.21-1.11.57-3.15h-7.44c-2.11,0-3.43,0-4-.57s-.72-1.14-.5-2.84h17.58c.22-.85.4-1.55.55-2.34C300.35,14.88,299.93,12.14,298.47,10.34Zm-4.54,6.09H282.35A4.79,4.79,0,0,1,284,13.17a7.44,7.44,0,0,1,4.24-1h1.18c2,0,3.34.43,3.93,1S294.16,14.73,293.92,16.43Z"/><path class="cls-2" d="M193.64,104.89H175.2l.87-4.91h25.51l-.87,4.91-21.49,23.86h-7.69Z"/></g></svg>